<svg width="1920" height="568" viewBox="0 0 1920 568" fill="none" xmlns="http://www.w3.org/2000/svg">
<path d="M1611 136.5C1611 133.632 1610.12 130.829 1608.47 128.444C1606.82 126.06 1604.48 124.201 1601.74 123.104C1599 122.006 1595.98 121.719 1593.07 122.279C1590.16 122.838 1587.49 124.219 1585.39 126.247C1583.3 128.275 1581.87 130.858 1581.29 133.671C1580.71 136.484 1581.01 139.399 1582.14 142.049C1583.28 144.698 1585.2 146.963 1587.67 148.556C1590.13 150.15 1593.03 151 1596 151C1599.98 151 1603.79 149.472 1606.61 146.753C1609.42 144.034 1611 140.346 1611 136.5Z" fill="#AE9AC5"/>
<path d="M1636 38C1636 34.0444 1634.8 30.1776 1632.55 26.8886C1630.29 23.5996 1627.09 21.0362 1623.35 19.5224C1619.6 18.0087 1615.48 17.6126 1611.5 18.3843C1607.52 19.156 1603.87 21.0608 1601 23.8579C1598.14 26.6549 1596.18 30.2186 1595.39 34.0982C1594.6 37.9778 1595.01 41.9991 1596.56 45.6537C1598.11 49.3082 1600.74 52.4318 1604.11 54.6294C1607.48 56.827 1611.45 58 1615.5 58C1618.19 58 1620.86 57.4827 1623.35 56.4776C1625.83 55.4725 1628.09 53.9993 1630 52.1421C1631.9 50.285 1633.41 48.0802 1634.44 45.6537C1635.47 43.2272 1636 40.6264 1636 38Z" fill="#F1CC75"/>
<path d="M1611.94 424.065C1611.94 419.107 1610.45 414.261 1607.65 410.14C1604.85 406.018 1600.87 402.805 1596.22 400.908C1591.57 399.011 1586.44 398.514 1581.5 399.482C1576.56 400.449 1572.02 402.836 1568.46 406.341C1564.9 409.847 1562.47 414.313 1561.49 419.175C1560.51 424.037 1561.01 429.077 1562.94 433.657C1564.87 438.237 1568.13 442.151 1572.32 444.905C1576.51 447.659 1581.43 449.129 1586.47 449.129C1589.82 449.129 1593.13 448.481 1596.22 447.222C1599.31 445.962 1602.12 444.116 1604.48 441.788C1606.85 439.461 1608.72 436.698 1610 433.657C1611.28 430.616 1611.94 427.356 1611.94 424.065Z" fill="#F1CC75"/>
<path d="M1825 205C1825 202.231 1824.18 199.524 1822.64 197.222C1821.1 194.92 1818.92 193.125 1816.36 192.066C1813.8 191.006 1810.98 190.729 1808.27 191.269C1805.55 191.809 1803.06 193.143 1801.1 195.101C1799.14 197.058 1797.81 199.553 1797.27 202.269C1796.73 204.984 1797.01 207.799 1798.07 210.358C1799.13 212.916 1800.92 215.102 1803.22 216.641C1805.52 218.179 1808.23 219 1811 219C1814.71 219 1818.27 217.525 1820.9 214.899C1823.53 212.274 1825 208.713 1825 205Z" fill="#F1CC75"/>
<path d="M1652.09 297.917C1652.09 296.351 1651.62 294.82 1650.73 293.518C1649.85 292.217 1648.59 291.202 1647.12 290.603C1645.65 290.003 1644.04 289.847 1642.48 290.152C1640.92 290.458 1639.48 291.212 1638.36 292.319C1637.23 293.426 1636.47 294.837 1636.15 296.372C1635.84 297.908 1636 299.5 1636.61 300.946C1637.22 302.393 1638.25 303.629 1639.58 304.499C1640.9 305.369 1642.45 305.833 1644.05 305.833C1646.18 305.833 1648.23 304.999 1649.73 303.515C1651.24 302.03 1652.09 300.016 1652.09 297.917Z" fill="#8FCECB"/>
<path d="M1572.09 226.917C1572.09 225.351 1571.62 223.82 1570.73 222.518C1569.85 221.217 1568.59 220.202 1567.12 219.603C1565.65 219.003 1564.04 218.847 1562.48 219.152C1560.92 219.458 1559.48 220.212 1558.36 221.319C1557.23 222.426 1556.47 223.837 1556.15 225.372C1555.84 226.908 1556 228.5 1556.61 229.946C1557.22 231.393 1558.25 232.629 1559.58 233.499C1560.9 234.369 1562.45 234.833 1564.05 234.833C1565.1 234.833 1566.15 234.629 1567.12 234.231C1568.1 233.833 1568.99 233.25 1569.73 232.515C1570.48 231.78 1571.07 230.907 1571.48 229.946C1571.88 228.986 1572.09 227.956 1572.09 226.917Z" fill="#F1CC75"/>
<path d="M1700.09 484.917C1700.09 483.351 1699.62 481.82 1698.73 480.518C1697.85 479.217 1696.59 478.202 1695.12 477.603C1693.65 477.003 1692.04 476.847 1690.48 477.152C1688.92 477.458 1687.48 478.212 1686.36 479.319C1685.23 480.426 1684.47 481.837 1684.15 483.372C1683.84 484.908 1684 486.5 1684.61 487.946C1685.22 489.393 1686.25 490.629 1687.58 491.499C1688.9 492.369 1690.45 492.833 1692.05 492.833C1694.18 492.833 1696.23 491.999 1697.73 490.515C1699.24 489.03 1700.09 487.016 1700.09 484.917Z" fill="#8FCECB"/>
<path d="M1708.09 92.9167C1708.09 91.3507 1707.62 89.8198 1706.73 88.5178C1705.85 87.2158 1704.59 86.2011 1703.12 85.6021C1701.65 85.003 1700.03 84.8466 1698.47 85.1525C1696.91 85.4585 1695.48 86.2131 1694.35 87.3208C1693.23 88.4286 1692.46 89.8397 1692.15 91.3758C1691.84 92.9119 1692 94.5039 1692.61 95.9504C1693.22 97.3968 1694.26 98.6329 1695.58 99.5021C1696.9 100.371 1698.46 100.835 1700.05 100.833C1701.11 100.833 1702.15 100.629 1703.13 100.231C1704.1 99.8328 1704.99 99.2495 1705.74 98.5143C1706.48 97.7791 1707.08 96.9063 1707.48 95.9459C1707.88 94.9854 1708.09 93.9561 1708.09 92.9167Z" fill="#8FCECB"/>
<path d="M1885.09 129.923C1885.09 128.357 1884.62 126.825 1883.74 125.523C1882.85 124.22 1881.6 123.204 1880.13 122.604C1878.66 122.004 1877.04 121.847 1875.48 122.151C1873.92 122.456 1872.48 123.21 1871.36 124.317C1870.23 125.424 1869.47 126.834 1869.16 128.37C1868.84 129.906 1869 131.498 1869.61 132.945C1870.22 134.392 1871.25 135.629 1872.57 136.499C1873.9 137.369 1875.45 137.833 1877.05 137.833C1879.18 137.833 1881.22 137 1882.73 135.517C1884.24 134.033 1885.09 132.021 1885.09 129.923Z" fill="#AE9AC5"/>
<path d="M1612.09 526.917C1612.09 525.351 1611.62 523.82 1610.73 522.518C1609.85 521.217 1608.59 520.202 1607.12 519.603C1605.65 519.003 1604.04 518.847 1602.48 519.152C1600.92 519.458 1599.48 520.212 1598.36 521.319C1597.23 522.426 1596.47 523.837 1596.15 525.372C1595.84 526.908 1596 528.5 1596.61 529.946C1597.22 531.393 1598.25 532.629 1599.58 533.499C1600.9 534.369 1602.45 534.833 1604.05 534.833C1606.18 534.833 1608.23 533.999 1609.73 532.515C1611.24 531.03 1612.09 529.016 1612.09 526.917Z" fill="#AE9AC5"/>
<path d="M1700.09 358.917C1700.09 357.351 1699.62 355.82 1698.73 354.518C1697.85 353.217 1696.59 352.202 1695.12 351.603C1693.65 351.003 1692.04 350.847 1690.48 351.152C1688.92 351.458 1687.48 352.212 1686.36 353.319C1685.23 354.426 1684.47 355.837 1684.15 357.372C1683.84 358.908 1684 360.5 1684.61 361.946C1685.22 363.393 1686.25 364.629 1687.58 365.499C1688.9 366.369 1690.45 366.833 1692.05 366.833C1693.1 366.834 1694.15 366.63 1695.13 366.232C1696.1 365.835 1696.99 365.252 1697.74 364.516C1698.48 363.781 1699.08 362.908 1699.48 361.947C1699.88 360.986 1700.09 359.957 1700.09 358.917Z" fill="#F1CC75"/>
<path d="M1768.09 44.9167C1768.09 43.3509 1767.62 41.8203 1766.73 40.5184C1765.85 39.2165 1764.59 38.2018 1763.12 37.6026C1761.65 37.0034 1760.04 36.8467 1758.48 37.1521C1756.92 37.4576 1755.48 38.2116 1754.36 39.3188C1753.23 40.4259 1752.47 41.8366 1752.15 43.3722C1751.84 44.9079 1752 46.4997 1752.61 47.9463C1753.22 49.3929 1754.25 50.6293 1755.58 51.4992C1756.9 52.3691 1758.45 52.8334 1760.05 52.8334C1761.1 52.8342 1762.15 52.63 1763.13 52.2324C1764.1 51.8348 1764.99 51.2517 1765.74 50.5164C1766.48 49.7811 1767.08 48.9081 1767.48 47.9472C1767.88 46.9864 1768.09 45.9566 1768.09 44.9167Z" fill="#F1CC75"/>
<path d="M1701.19 205H1698.81C1696.71 205 1695 203.266 1695 201.126V181.874C1695 179.734 1696.71 178 1698.81 178H1701.19C1703.29 178 1705 179.734 1705 181.874V201.126C1705 203.266 1703.29 205 1701.19 205Z" fill="#AE9AC5"/>
<path d="M1826.52 30H1822.48C1818.9 30 1816 32.9546 1816 36.5993V69.4007C1816 73.0454 1818.9 76 1822.48 76H1826.52C1830.1 76 1833 73.0454 1833 69.4007V36.5993C1833 32.9546 1830.1 30 1826.52 30Z" fill="#8FCECB"/>
<path d="M1885 502.5C1885 499.039 1883.94 495.655 1881.97 492.778C1879.99 489.9 1877.18 487.657 1873.89 486.332C1870.6 485.008 1866.98 484.661 1863.49 485.336C1860 486.012 1856.79 487.678 1854.27 490.126C1851.75 492.573 1850.04 495.691 1849.35 499.086C1848.65 502.481 1849.01 505.999 1850.37 509.197C1851.73 512.395 1854.04 515.128 1857 517.051C1859.96 518.974 1863.44 520 1867 520C1871.77 520 1876.35 518.156 1879.73 514.874C1883.1 511.592 1885 507.141 1885 502.5Z" fill="#F1CC75"/>
<path d="M1760 312C1760 309.231 1760.85 306.524 1762.44 304.222C1764.04 301.92 1766.3 300.125 1768.95 299.066C1771.6 298.006 1774.52 297.729 1777.33 298.269C1780.14 298.809 1782.73 300.143 1784.75 302.101C1786.78 304.058 1788.16 306.553 1788.72 309.269C1789.28 311.984 1788.99 314.799 1787.9 317.358C1786.8 319.916 1784.94 322.102 1782.56 323.641C1780.17 325.179 1777.37 326 1774.5 326C1770.65 326 1766.97 324.525 1764.25 321.899C1761.53 319.274 1760 315.713 1760 312Z" fill="#AE9AC5"/>
<path d="M1794 518C1794 514.638 1793 511.351 1791.13 508.555C1789.27 505.76 1786.61 503.581 1783.51 502.294C1780.4 501.007 1776.98 500.671 1773.68 501.327C1770.39 501.983 1767.36 503.602 1764.98 505.979C1762.6 508.357 1760.98 511.386 1760.33 514.683C1759.67 517.981 1760.01 521.399 1761.29 524.506C1762.58 527.612 1764.76 530.267 1767.56 532.135C1770.35 534.003 1773.64 535 1777 535C1781.51 535 1785.83 533.209 1789.02 530.021C1792.21 526.833 1794 522.509 1794 518Z" fill="#8FCECB"/>
<path fill-rule="evenodd" clip-rule="evenodd" d="M1867.09 316.336C1870.48 315.661 1874 316.008 1877.2 317.332C1880.39 318.657 1883.13 320.9 1885.05 323.778C1886.97 326.655 1888 330.039 1888 333.5C1888 335.798 1887.55 338.074 1886.67 340.197C1885.79 342.32 1884.5 344.249 1882.87 345.874C1881.25 347.499 1879.32 348.788 1877.2 349.668C1875.07 350.547 1872.8 351 1870.5 351C1867.04 351 1863.66 349.974 1860.78 348.051C1857.9 346.128 1855.66 343.395 1854.33 340.197C1853.01 336.999 1852.66 333.481 1853.34 330.086C1854.01 326.691 1855.68 323.573 1858.13 321.126C1860.57 318.678 1863.69 317.012 1867.09 316.336ZM1876.12 319.941C1873.43 318.83 1870.48 318.54 1867.64 319.106C1864.79 319.672 1862.17 321.07 1860.12 323.122C1858.07 325.175 1856.67 327.79 1856.11 330.637C1855.54 333.484 1855.83 336.435 1856.94 339.116C1858.05 341.798 1859.93 344.09 1862.35 345.703C1864.76 347.315 1867.6 348.176 1870.5 348.176C1872.43 348.176 1874.34 347.797 1876.12 347.059C1877.9 346.321 1879.51 345.24 1880.88 343.878C1882.24 342.515 1883.32 340.897 1884.06 339.116C1884.8 337.336 1885.18 335.427 1885.18 333.5C1885.18 330.597 1884.32 327.76 1882.7 325.346C1881.09 322.933 1878.8 321.052 1876.12 319.941Z" fill="#AE9AC5"/>
<path d="M1808.75 403H1804.25C1800.24 403 1797 406.212 1797 410.173V445.827C1797 449.788 1800.24 453 1804.25 453H1808.75C1812.76 453 1816 449.788 1816 445.827V410.173C1816 406.212 1812.76 403 1808.75 403Z" fill="#AE9AC5"/>
<path d="M67 94.5C67 91.6322 66.1203 88.8287 64.472 86.4442C62.8238 84.0597 60.4811 82.2012 57.7402 81.1038C54.9994 80.0063 51.9834 79.7191 49.0736 80.2786C46.1639 80.8381 43.4912 82.2191 41.3934 84.247C39.2956 86.2748 37.867 88.8585 37.2882 91.6712C36.7094 94.4839 37.0065 97.3994 38.1418 100.049C39.2771 102.698 41.1997 104.963 43.6665 106.556C46.1332 108.15 49.0333 109 52 109C55.9782 109 59.7936 107.472 62.6066 104.753C65.4196 102.034 67 98.3456 67 94.5Z" fill="#AE9AC5"/>
<path d="M106 38C106 34.0444 104.798 30.1776 102.545 26.8886C100.293 23.5996 97.0909 21.0362 93.345 19.5224C89.5991 18.0087 85.4773 17.6126 81.5007 18.3843C77.524 19.156 73.8713 21.0608 71.0043 23.8579C68.1373 26.6549 66.1849 30.2186 65.3939 34.0982C64.6029 37.9778 65.0089 41.9991 66.5605 45.6537C68.1121 49.3082 70.7396 52.4318 74.1108 54.6294C77.482 56.827 81.4455 58 85.5 58C88.1921 58 90.8578 57.4827 93.345 56.4776C95.8322 55.4725 98.0921 53.9993 99.9957 52.1421C101.899 50.285 103.409 48.0802 104.44 45.6537C105.47 43.2272 106 40.6264 106 38Z" fill="#F1CC75"/>
<path d="M81.9438 424.065C81.9438 419.107 80.4499 414.261 77.651 410.14C74.8521 406.018 70.8739 402.805 66.2196 400.908C61.5652 399.011 56.4436 398.514 51.5026 399.482C46.5615 400.449 42.0229 402.836 38.4606 406.341C34.8982 409.847 32.4723 414.313 31.4894 419.175C30.5066 424.037 31.011 429.077 32.9389 433.657C34.8668 438.237 38.1316 442.151 42.3205 444.905C46.5093 447.659 51.434 449.129 56.4719 449.129C59.8169 449.129 63.1292 448.481 66.2196 447.222C69.3099 445.962 72.1179 444.116 74.4832 441.788C76.8485 439.461 78.7247 436.698 80.0048 433.657C81.2849 430.616 81.9438 427.356 81.9438 424.065Z" fill="#F1CC75"/>
<path d="M247 169C247 166.231 246.179 163.524 244.641 161.222C243.102 158.92 240.916 157.125 238.358 156.066C235.799 155.006 232.984 154.729 230.269 155.269C227.553 155.809 225.058 157.143 223.101 159.101C221.143 161.058 219.809 163.553 219.269 166.269C218.729 168.984 219.006 171.799 220.066 174.358C221.125 176.916 222.92 179.102 225.222 180.641C227.524 182.179 230.231 183 233 183C236.713 183 240.274 181.525 242.899 178.899C245.525 176.274 247 172.713 247 169Z" fill="#F1CC75"/>
<path d="M42.0906 226.917C42.0906 225.351 41.6188 223.82 40.7347 222.518C39.8507 221.217 38.5942 220.202 37.1241 219.603C35.654 219.003 34.0364 218.847 32.4758 219.152C30.9151 219.458 29.4816 220.212 28.3564 221.319C27.2313 222.426 26.465 223.837 26.1546 225.372C25.8442 226.908 26.0035 228.5 26.6124 229.946C27.2213 231.393 28.2525 232.629 29.5756 233.499C30.8986 234.369 32.4541 234.833 34.0453 234.833C35.1018 234.833 36.148 234.629 37.1241 234.231C38.1002 233.833 38.9871 233.25 39.7342 232.515C40.4813 231.78 41.0739 230.907 41.4782 229.946C41.8825 228.986 42.0906 227.956 42.0906 226.917Z" fill="#F1CC75"/>
<path d="M178.091 92.9167C178.091 91.3507 177.619 89.8198 176.734 88.5178C175.85 87.2158 174.593 86.2011 173.123 85.6021C171.652 85.003 170.034 84.8466 168.474 85.1525C166.913 85.4585 165.479 86.2131 164.354 87.3208C163.229 88.4286 162.464 89.8397 162.154 91.3758C161.844 92.9119 162.004 94.5039 162.614 95.9504C163.224 97.3968 164.256 98.6329 165.58 99.5021C166.904 100.371 168.46 100.835 170.051 100.833C171.107 100.833 172.153 100.629 173.129 100.231C174.105 99.8328 174.991 99.2495 175.738 98.5143C176.485 97.7791 177.077 96.9063 177.48 95.9459C177.884 94.9854 178.091 93.9561 178.091 92.9167Z" fill="#8FCECB"/>
<path d="M132.091 291.917C132.091 290.351 131.619 288.82 130.734 287.518C129.85 286.216 128.593 285.201 127.123 284.602C125.652 284.003 124.034 283.847 122.474 284.153C120.913 284.458 119.479 285.213 118.354 286.321C117.229 287.429 116.464 288.84 116.154 290.376C115.844 291.912 116.004 293.504 116.614 294.95C117.224 296.397 118.256 297.633 119.58 298.502C120.904 299.371 122.46 299.835 124.051 299.833C125.107 299.833 126.153 299.629 127.129 299.231C128.105 298.833 128.991 298.25 129.738 297.514C130.485 296.779 131.077 295.906 131.48 294.946C131.884 293.985 132.091 292.956 132.091 291.917Z" fill="#8FCECB"/>
<path d="M335.091 182.923C335.092 181.357 334.621 179.825 333.738 178.523C332.854 177.22 331.598 176.204 330.128 175.604C328.658 175.004 327.04 174.847 325.479 175.151C323.918 175.456 322.484 176.21 321.359 177.317C320.233 178.424 319.466 179.834 319.155 181.37C318.844 182.906 319.003 184.498 319.612 185.945C320.221 187.392 321.252 188.629 322.575 189.499C323.898 190.369 325.454 190.833 327.045 190.833C329.178 190.833 331.224 190 332.732 188.517C334.241 187.033 335.089 185.021 335.091 182.923Z" fill="#AE9AC5"/>
<path d="M263.091 275.917C263.091 274.351 262.619 272.82 261.735 271.518C260.851 270.217 259.594 269.202 258.124 268.603C256.654 268.003 255.036 267.847 253.476 268.152C251.915 268.458 250.482 269.212 249.356 270.319C248.231 271.426 247.465 272.837 247.155 274.372C246.844 275.908 247.003 277.5 247.612 278.946C248.221 280.393 249.253 281.629 250.576 282.499C251.899 283.369 253.454 283.833 255.045 283.833C257.179 283.833 259.225 282.999 260.734 281.515C262.243 280.03 263.091 278.016 263.091 275.917Z" fill="#AE9AC5"/>
<path d="M82.0906 526.917C82.0906 525.351 81.6188 523.82 80.7348 522.518C79.8507 521.217 78.5942 520.202 77.1241 519.603C75.654 519.003 74.0364 518.847 72.4758 519.152C70.9151 519.458 69.4816 520.212 68.3564 521.319C67.2313 522.426 66.465 523.837 66.1546 525.372C65.8442 526.908 66.0035 528.5 66.6124 529.946C67.2214 531.393 68.2525 532.629 69.5756 533.499C70.8986 534.369 72.4541 534.833 74.0453 534.833C76.1791 534.833 78.2254 533.999 79.7342 532.515C81.243 531.03 82.0906 529.016 82.0906 526.917Z" fill="#AE9AC5"/>
<path d="M202.091 390.917C202.091 389.351 201.619 387.82 200.735 386.518C199.851 385.217 198.594 384.202 197.124 383.603C195.654 383.003 194.036 382.847 192.476 383.152C190.915 383.458 189.482 384.212 188.356 385.319C187.231 386.426 186.465 387.837 186.155 389.372C185.844 390.908 186.003 392.5 186.612 393.946C187.221 395.393 188.253 396.629 189.576 397.499C190.899 398.369 192.454 398.833 194.045 398.833C195.102 398.834 196.149 398.63 197.125 398.232C198.101 397.835 198.989 397.252 199.736 396.516C200.483 395.781 201.076 394.908 201.48 393.947C201.884 392.986 202.091 391.957 202.091 390.917Z" fill="#F1CC75"/>
<path d="M238.091 44.9167C238.091 43.3509 237.619 41.8203 236.735 40.5184C235.851 39.2165 234.594 38.2018 233.124 37.6026C231.654 37.0034 230.036 36.8467 228.476 37.1521C226.915 37.4576 225.482 38.2116 224.356 39.3188C223.231 40.4259 222.465 41.8366 222.155 43.3722C221.844 44.9079 222.003 46.4997 222.612 47.9463C223.221 49.3929 224.253 50.6293 225.576 51.4992C226.899 52.3691 228.454 52.8334 230.045 52.8334C231.102 52.8342 232.149 52.63 233.125 52.2324C234.101 51.8348 234.989 51.2517 235.736 50.5164C236.483 49.7811 237.076 48.9081 237.48 47.9472C237.884 46.9864 238.091 45.9566 238.091 44.9167Z" fill="#F1CC75"/>
<path d="M133.186 210H130.814C128.708 210 127 208.266 127 206.126V186.874C127 184.734 128.708 183 130.814 183H133.186C135.292 183 137 184.734 137 186.874V206.126C137 208.266 135.292 210 133.186 210Z" fill="#AE9AC5"/>
<path d="M312.516 34H308.484C304.903 34 302 36.9546 302 40.5993V73.4007C302 77.0454 304.903 80 308.484 80H312.516C316.097 80 319 77.0454 319 73.4007V40.5993C319 36.9546 316.097 34 312.516 34Z" fill="#8FCECB"/>
<path d="M347 487.5C347 484.039 345.944 480.655 343.966 477.778C341.989 474.9 339.177 472.657 335.888 471.332C332.599 470.008 328.98 469.661 325.488 470.336C321.997 471.012 318.789 472.678 316.272 475.126C313.755 477.573 312.04 480.691 311.346 484.086C310.651 487.481 311.008 490.999 312.37 494.197C313.733 497.395 316.04 500.128 319 502.051C321.96 503.974 325.44 505 329 505C333.774 505 338.352 503.156 341.728 499.874C345.104 496.592 347 492.141 347 487.5Z" fill="#F1CC75"/>
<path d="M219 519C219 515.638 218.003 512.351 216.135 509.555C214.267 506.76 211.612 504.581 208.506 503.294C205.399 502.007 201.981 501.671 198.683 502.327C195.386 502.983 192.357 504.602 189.979 506.979C187.602 509.357 185.983 512.386 185.327 515.683C184.671 518.981 185.007 522.399 186.294 525.506C187.581 528.612 189.76 531.267 192.555 533.135C195.351 535.003 198.638 536 202 536C206.509 536 210.833 534.209 214.021 531.021C217.209 527.833 219 523.509 219 519Z" fill="#8FCECB"/>
<path fill-rule="evenodd" clip-rule="evenodd" d="M337.086 316.336C340.481 315.661 343.999 316.008 347.197 317.332C350.395 318.657 353.128 320.9 355.051 323.778C356.974 326.655 358 330.039 358 333.5C358 335.798 357.547 338.074 356.668 340.197C355.788 342.32 354.499 344.249 352.874 345.874C351.249 347.499 349.32 348.788 347.197 349.668C345.074 350.547 342.798 351 340.5 351C337.039 351 333.655 349.974 330.778 348.051C327.9 346.128 325.657 343.395 324.332 340.197C323.008 336.999 322.661 333.481 323.336 330.086C324.012 326.691 325.678 323.573 328.126 321.126C330.573 318.678 333.691 317.012 337.086 316.336ZM346.116 319.941C343.435 318.83 340.484 318.54 337.637 319.106C334.79 319.672 332.175 321.07 330.122 323.122C328.07 325.175 326.672 327.79 326.106 330.637C325.54 333.484 325.83 336.435 326.941 339.116C328.052 341.798 329.933 344.09 332.346 345.703C334.76 347.315 337.597 348.176 340.5 348.176C342.427 348.176 344.336 347.797 346.116 347.059C347.897 346.321 349.515 345.24 350.878 343.878C352.24 342.515 353.321 340.897 354.059 339.116C354.797 337.336 355.176 335.427 355.176 333.5C355.176 330.597 354.315 327.76 352.703 325.346C351.09 322.933 348.798 321.052 346.116 319.941Z" fill="#AE9AC5"/>
<path d="M278.754 403H274.246C270.244 403 267 406.212 267 410.173V445.827C267 449.788 270.244 453 274.246 453H278.754C282.756 453 286 449.788 286 445.827V410.173C286 406.212 282.756 403 278.754 403Z" fill="#AE9AC5"/>
<path d="M1346.82 412.787C1346.82 407.829 1345.33 402.983 1342.53 398.861C1339.73 394.74 1335.75 391.527 1331.1 389.63C1326.44 387.733 1321.32 387.236 1316.38 388.204C1311.44 389.171 1306.9 391.558 1303.34 395.063C1299.78 398.569 1297.35 403.035 1296.37 407.897C1295.39 412.759 1295.89 417.799 1297.82 422.379C1299.75 426.958 1303.01 430.873 1307.2 433.627C1311.39 436.381 1316.31 437.851 1321.35 437.851C1328.11 437.851 1334.59 435.211 1339.36 430.51C1344.14 425.81 1346.82 419.434 1346.82 412.787Z" fill="#AE9AC5"/>
<path fill-rule="evenodd" clip-rule="evenodd" d="M1419.29 348.355C1422.98 347.642 1426.8 348.008 1430.27 349.408C1433.74 350.808 1436.71 353.18 1438.8 356.222C1440.89 359.264 1442 362.841 1442 366.5C1442 368.929 1441.51 371.335 1440.55 373.58C1439.6 375.824 1438.2 377.864 1436.44 379.581C1434.67 381.299 1432.58 382.662 1430.27 383.592C1427.97 384.521 1425.5 385 1423 385C1419.24 385 1415.57 383.915 1412.44 381.882C1409.32 379.849 1406.88 376.96 1405.45 373.58C1404.01 370.199 1403.63 366.479 1404.37 362.891C1405.1 359.302 1406.91 356.006 1409.56 353.419C1412.22 350.831 1415.61 349.069 1419.29 348.355ZM1429.1 352.166C1426.19 350.992 1422.98 350.685 1419.89 351.283C1416.8 351.882 1413.96 353.36 1411.73 355.529C1409.5 357.699 1407.99 360.464 1407.37 363.473C1406.76 366.483 1407.07 369.602 1408.28 372.437C1409.48 375.272 1411.53 377.695 1414.15 379.4C1416.77 381.105 1419.85 382.015 1423 382.015C1425.09 382.015 1427.16 381.613 1429.1 380.834C1431.03 380.054 1432.79 378.911 1434.27 377.471C1435.75 376.03 1436.92 374.32 1437.72 372.437C1438.52 370.555 1438.93 368.537 1438.93 366.5C1438.93 363.431 1438 360.432 1436.25 357.88C1434.5 355.329 1432.01 353.34 1429.1 352.166Z" fill="#AE9AC5"/>
<path d="M484 32C484 29.2311 483.149 26.5243 481.556 24.222C479.963 21.9197 477.698 20.1253 475.048 19.0657C472.399 18.0061 469.483 17.7288 466.671 18.269C463.858 18.8092 461.274 20.1426 459.246 22.1005C457.219 24.0584 455.838 26.553 455.278 29.2687C454.719 31.9845 455.006 34.7994 456.103 37.3576C457.201 39.9157 459.059 42.1022 461.444 43.6406C463.828 45.1789 466.632 46 469.5 46C471.404 46 473.289 45.6379 475.048 44.9343C476.808 44.2307 478.406 43.1995 479.753 41.8995C481.099 40.5995 482.167 39.0561 482.896 37.3576C483.624 35.659 484 33.8385 484 32Z" fill="#F1CC75"/>
<path d="M451.944 434.065C451.944 429.107 450.45 424.261 447.651 420.14C444.852 416.018 440.874 412.805 436.22 410.908C431.565 409.011 426.444 408.514 421.503 409.482C416.562 410.449 412.023 412.836 408.461 416.341C404.898 419.847 402.472 424.313 401.489 429.175C400.507 434.037 401.011 439.077 402.939 443.657C404.867 448.237 408.132 452.151 412.32 454.905C416.509 457.659 421.434 459.129 426.472 459.129C429.817 459.129 433.129 458.481 436.22 457.222C439.31 455.962 442.118 454.116 444.483 451.788C446.849 449.461 448.725 446.698 450.005 443.657C451.285 440.616 451.944 437.356 451.944 434.065Z" fill="#F1CC75"/>
<path d="M1421 173.5C1421 169.841 1419.89 166.264 1417.8 163.222C1415.71 160.18 1412.74 157.808 1409.27 156.408C1405.8 155.008 1401.98 154.642 1398.29 155.355C1394.61 156.069 1391.22 157.831 1388.56 160.419C1385.91 163.006 1384.1 166.302 1383.36 169.891C1382.63 173.479 1383.01 177.199 1384.45 180.58C1385.88 183.96 1388.32 186.849 1391.44 188.882C1394.57 190.915 1398.24 192 1402 192C1407.04 192 1411.87 190.051 1415.43 186.581C1419 183.112 1421 178.406 1421 173.5Z" fill="#F1CC75"/>
<path d="M527 170C527 167.231 526.178 164.524 524.64 162.222C523.102 159.92 520.915 158.125 518.357 157.066C515.799 156.006 512.984 155.729 510.268 156.269C507.553 156.809 505.058 158.143 503.1 160.101C501.142 162.058 499.809 164.553 499.269 167.269C498.728 169.984 499.006 172.799 500.065 175.358C501.125 177.916 502.919 180.102 505.222 181.641C507.524 183.179 510.231 184 513 184C516.713 184 520.273 182.525 522.899 179.899C525.525 177.274 527 173.713 527 170Z" fill="#AE9AC5"/>
<path d="M623.091 216.917C623.091 215.351 622.619 213.82 621.735 212.518C620.851 211.217 619.594 210.202 618.124 209.603C616.654 209.003 615.036 208.847 613.476 209.152C611.915 209.458 610.482 210.212 609.356 211.319C608.231 212.426 607.465 213.837 607.155 215.372C606.844 216.908 607.003 218.5 607.612 219.946C608.221 221.393 609.253 222.629 610.576 223.499C611.899 224.369 613.454 224.833 615.045 224.833C617.179 224.833 619.225 223.999 620.734 222.515C622.243 221.03 623.091 219.016 623.091 216.917Z" fill="#8FCECB"/>
<path d="M683.334 487.483C683.334 485.917 682.862 484.386 681.978 483.085C681.094 481.783 679.838 480.768 678.368 480.169C676.898 479.57 675.28 479.413 673.719 479.718C672.159 480.024 670.725 480.778 669.6 481.885C668.475 482.992 667.709 484.403 667.398 485.938C667.088 487.474 667.247 489.066 667.856 490.512C668.465 491.959 669.496 493.196 670.819 494.065C672.142 494.935 673.698 495.4 675.289 495.4C677.423 495.4 679.469 494.565 680.978 493.081C682.487 491.596 683.334 489.583 683.334 487.483Z" fill="#8FCECB"/>
<path d="M1430.09 29.9167C1430.09 28.3509 1429.62 26.8203 1428.73 25.5184C1427.85 24.2165 1426.59 23.2018 1425.12 22.6026C1423.65 22.0034 1422.04 21.8467 1420.48 22.1521C1418.91 22.4576 1417.48 23.2116 1416.36 24.3188C1415.23 25.4259 1414.46 26.8365 1414.15 28.3722C1413.84 29.9079 1414 31.4997 1414.61 32.9463C1415.22 34.3929 1416.25 35.6293 1417.58 36.4992C1418.9 37.3691 1420.45 37.8334 1422.04 37.8334C1424.18 37.8334 1426.22 36.9994 1427.73 35.5147C1429.24 34.03 1430.09 32.0164 1430.09 29.9167Z" fill="#8FCECB"/>
<path d="M942.081 434.432C942.082 432.866 941.611 431.335 940.728 430.032C939.845 428.729 938.588 427.714 937.118 427.114C935.648 426.513 934.031 426.356 932.47 426.661C930.909 426.965 929.475 427.719 928.349 428.826C927.223 429.933 926.456 431.344 926.145 432.879C925.834 434.415 925.993 436.007 926.602 437.454C927.211 438.901 928.242 440.138 929.565 441.008C930.888 441.878 932.444 442.343 934.036 442.343C936.168 442.343 938.214 441.509 939.722 440.026C941.231 438.543 942.079 436.53 942.081 434.432Z" fill="#8FCECB"/>
<path d="M1198.08 293.064C1198.08 291.497 1197.61 289.965 1196.73 288.663C1195.84 287.361 1194.58 286.346 1193.11 285.747C1191.64 285.149 1190.02 284.993 1188.46 285.301C1186.9 285.608 1185.47 286.365 1184.34 287.474C1183.22 288.584 1182.45 289.996 1182.14 291.534C1181.84 293.071 1182 294.663 1182.61 296.109C1183.23 297.556 1184.26 298.79 1185.59 299.658C1186.91 300.525 1188.47 300.985 1190.06 300.98C1192.2 300.98 1194.24 300.146 1195.75 298.662C1197.26 297.177 1198.11 295.163 1198.11 293.064" fill="#8FCECB"/>
<path d="M1242.09 141.917C1242.09 140.351 1241.62 138.82 1240.73 137.518C1239.85 136.217 1238.59 135.202 1237.12 134.603C1235.65 134.003 1234.04 133.847 1232.48 134.152C1230.92 134.458 1229.48 135.212 1228.36 136.319C1227.23 137.426 1226.47 138.837 1226.15 140.372C1225.84 141.908 1226 143.5 1226.61 144.946C1227.22 146.393 1228.25 147.629 1229.58 148.499C1230.9 149.369 1232.45 149.833 1234.05 149.833C1236.18 149.833 1238.23 148.999 1239.73 147.515C1241.24 146.03 1242.09 144.016 1242.09 141.917Z" fill="#8FCECB"/>
<path d="M1086.87 500.389C1086.87 498.823 1086.39 497.292 1085.51 495.991C1084.63 494.689 1083.37 493.674 1081.9 493.075C1080.43 492.476 1078.81 492.319 1077.25 492.624C1075.69 492.93 1074.26 493.684 1073.13 494.791C1072.01 495.898 1071.24 497.309 1070.93 498.844C1070.62 500.38 1070.78 501.972 1071.39 503.418C1072 504.865 1073.03 506.102 1074.35 506.971C1075.67 507.841 1077.23 508.306 1078.82 508.306C1079.88 508.306 1080.92 508.102 1081.9 507.705C1082.88 507.307 1083.76 506.724 1084.51 505.989C1085.26 505.253 1085.85 504.38 1086.26 503.419C1086.66 502.459 1086.87 501.429 1086.87 500.389Z" fill="#8FCECB"/>
<path d="M1295.11 500.389C1295.11 498.823 1294.64 497.292 1293.76 495.99C1292.87 494.688 1291.62 493.673 1290.14 493.074C1288.67 492.475 1287.06 492.319 1285.5 492.625C1283.93 492.931 1282.5 493.685 1281.38 494.793C1280.25 495.901 1279.49 497.312 1279.18 498.848C1278.87 500.384 1279.03 501.976 1279.64 503.423C1280.25 504.869 1281.28 506.105 1282.6 506.974C1283.93 507.843 1285.48 508.307 1287.07 508.306C1288.13 508.306 1289.18 508.101 1290.15 507.703C1291.13 507.305 1292.01 506.722 1292.76 505.987C1293.51 505.251 1294.1 504.378 1294.5 503.418C1294.91 502.458 1295.11 501.428 1295.11 500.389Z" fill="#8FCECB"/>
<path d="M430.613 90.8232C430.613 89.2572 430.141 87.7263 429.256 86.4243C428.372 85.1223 427.115 84.1076 425.645 83.5086C424.174 82.9095 422.556 82.7531 420.996 83.059C419.435 83.365 418.001 84.1196 416.876 85.2273C415.751 86.3351 414.986 87.7462 414.676 89.2823C414.366 90.8184 414.526 92.4104 415.136 93.8568C415.746 95.3033 416.778 96.5394 418.102 97.4086C419.426 98.2778 420.982 98.7411 422.573 98.7399C423.629 98.7399 424.675 98.5351 425.651 98.1372C426.627 97.7393 427.513 97.156 428.26 96.4208C429.007 95.6856 429.599 94.8128 430.002 93.8524C430.406 92.8919 430.613 91.8626 430.613 90.8232Z" fill="#8FCECB"/>
<path d="M867.897 355.276C867.897 353.711 867.425 352.18 866.541 350.878C865.657 349.576 864.401 348.561 862.931 347.962C861.461 347.363 859.843 347.206 858.282 347.512C856.722 347.817 855.288 348.571 854.163 349.678C853.038 350.786 852.272 352.196 851.961 353.732C851.651 355.268 851.81 356.859 852.419 358.306C853.028 359.753 854.059 360.989 855.382 361.859C856.705 362.729 858.261 363.193 859.852 363.193C861.986 363.193 864.032 362.359 865.541 360.874C867.05 359.39 867.897 357.376 867.897 355.276Z" fill="#8FCECB"/>
<path d="M494.091 223.923C494.092 222.357 493.621 220.825 492.738 219.523C491.854 218.22 490.598 217.204 489.128 216.604C487.658 216.004 486.04 215.847 484.479 216.151C482.918 216.456 481.484 217.21 480.359 218.317C479.233 219.424 478.466 220.834 478.155 222.37C477.844 223.906 478.003 225.498 478.612 226.945C479.221 228.392 480.252 229.629 481.575 230.499C482.898 231.369 484.454 231.833 486.045 231.833C488.178 231.833 490.224 231 491.732 229.517C493.241 228.033 494.089 226.021 494.091 223.923Z" fill="#AE9AC5"/>
<path d="M416.719 18.2289C416.72 16.6622 416.249 15.1303 415.365 13.8272C414.481 12.5242 413.224 11.5086 411.753 10.909C410.282 10.3094 408.663 10.1529 407.101 10.4591C405.54 10.7653 404.106 11.5206 402.981 12.6293C401.856 13.738 401.09 15.1502 400.781 16.6872C400.472 18.2242 400.634 19.8169 401.245 21.2635C401.857 22.7101 402.891 23.9457 404.216 24.8137C405.542 25.6818 407.099 26.1433 408.692 26.1398C410.821 26.1352 412.862 25.2998 414.367 23.8169C415.872 22.334 416.717 20.3245 416.719 18.2289Z" fill="#AE9AC5"/>
<path d="M629.09 151.917C629.09 150.351 628.618 148.82 627.734 147.518C626.85 146.216 625.593 145.201 624.122 144.602C622.652 144.003 621.034 143.847 619.473 144.153C617.912 144.458 616.479 145.213 615.354 146.321C614.229 147.429 613.463 148.84 613.153 150.376C612.844 151.912 613.004 153.504 613.614 154.95C614.223 156.397 615.256 157.633 616.579 158.502C617.903 159.371 619.459 159.835 621.051 159.833C623.184 159.832 625.228 158.997 626.736 157.513C628.243 156.028 629.09 154.015 629.09 151.917Z" fill="#AE9AC5"/>
<path d="M603.346 353.518C603.346 351.952 602.875 350.421 601.991 349.12C601.107 347.818 599.85 346.803 598.38 346.204C596.91 345.605 595.292 345.448 593.732 345.753C592.171 346.059 590.737 346.813 589.612 347.92C588.487 349.027 587.721 350.438 587.41 351.973C587.1 353.509 587.259 355.101 587.868 356.547C588.477 357.994 589.508 359.23 590.831 360.1C592.154 360.97 593.71 361.435 595.301 361.435C597.435 361.435 599.481 360.6 600.99 359.116C602.499 357.631 603.346 355.617 603.346 353.518Z" fill="#AE9AC5"/>
<path d="M1086.87 389.578C1086.87 388.013 1086.39 386.482 1085.51 385.18C1084.63 383.878 1083.37 382.863 1081.9 382.264C1080.43 381.665 1078.81 381.508 1077.25 381.814C1075.69 382.119 1074.26 382.873 1073.13 383.98C1072.01 385.088 1071.24 386.498 1070.93 388.034C1070.62 389.57 1070.78 391.161 1071.39 392.608C1072 394.055 1073.03 395.291 1074.35 396.161C1075.67 397.031 1077.23 397.495 1078.82 397.495C1080.95 397.495 1083 396.661 1084.51 395.176C1086.02 393.692 1086.87 391.678 1086.87 389.578Z" fill="#AE9AC5"/>
<path d="M490.301 515.777C490.301 514.211 489.829 512.68 488.945 511.378C488.061 510.076 486.805 509.062 485.335 508.462C483.864 507.863 482.247 507.707 480.686 508.012C479.126 508.317 477.692 509.071 476.567 510.179C475.442 511.286 474.675 512.696 474.365 514.232C474.055 515.768 474.214 517.36 474.823 518.806C475.432 520.253 476.463 521.489 477.786 522.359C479.109 523.229 480.665 523.693 482.256 523.693C484.39 523.693 486.436 522.859 487.945 521.375C489.453 519.89 490.301 517.876 490.301 515.777Z" fill="#AE9AC5"/>
<path d="M1230.16 479.09C1230.16 477.524 1229.69 475.993 1228.81 474.69C1227.92 473.388 1226.67 472.372 1225.2 471.772C1223.73 471.172 1222.11 471.014 1220.55 471.319C1218.99 471.624 1217.55 472.377 1216.43 473.484C1215.3 474.591 1214.53 476.002 1214.22 477.538C1213.91 479.074 1214.07 480.666 1214.68 482.113C1215.29 483.56 1216.32 484.796 1217.64 485.667C1218.97 486.537 1220.52 487.001 1222.11 487.001C1224.25 487.001 1226.29 486.168 1227.8 484.684C1229.31 483.201 1230.16 481.189 1230.16 479.09Z" fill="#F1CC75"/>
<path d="M1428.09 526.917C1428.09 525.351 1427.62 523.82 1426.73 522.518C1425.85 521.216 1424.59 520.201 1423.12 519.602C1421.65 519.003 1420.03 518.847 1418.47 519.153C1416.91 519.458 1415.48 520.213 1414.35 521.321C1413.23 522.429 1412.46 523.84 1412.15 525.376C1411.84 526.912 1412 528.504 1412.61 529.95C1413.22 531.397 1414.26 532.633 1415.58 533.502C1416.9 534.371 1418.46 534.835 1420.05 534.833C1422.18 534.832 1424.23 533.997 1425.74 532.513C1427.24 531.028 1428.09 529.015 1428.09 526.917Z" fill="#AE9AC5"/>
<path d="M1440.09 253.917C1440.09 252.351 1439.62 250.82 1438.73 249.518C1437.85 248.216 1436.59 247.201 1435.12 246.602C1433.65 246.003 1432.03 245.847 1430.47 246.153C1428.91 246.458 1427.48 247.213 1426.35 248.321C1425.23 249.429 1424.46 250.84 1424.15 252.376C1423.84 253.912 1424 255.504 1424.61 256.95C1425.22 258.397 1426.26 259.633 1427.58 260.502C1428.9 261.371 1430.46 261.835 1432.05 261.833C1433.11 261.833 1434.15 261.629 1435.13 261.231C1436.1 260.833 1436.99 260.25 1437.74 259.514C1438.48 258.779 1439.08 257.906 1439.48 256.946C1439.88 255.985 1440.09 254.956 1440.09 253.917Z" fill="#AE9AC5"/>
<path d="M903.647 478.403C903.647 476.838 903.175 475.307 902.291 474.005C901.407 472.703 900.151 471.688 898.681 471.089C897.211 470.49 895.593 470.333 894.032 470.639C892.472 470.944 891.038 471.698 889.913 472.805C888.788 473.913 888.022 475.323 887.711 476.859C887.401 478.395 887.56 479.986 888.169 481.433C888.778 482.879 889.809 484.116 891.132 484.986C892.455 485.856 894.011 486.32 895.602 486.32C897.736 486.32 899.782 485.486 901.291 484.001C902.8 482.517 903.647 480.503 903.647 478.403Z" fill="#F1CC75"/>
<path d="M779.753 393H775.246C771.244 393 768 396.212 768 400.173V435.827C768 439.788 771.244 443 775.246 443H779.753C783.755 443 787 439.788 787 435.827V400.173C787 396.212 783.755 393 779.753 393Z" fill="#AE9AC5"/>
<path d="M1519.37 358.478C1519.37 356.912 1518.89 355.382 1518.01 354.08C1517.13 352.778 1515.87 351.763 1514.4 351.164C1512.93 350.565 1511.31 350.408 1509.75 350.714C1508.19 351.019 1506.76 351.773 1505.63 352.88C1504.51 353.987 1503.74 355.398 1503.43 356.934C1503.12 358.469 1503.28 360.061 1503.89 361.508C1504.5 362.954 1505.53 364.191 1506.85 365.061C1508.17 365.931 1509.73 366.395 1511.32 366.395C1513.45 366.395 1515.5 365.561 1517.01 364.076C1518.52 362.592 1519.37 360.578 1519.37 358.478Z" fill="#F1CC75"/>
<path d="M1519.37 39.4726C1519.37 37.9068 1518.89 36.3762 1518.01 35.0743C1517.13 33.7724 1515.87 32.7577 1514.4 32.1585C1512.93 31.5593 1511.31 31.4026 1509.75 31.708C1508.19 32.0135 1506.76 32.7675 1505.63 33.8747C1504.51 34.9818 1503.74 36.3925 1503.43 37.9282C1503.12 39.4638 1503.28 41.0556 1503.89 42.5022C1504.5 43.9488 1505.53 45.1852 1506.85 46.0551C1508.17 46.925 1509.73 47.3893 1511.32 47.3893C1513.45 47.3893 1515.5 46.5553 1517.01 45.0706C1518.52 43.5859 1519.37 41.5723 1519.37 39.4726Z" fill="#F1CC75"/>
<path d="M731.091 193.917C731.091 192.351 730.619 190.82 729.735 189.518C728.851 188.217 727.594 187.202 726.124 186.603C724.654 186.003 723.036 185.847 721.476 186.152C719.915 186.458 718.482 187.212 717.356 188.319C716.231 189.426 715.465 190.837 715.155 192.372C714.844 193.908 715.003 195.5 715.612 196.946C716.221 198.393 717.253 199.629 718.576 200.499C719.899 201.369 721.454 201.833 723.045 201.833C724.102 201.834 725.149 201.63 726.125 201.232C727.101 200.835 727.989 200.252 728.736 199.516C729.483 198.781 730.076 197.908 730.48 196.947C730.884 195.986 731.091 194.957 731.091 193.917Z" fill="#F1CC75"/>
<path d="M1499.75 443H1495.25C1491.24 443 1488 446.212 1488 450.173V485.827C1488 489.788 1491.24 493 1495.25 493H1499.75C1503.76 493 1507 489.788 1507 485.827V450.173C1507 446.212 1503.76 443 1499.75 443Z" fill="#AE9AC5"/>
<path fill-rule="evenodd" clip-rule="evenodd" d="M414.068 189.399C409.872 189.399 406.471 192.746 406.471 196.875V244.965C406.471 249.094 409.872 252.441 414.068 252.441H420.184C424.379 252.441 427.781 249.094 427.781 244.965V196.875C427.781 192.746 424.379 189.399 420.184 189.399H414.068ZM402 196.875C402 190.317 407.403 185 414.068 185H420.184C426.849 185 432.252 190.317 432.252 196.875V244.965C432.252 251.524 426.849 256.841 420.184 256.841H414.068C407.403 256.841 402 251.524 402 244.965V196.875Z" fill="#F1CC75"/>
<path fill-rule="evenodd" clip-rule="evenodd" d="M1485.18 162.368C1481.99 162.368 1479.4 164.931 1479.4 168.091V204.909C1479.4 208.069 1481.99 210.632 1485.18 210.632H1489.82C1493.01 210.632 1495.6 208.069 1495.6 204.909V168.091C1495.6 164.931 1493.01 162.368 1489.82 162.368H1485.18ZM1476 168.091C1476 163.07 1480.11 159 1485.18 159H1489.82C1494.89 159 1499 163.07 1499 168.091V204.909C1499 209.93 1494.89 214 1489.82 214H1485.18C1480.11 214 1476 209.93 1476 204.909V168.091Z" fill="#F1CC75"/>
</svg>
