<svg width="112" height="98" viewBox="0 0 112 98" fill="none" xmlns="http://www.w3.org/2000/svg">
<path fill-rule="evenodd" clip-rule="evenodd" d="M50.7326 5.51881C55.9701 4.477 61.3988 5.01171 66.3324 7.05528C71.2661 9.09884 75.4829 12.5595 78.4497 16.9996C81.4165 21.4397 83 26.6599 83 32C83 35.5457 82.3016 39.0567 80.9447 42.3324C79.5878 45.6082 77.599 48.5847 75.0919 51.0919C72.5847 53.5991 69.6082 55.5879 66.3324 56.9448C63.0567 58.3016 59.5457 59 56 59C50.6599 59 45.4397 57.4165 40.9996 54.4497C36.5595 51.4829 33.0988 47.2661 31.0552 42.3324C29.0117 37.3988 28.477 31.97 29.5188 26.7326C30.5606 21.4951 33.1321 16.6842 36.9081 12.9081C40.6841 9.13213 45.4951 6.56061 50.7326 5.51881ZM64.6652 11.0804C60.5277 9.36662 55.9749 8.9182 51.5825 9.79189C47.1902 10.6656 43.1555 12.8222 39.9888 15.9889C36.8221 19.1556 34.6656 23.1902 33.7919 27.5825C32.9182 31.9749 33.3666 36.5277 35.0804 40.6652C36.7942 44.8027 39.6965 48.3391 43.4201 50.8271C47.1438 53.3152 51.5216 54.6432 56 54.6432C58.9736 54.6432 61.918 54.0575 64.6652 52.9196C67.4124 51.7817 69.9085 50.1138 72.0111 48.0112C74.1137 45.9086 75.7816 43.4124 76.9196 40.6652C78.0575 37.918 78.6432 34.9735 78.6432 32C78.6432 27.5216 77.3152 23.1438 74.8271 19.4201C72.3391 15.6965 68.8027 12.7942 64.6652 11.0804Z" fill="#8FCECB"/>
<path d="M111.082 27.9167C111.082 26.3509 110.611 24.8203 109.727 23.5184C108.843 22.2165 107.588 21.2018 106.118 20.6026C104.649 20.0034 103.032 19.8467 101.472 20.1521C99.9125 20.4576 98.4798 21.2116 97.3552 22.3188C96.2306 23.4259 95.4648 24.8365 95.1545 26.3722C94.8442 27.9079 95.0035 29.4997 95.6121 30.9463C96.2207 32.3929 97.2514 33.6293 98.5737 34.4992C99.8961 35.3691 101.451 35.8334 103.041 35.8334C104.097 35.8342 105.143 35.6299 106.119 35.2324C107.095 34.8348 107.982 34.2517 108.729 33.5164C109.476 32.7811 110.068 31.9081 110.472 30.9472C110.876 29.9864 111.083 28.9566 111.082 27.9167Z" fill="#AE9AC5"/>
<path d="M16.0823 7.91672C16.0823 6.35094 15.6106 4.82032 14.7271 3.51843C13.8435 2.21653 12.5876 1.20183 11.1183 0.602628C9.649 0.00343084 8.0322 -0.153347 6.47237 0.152121C4.91255 0.457589 3.47977 1.21158 2.3552 2.31876C1.23063 3.42593 0.464783 4.83655 0.154514 6.37224C-0.155755 7.90793 0.00347719 9.49972 0.612091 10.9463C1.2207 12.3929 2.25136 13.6293 3.57372 14.4992C4.89607 15.3691 6.45075 15.8334 8.04113 15.8334C9.09733 15.8342 10.1433 15.6299 11.1192 15.2324C12.0952 14.8348 12.982 14.2517 13.7288 13.5164C14.4756 12.7811 15.0679 11.9081 15.4717 10.9472C15.8756 9.98637 16.083 8.95657 16.0823 7.91672Z" fill="#F1CC75"/>
<path d="M94.8162 68L97.5709 68C100.017 68 102 69.9269 102 72.3039L102 93.6961C102 96.0731 100.017 98 97.5709 98L94.8162 98C92.3701 98 90.3871 96.0731 90.3871 93.6961L90.3871 72.3039C90.3871 69.9269 92.3701 68 94.8162 68Z" fill="#F1CC75"/>
</svg>
