<svg width="98" height="112" viewBox="0 0 98 112" fill="none" xmlns="http://www.w3.org/2000/svg">
<path fill-rule="evenodd" clip-rule="evenodd" d="M5.5188 50.7326C4.477 55.9701 5.01171 61.3988 7.05527 66.3324C9.09884 71.2661 12.5595 75.4829 16.9996 78.4497C21.4397 81.4165 26.6599 83 32 83C35.5457 83 39.0567 82.3016 42.3324 80.9447C45.6082 79.5878 48.5847 77.599 51.0919 75.0919C53.5991 72.5847 55.5879 69.6082 56.9448 66.3324C58.3016 63.0567 59 59.5457 59 56C59 50.6599 57.4165 45.4397 54.4497 40.9996C51.4829 36.5595 47.2661 33.0988 42.3324 31.0552C37.3988 29.0117 31.97 28.477 26.7326 29.5188C21.4951 30.5606 16.6842 33.1321 12.9081 36.9081C9.13213 40.6841 6.56061 45.4951 5.5188 50.7326ZM11.0804 64.6652C9.36662 60.5277 8.91819 55.9749 9.79189 51.5825C10.6656 47.1902 12.8222 43.1555 15.9889 39.9888C19.1556 36.8221 23.1902 34.6656 27.5825 33.7919C31.9749 32.9182 36.5277 33.3666 40.6652 35.0804C44.8027 36.7942 48.339 39.6965 50.8271 43.4201C53.3152 47.1438 54.6432 51.5216 54.6432 56C54.6432 58.9736 54.0575 61.918 52.9196 64.6652C51.7817 67.4124 50.1138 69.9085 48.0112 72.0111C45.9085 74.1137 43.4124 75.7816 40.6652 76.9196C37.918 78.0575 34.9735 78.6432 32 78.6432C27.5216 78.6432 23.1438 77.3152 19.4201 74.8271C15.6965 72.3391 12.7942 68.8027 11.0804 64.6652Z" fill="#8FCECB"/>
<path d="M27.9167 111.082C26.3509 111.082 24.8203 110.611 23.5184 109.727C22.2165 108.843 21.2018 107.588 20.6026 106.118C20.0034 104.649 19.8467 103.032 20.1521 101.472C20.4576 99.9125 21.2116 98.4798 22.3188 97.3552C23.4259 96.2306 24.8365 95.4648 26.3722 95.1545C27.9079 94.8442 29.4997 95.0035 30.9463 95.6121C32.3929 96.2207 33.6293 97.2514 34.4992 98.5737C35.3691 99.8961 35.8334 101.451 35.8334 103.041C35.8342 104.097 35.6299 105.143 35.2324 106.119C34.8348 107.095 34.2517 107.982 33.5164 108.729C32.7811 109.476 31.9081 110.068 30.9472 110.472C29.9864 110.876 28.9566 111.083 27.9167 111.082Z" fill="#AE9AC5"/>
<path d="M7.91672 16.0823C6.35094 16.0823 4.82032 15.6106 3.51843 14.7271C2.21653 13.8435 1.20182 12.5876 0.602628 11.1183C0.00343042 9.649 -0.153348 8.0322 0.15212 6.47237C0.457589 4.91255 1.21158 3.47977 2.31876 2.3552C3.42593 1.23063 4.83655 0.464783 6.37224 0.154514C7.90793 -0.155754 9.49972 0.00347761 10.9463 0.612091C12.3929 1.22071 13.6293 2.25136 14.4992 3.57372C15.3691 4.89607 15.8334 6.45075 15.8334 8.04113C15.8342 9.09733 15.6299 10.1433 15.2324 11.1192C14.8348 12.0952 14.2517 12.982 13.5164 13.7288C12.7811 14.4756 11.9081 15.0679 10.9472 15.4717C9.98637 15.8756 8.95657 16.083 7.91672 16.0823Z" fill="#F1CC75"/>
<path d="M68 94.8162L68 97.5709C68 100.017 69.9269 102 72.3039 102L93.6961 102C96.0731 102 98 100.017 98 97.5709L98 94.8162C98 92.3701 96.0731 90.3871 93.6961 90.3871L72.3039 90.3871C69.9269 90.3871 68 92.3701 68 94.8162Z" fill="#F1CC75"/>
</svg>
