<svg width="84" height="69" viewBox="0 0 84 69" fill="none" xmlns="http://www.w3.org/2000/svg">
<path fill-rule="evenodd" clip-rule="evenodd" d="M39.8663 10.2594C42.485 9.7385 45.1994 10.0059 47.6662 11.0276C50.133 12.0494 52.2414 13.7798 53.7248 15.9998C55.2082 18.2199 56 20.8299 56 23.5C56 25.2729 55.6508 27.0283 54.9724 28.6662C54.2939 30.3041 53.2995 31.7924 52.0459 33.0459C50.7923 34.2995 49.3041 35.2939 47.6662 35.9724C46.0283 36.6508 44.2728 37 42.5 37C39.83 37 37.2199 36.2082 34.9998 34.7248C32.7797 33.2414 31.0494 31.133 30.0276 28.6662C29.0058 26.1994 28.7385 23.485 29.2594 20.8663C29.7803 18.2475 31.066 15.8421 32.954 13.9541C34.8421 12.0661 37.2475 10.7803 39.8663 10.2594ZM46.8326 13.0402C44.7638 12.1833 42.4874 11.9591 40.2913 12.3959C38.0951 12.8328 36.0778 13.9111 34.4944 15.4944C32.9111 17.0778 31.8328 19.0951 31.396 21.2913C30.9591 23.4874 31.1833 25.7638 32.0402 27.8326C32.8971 29.9013 34.3482 31.6695 36.2101 32.9136C38.0719 34.1576 40.2608 34.8216 42.5 34.8216C43.9868 34.8216 45.459 34.5288 46.8326 33.9598C48.2062 33.3908 49.4543 32.5569 50.5056 31.5056C51.5569 30.4543 52.3908 29.2062 52.9598 27.8326C53.5287 26.459 53.8216 24.9868 53.8216 23.5C53.8216 21.2608 53.1576 19.0719 51.9136 17.2101C50.6695 15.3482 48.9013 13.8971 46.8326 13.0402Z" fill="#8FCECB"/>
<path d="M78 14.5C78 13.61 77.7361 12.74 77.2416 11.9999C76.7471 11.2599 76.0443 10.6831 75.2221 10.3425C74.3998 10.002 73.495 9.91283 72.6221 10.0865C71.7492 10.2601 70.9474 10.6887 70.318 11.318C69.6887 11.9474 69.2601 12.7492 69.0865 13.6221C68.9128 14.495 69.0019 15.3998 69.3425 16.2221C69.6831 17.0443 70.2599 17.7471 70.9999 18.2416C71.74 18.7361 72.61 19 73.5 19C74.0911 19.0004 74.6764 18.8843 75.2226 18.6583C75.7687 18.4324 76.265 18.1009 76.683 17.683C77.1009 17.265 77.4324 16.7688 77.6583 16.2226C77.8843 15.6764 78.0004 15.0911 78 14.5Z" fill="#AE9AC5"/>
<path d="M17 24C17 23.0111 16.7067 22.0444 16.1573 21.2222C15.6079 20.3999 14.827 19.759 13.9134 19.3806C12.9998 19.0022 11.9944 18.9031 11.0245 19.0961C10.0546 19.289 9.16373 19.7652 8.46447 20.4645C7.76521 21.1637 7.289 22.0546 7.09608 23.0245C6.90315 23.9945 7.00216 24.9998 7.3806 25.9134C7.75904 26.827 8.3999 27.6079 9.22215 28.1573C10.0444 28.7068 11.0111 29 12 29C12.6567 29.0005 13.3071 28.8715 13.914 28.6204C14.5208 28.3693 15.0722 28.001 15.5366 27.5366C16.001 27.0722 16.3693 26.5208 16.6204 25.914C16.8715 25.3071 17.0005 24.6567 17 24Z" fill="#F1CC75"/>
<path d="M66.4294 27L69.1842 27C71.6303 27 73.6133 28.9269 73.6133 31.3039L73.6133 52.6961C73.6133 55.0731 71.6303 57 69.1842 57L66.4294 57C63.9833 57 62.0004 55.0731 62.0004 52.6961L62.0004 31.3039C62.0004 28.9269 63.9833 27 66.4294 27Z" fill="#F1CC75"/>
</svg>
