<svg aria-hidden="true" style="position: absolute; width: 0; height: 0; overflow: hidden;" version="1.1" xmlns="http://www.w3.org/2000/svg" xmlns:xlink="http://www.w3.org/1999/xlink">
<defs>
<symbol id="icon-menu-burger" viewBox="0 0 31 32">
<path stroke-linejoin="round" stroke-linecap="round" stroke-miterlimit="4" stroke-width="1.5" d="M3.875 8.002h23.25M3.875 16.002h23.25M3.875 24.002h23.25"></path>
</symbol>
<symbol id="icon-close" viewBox="0 0 32 32">
<path stroke-linejoin="round" stroke-linecap="round" stroke-miterlimit="4" stroke-width="2" d="M24 8l-16 16"></path>
<path stroke-linejoin="round" stroke-linecap="round" stroke-miterlimit="4" stroke-width="2" d="M8 8l16 16"></path>
</symbol>
<symbol id="icon-active" viewBox="0 0 32 32">
<path fill="#663a7b" style="fill: var(--color1, #663a7b)" d="M9.333 4h13.333c2.946 0 5.333 2.388 5.333 5.333v13.333c0 2.946-2.388 5.333-5.333 5.333h-13.333c-2.946 0-5.333-2.388-5.333-5.333v-13.333c0-2.946 2.388-5.333 5.333-5.333z"></path>
<path fill="none" stroke="#fdfcfc" style="stroke: var(--color2, #fdfcfc)" stroke-linejoin="round" stroke-linecap="round" stroke-miterlimit="4" stroke-width="2" d="M22.222 11.722l-8.556 8.556-3.889-3.889"></path>
</symbol>
<symbol id="icon-map" viewBox="0 0 32 32">
<path fill="#e40505" style="fill: var(--color3, #e40505)" d="M16 3c-7.18 0-13 5.82-13 13s5.82 13 13 13c7.18 0 13-5.82 13-13s-5.82-13-13-13zM1 16c0-8.284 6.716-15 15-15s15 6.716 15 15c0 8.284-6.716 15-15 15s-15-6.716-15-15z"></path>
<path fill="#e40505" style="fill: var(--color3, #e40505)" d="M16 9.267c0.773 0 1.4 0.627 1.4 1.4v5.333c0 0.773-0.627 1.4-1.4 1.4s-1.4-0.627-1.4-1.4v-5.333c0-0.773 0.627-1.4 1.4-1.4z"></path>
<path fill="#e40505" style="fill: var(--color3, #e40505)" d="M14.6 21.333c0-0.773 0.627-1.4 1.4-1.4h0.013c0.773 0 1.4 0.627 1.4 1.4s-0.627 1.4-1.4 1.4h-0.013c-0.773 0-1.4-0.627-1.4-1.4z"></path>
</symbol>
<symbol id="icon-map" viewBox="0 0 32 32">
<path fill="none" stroke="#4e4e4e" style="stroke: var(--color4, #4e4e4e)" stroke-linejoin="round" stroke-linecap="round" stroke-miterlimit="4" stroke-width="2" d="M26.303 13.818c0 7.636-9.818 14.182-9.818 14.182s-9.818-6.545-9.818-14.182c0-2.604 1.034-5.101 2.876-6.942s4.339-2.876 6.942-2.876c2.604 0 5.101 1.034 6.943 2.876s2.876 4.339 2.876 6.942z"></path>
<path fill="none" stroke="#4e4e4e" style="stroke: var(--color4, #4e4e4e)" stroke-linejoin="round" stroke-linecap="round" stroke-miterlimit="4" stroke-width="2" d="M16.667 17.333c1.841 0 3.333-1.492 3.333-3.333s-1.492-3.333-3.333-3.333c-1.841 0-3.333 1.492-3.333 3.333s1.492 3.333 3.333 3.333z"></path>
</symbol>
<symbol id="icon-line-mini" viewBox="0 0 9 32">
<path fill="#f1cc75" style="fill: var(--color5, #f1cc75)" d="M4.267 0c2.356 0 4.267 1.508 4.267 3.368v25.263c0 1.86-1.91 3.368-4.267 3.368s-4.267-1.508-4.267-3.368v-25.263c0-1.86 1.91-3.368 4.267-3.368z"></path>
</symbol>
<symbol id="icon-decor_left" viewBox="0 0 28 32">
<path fill="#8fcecb" style="fill: var(--color6, #8fcecb)" d="M1.577 14.495c-0.298 1.496-0.145 3.047 0.439 4.457s1.573 2.614 2.841 3.462c1.269 0.848 2.76 1.3 4.286 1.3 1.013 0 2.016-0.2 2.952-0.587s1.786-0.956 2.503-1.672c0.716-0.716 1.285-1.567 1.672-2.503s0.587-1.939 0.587-2.952c0-1.526-0.452-3.017-1.3-4.286s-2.052-2.257-3.462-2.841c-1.41-0.584-2.961-0.737-4.457-0.439s-2.871 1.032-3.95 2.111c-1.079 1.079-1.814 2.453-2.111 3.95zM3.166 18.476c-0.49-1.182-0.618-2.483-0.368-3.738s0.866-2.408 1.771-3.313c0.905-0.905 2.058-1.521 3.312-1.771s2.556-0.121 3.738 0.368c1.182 0.49 2.193 1.319 2.903 2.383s1.090 2.315 1.090 3.594c0 0.85-0.167 1.691-0.492 2.476s-0.802 1.498-1.402 2.099c-0.601 0.601-1.314 1.077-2.099 1.402s-1.626 0.492-2.476 0.492c-1.28 0-2.53-0.379-3.594-1.090s-1.893-1.721-2.383-2.903z"></path>
<path fill="#ae9ac5" style="fill: var(--color7, #ae9ac5)" d="M7.976 31.738c-0.447 0-0.885-0.135-1.257-0.387s-0.662-0.611-0.833-1.031c-0.171-0.42-0.216-0.882-0.129-1.327s0.303-0.855 0.619-1.176 0.719-0.54 1.158-0.629c0.439-0.089 0.894-0.043 1.307 0.131s0.767 0.468 1.015 0.846c0.249 0.378 0.381 0.822 0.381 1.276 0 0.302-0.058 0.601-0.172 0.879s-0.28 0.532-0.49 0.746c-0.21 0.213-0.46 0.383-0.734 0.498s-0.569 0.175-0.866 0.174z"></path>
<path fill="#f1cc75" style="fill: var(--color5, #f1cc75)" d="M2.262 4.595c-0.447 0-0.885-0.135-1.257-0.387s-0.662-0.611-0.833-1.031c-0.171-0.42-0.216-0.882-0.129-1.327s0.303-0.855 0.619-1.176c0.316-0.321 0.719-0.54 1.158-0.629s0.894-0.043 1.307 0.131c0.413 0.174 0.767 0.468 1.015 0.846s0.381 0.822 0.381 1.276c0 0.302-0.058 0.601-0.172 0.879s-0.28 0.532-0.49 0.746c-0.21 0.213-0.46 0.383-0.734 0.498s-0.569 0.175-0.866 0.174z"></path>
<path fill="#f1cc75" style="fill: var(--color5, #f1cc75)" d="M19.429 27.090v0.787c0 0.699 0.551 1.265 1.23 1.265h6.112c0.679 0 1.23-0.567 1.23-1.265v-0.787c0-0.699-0.551-1.265-1.23-1.265h-6.112c-0.679 0-1.23 0.567-1.23 1.265z"></path>
</symbol>
<symbol id="icon-logo_klas" viewBox="0 0 30 32">
<path fill="#7c59a0" style="fill: var(--color8, #7c59a0)" opacity="0.6" d="M10.455 14.911h6.661c0.234 0.002 0.465-0.059 0.667-0.177 0.351-0.219 0.619-0.549 0.761-0.938 0.348-0.867 1.733-4.184 2.126-5.123 0.069-0.165 0.104-0.341 0.104-0.52v-1.413c0.001-0.204-0.046-0.405-0.135-0.588-0.179-0.36-0.561-0.87-1.284-0.87h-3.152c-0.197 0-0.392-0.043-0.57-0.127s-0.337-0.205-0.463-0.356c-0.126-0.151-0.218-0.328-0.269-0.519s-0.059-0.39-0.024-0.584l0.339-1.893c0.039-0.208 0.027-0.422-0.033-0.624s-0.168-0.388-0.314-0.541c-0.145-0.151-0.312-0.365-0.581-0.424-1.824-0.408-3.863 3.464-4.866 4.693-0.196 0.24-0.304 0.541-0.303 0.852v7.818c-0.003 0.331 0.119 0.652 0.341 0.897l0.023 0.024c0.126 0.131 0.277 0.236 0.444 0.307s0.347 0.108 0.529 0.107z"></path>
<path fill="#e9ae21" style="fill: var(--color9, #e9ae21)" opacity="0.61" d="M19.625 19.418h6.661c0.234 0.002 0.464-0.058 0.667-0.176 0.352-0.219 0.62-0.549 0.762-0.938 0.347-0.868 1.733-4.184 2.125-5.123 0.069-0.165 0.105-0.341 0.104-0.52v-1.412c0.001-0.204-0.045-0.406-0.135-0.589-0.18-0.359-0.561-0.871-1.283-0.871h-3.153c-0.197 0-0.392-0.043-0.571-0.126s-0.337-0.205-0.464-0.356c-0.127-0.151-0.219-0.328-0.269-0.519s-0.059-0.39-0.024-0.584l0.34-1.893c0.038-0.208 0.026-0.422-0.034-0.624s-0.168-0.388-0.313-0.541c-0.146-0.15-0.313-0.364-0.581-0.423-1.825-0.408-3.863 3.464-4.866 4.692-0.196 0.241-0.304 0.542-0.303 0.853v7.817c-0.003 0.331 0.118 0.652 0.34 0.897l0.024 0.025c0.126 0.131 0.277 0.236 0.444 0.307s0.347 0.108 0.529 0.107z"></path>
<path fill="#42b5ae" style="fill: var(--color10, #42b5ae)" opacity="0.6" d="M1.441 19.418h6.661c0.234 0.003 0.465-0.058 0.667-0.176 0.351-0.219 0.619-0.549 0.761-0.938 0.348-0.868 1.733-4.184 2.126-5.123 0.069-0.165 0.104-0.341 0.104-0.52v-1.412c0.001-0.204-0.046-0.406-0.135-0.589-0.18-0.359-0.561-0.874-1.287-0.874h-3.149c-0.197 0-0.392-0.043-0.571-0.126s-0.337-0.205-0.463-0.356c-0.127-0.151-0.218-0.328-0.269-0.519s-0.059-0.39-0.024-0.584l0.339-1.893c0.037-0.208 0.025-0.421-0.036-0.623s-0.169-0.387-0.315-0.539c-0.145-0.15-0.312-0.364-0.581-0.423-1.824-0.408-3.863 3.464-4.866 4.692-0.196 0.241-0.304 0.542-0.303 0.853v7.817c-0.003 0.331 0.118 0.652 0.341 0.897 0.007 0.008 0.016 0.016 0.023 0.025 0.126 0.131 0.277 0.235 0.444 0.307s0.347 0.108 0.529 0.107z"></path>
<path fill="#7c59a0" style="fill: var(--color8, #7c59a0)" d="M2.804 28.258h-0.866v3.007h-1.832v-7.601h1.832v2.937h0.705l1.461-2.937h2.219l-2.089 3.508 2.35 4.093h-2.167l-1.613-3.007z"></path>
<path fill="#7c59a0" style="fill: var(--color8, #7c59a0)" d="M13.941 23.664v7.601h-1.833v-6.186h-1.707l-0.126 2.553c-0.054 0.881-0.176 1.583-0.366 2.109s-0.461 0.909-0.816 1.151c-0.353 0.243-0.835 0.367-1.443 0.374h-0.49v-1.411l0.256-0.026c0.365-0.054 0.63-0.278 0.793-0.671s0.269-1.058 0.316-1.996l0.131-3.497 5.283-0.001z"></path>
<path fill="#7c59a0" style="fill: var(--color8, #7c59a0)" d="M19.999 29.845h-2.511l-0.438 1.42h-1.958l2.788-7.601h1.723l2.809 7.601h-1.969l-0.444-1.42zM17.927 28.43h1.632l-0.82-2.636-0.812 2.636z"></path>
<path fill="#7c59a0" style="fill: var(--color8, #7c59a0)" d="M29.508 28.691c-0.015 0.497-0.163 0.981-0.428 1.402-0.269 0.412-0.65 0.739-1.099 0.942-0.507 0.23-1.059 0.345-1.615 0.334-0.999 0-1.786-0.326-2.36-0.979s-0.861-1.571-0.861-2.754v-0.375c0-0.745 0.13-1.397 0.389-1.958 0.237-0.533 0.627-0.983 1.12-1.295 0.509-0.31 1.095-0.469 1.691-0.457 0.925 0 1.666 0.243 2.224 0.729s0.876 1.155 0.955 2.009h-1.827c-0.014-0.463-0.13-0.795-0.349-0.997s-0.554-0.303-1.005-0.303c-0.456 0-0.79 0.171-1.003 0.511s-0.324 0.885-0.334 1.632v0.538c0 0.811 0.102 1.39 0.305 1.738s0.554 0.522 1.052 0.522c0.421 0 0.743-0.099 0.965-0.298s0.341-0.513 0.355-0.945l1.825 0.002z"></path>
</symbol>
<symbol id="icon-backgraund" viewBox="0 0 108 32">
<path fill="#ae9ac5" style="fill: var(--color7, #ae9ac5)" d="M90.761 7.69c0-0.162-0.050-0.319-0.143-0.454s-0.225-0.239-0.379-0.301c-0.154-0.062-0.325-0.078-0.488-0.046s-0.314 0.109-0.433 0.224c-0.118 0.114-0.198 0.26-0.231 0.418s-0.016 0.323 0.048 0.472c0.064 0.149 0.172 0.277 0.312 0.367s0.302 0.138 0.469 0.138c0.224 0 0.439-0.086 0.598-0.239s0.247-0.361 0.247-0.578z"></path>
<path fill="#f1cc75" style="fill: var(--color5, #f1cc75)" d="M92.169 2.141c0-0.223-0.068-0.441-0.194-0.626s-0.308-0.33-0.518-0.415c-0.211-0.085-0.443-0.108-0.668-0.064s-0.43 0.151-0.592 0.308c-0.161 0.158-0.272 0.358-0.316 0.577s-0.021 0.445 0.066 0.651c0.087 0.206 0.236 0.382 0.425 0.506s0.414 0.19 0.642 0.19c0.152 0 0.302-0.029 0.442-0.086s0.267-0.14 0.375-0.244c0.107-0.105 0.192-0.229 0.25-0.366s0.088-0.283 0.088-0.431z"></path>
<path fill="#f1cc75" style="fill: var(--color5, #f1cc75)" d="M90.814 23.891c0-0.279-0.084-0.552-0.242-0.785s-0.382-0.413-0.644-0.52-0.551-0.135-0.829-0.080c-0.278 0.054-0.534 0.189-0.735 0.386s-0.337 0.449-0.393 0.723-0.027 0.558 0.082 0.816c0.109 0.258 0.292 0.479 0.528 0.634s0.513 0.238 0.797 0.238c0.189 0 0.375-0.037 0.549-0.107s0.332-0.175 0.465-0.306c0.134-0.131 0.239-0.287 0.311-0.458s0.109-0.355 0.109-0.54z"></path>
<path fill="#f1cc75" style="fill: var(--color5, #f1cc75)" d="M102.817 11.549c0-0.156-0.046-0.309-0.133-0.438s-0.21-0.231-0.354-0.29c-0.144-0.060-0.303-0.075-0.456-0.045s-0.294 0.106-0.404 0.216c-0.11 0.11-0.185 0.251-0.216 0.404s-0.015 0.312 0.045 0.456c0.060 0.144 0.161 0.267 0.29 0.354s0.282 0.133 0.438 0.133c0.209 0 0.41-0.083 0.558-0.231s0.231-0.348 0.231-0.558z"></path>
<path fill="#8fcecb" style="fill: var(--color6, #8fcecb)" d="M93.076 16.784c0-0.088-0.026-0.174-0.077-0.248s-0.121-0.13-0.203-0.164c-0.083-0.034-0.174-0.043-0.261-0.025s-0.169 0.060-0.232 0.122c-0.064 0.062-0.106 0.142-0.124 0.228s-0.008 0.176 0.026 0.258c0.034 0.082 0.092 0.151 0.167 0.2s0.162 0.075 0.252 0.075c0.12 0 0.236-0.047 0.32-0.131s0.133-0.197 0.133-0.315z"></path>
<path fill="#f1cc75" style="fill: var(--color5, #f1cc75)" d="M88.568 12.784c0-0.088-0.026-0.174-0.077-0.248s-0.121-0.13-0.203-0.164c-0.083-0.034-0.174-0.043-0.261-0.025s-0.169 0.060-0.232 0.122c-0.064 0.062-0.106 0.142-0.124 0.228s-0.008 0.176 0.026 0.258c0.034 0.082 0.092 0.151 0.167 0.2s0.162 0.075 0.252 0.075c0.059 0 0.118-0.011 0.173-0.034s0.105-0.055 0.147-0.097c0.042-0.041 0.076-0.091 0.099-0.145s0.034-0.112 0.034-0.171z"></path>
<path fill="#8fcecb" style="fill: var(--color6, #8fcecb)" d="M95.78 27.319c0-0.088-0.026-0.174-0.077-0.248s-0.121-0.13-0.203-0.164c-0.083-0.034-0.174-0.043-0.261-0.025s-0.169 0.060-0.232 0.122c-0.064 0.062-0.106 0.142-0.124 0.228s-0.008 0.176 0.026 0.258c0.034 0.082 0.092 0.151 0.167 0.2s0.162 0.075 0.252 0.075c0.12 0 0.236-0.047 0.32-0.131s0.133-0.197 0.133-0.315z"></path>
<path fill="#8fcecb" style="fill: var(--color6, #8fcecb)" d="M96.23 5.235c0-0.088-0.026-0.174-0.077-0.248s-0.121-0.131-0.203-0.164-0.174-0.043-0.262-0.025c-0.088 0.017-0.168 0.060-0.232 0.122s-0.106 0.142-0.124 0.228-0.008 0.176 0.026 0.258c0.034 0.082 0.093 0.151 0.167 0.2s0.162 0.075 0.252 0.075c0.060 0 0.118-0.011 0.174-0.034s0.105-0.055 0.147-0.097c0.042-0.041 0.076-0.091 0.098-0.145s0.034-0.112 0.034-0.171z"></path>
<path fill="#ae9ac5" style="fill: var(--color7, #ae9ac5)" d="M106.202 7.32c0-0.088-0.026-0.175-0.076-0.248s-0.121-0.131-0.203-0.164-0.174-0.043-0.262-0.026c-0.088 0.017-0.169 0.060-0.232 0.122s-0.106 0.142-0.124 0.228c-0.018 0.087-0.009 0.176 0.025 0.258s0.092 0.151 0.167 0.2c0.075 0.049 0.162 0.075 0.252 0.075 0.12 0 0.235-0.047 0.32-0.13s0.133-0.197 0.133-0.315z"></path>
<path fill="#ae9ac5" style="fill: var(--color7, #ae9ac5)" d="M90.822 29.685c0-0.088-0.026-0.174-0.077-0.248s-0.121-0.13-0.203-0.164c-0.083-0.034-0.174-0.043-0.261-0.025s-0.169 0.060-0.232 0.122c-0.064 0.062-0.106 0.142-0.124 0.228s-0.008 0.176 0.026 0.258c0.034 0.082 0.092 0.151 0.167 0.2s0.162 0.075 0.252 0.075c0.12 0 0.236-0.047 0.32-0.131s0.133-0.197 0.133-0.315z"></path>
<path fill="#f1cc75" style="fill: var(--color5, #f1cc75)" d="M95.78 20.221c0-0.088-0.026-0.174-0.077-0.248s-0.121-0.13-0.203-0.164c-0.083-0.034-0.174-0.043-0.261-0.025s-0.169 0.060-0.232 0.122c-0.064 0.062-0.106 0.142-0.124 0.228s-0.008 0.176 0.026 0.258c0.034 0.082 0.092 0.151 0.167 0.2s0.162 0.075 0.252 0.075c0.059 0 0.118-0.011 0.174-0.034s0.105-0.055 0.147-0.097c0.042-0.041 0.076-0.091 0.098-0.145s0.034-0.112 0.034-0.171z"></path>
<path fill="#f1cc75" style="fill: var(--color5, #f1cc75)" d="M99.611 2.531c0-0.088-0.026-0.174-0.077-0.248s-0.121-0.131-0.203-0.164-0.174-0.043-0.261-0.025c-0.088 0.017-0.169 0.060-0.232 0.122s-0.106 0.142-0.124 0.228c-0.017 0.087-0.008 0.176 0.026 0.258s0.092 0.151 0.167 0.2c0.074 0.049 0.162 0.075 0.252 0.075 0.059 0 0.118-0.011 0.174-0.034s0.105-0.055 0.147-0.097c0.042-0.041 0.076-0.091 0.098-0.145s0.034-0.112 0.034-0.171z"></path>
<path fill="#ae9ac5" style="fill: var(--color7, #ae9ac5)" d="M95.842 11.549h-0.134c-0.118 0-0.215-0.098-0.215-0.218v-1.085c0-0.121 0.096-0.218 0.215-0.218h0.134c0.118 0 0.215 0.098 0.215 0.218v1.085c0 0.121-0.096 0.218-0.215 0.218z"></path>
<path fill="#8fcecb" style="fill: var(--color6, #8fcecb)" d="M102.903 1.69h-0.228c-0.202 0-0.365 0.166-0.365 0.372v1.848c0 0.205 0.163 0.372 0.365 0.372h0.228c0.202 0 0.365-0.166 0.365-0.372v-1.848c0-0.205-0.163-0.372-0.365-0.372z"></path>
<path fill="#f1cc75" style="fill: var(--color5, #f1cc75)" d="M106.197 28.31c0-0.195-0.060-0.386-0.171-0.548s-0.27-0.288-0.455-0.363c-0.185-0.075-0.389-0.094-0.586-0.056s-0.377 0.132-0.519 0.27c-0.142 0.138-0.238 0.314-0.277 0.505s-0.019 0.389 0.057 0.57 0.207 0.334 0.374 0.442c0.167 0.108 0.363 0.166 0.563 0.166 0.269 0 0.527-0.104 0.717-0.289s0.297-0.436 0.297-0.697z"></path>
<path fill="#ae9ac5" style="fill: var(--color7, #ae9ac5)" d="M99.155 17.577c0-0.156 0.048-0.308 0.137-0.438s0.217-0.231 0.367-0.29c0.149-0.060 0.314-0.075 0.472-0.045s0.304 0.106 0.418 0.216c0.114 0.11 0.192 0.251 0.224 0.404s0.015 0.312-0.046 0.456c-0.062 0.144-0.167 0.267-0.301 0.354s-0.292 0.133-0.454 0.133c-0.217 0-0.424-0.083-0.577-0.231s-0.239-0.349-0.239-0.558z"></path>
<path fill="#8fcecb" style="fill: var(--color6, #8fcecb)" d="M101.070 29.183c0-0.189-0.056-0.375-0.162-0.532s-0.255-0.28-0.429-0.353c-0.175-0.073-0.368-0.091-0.554-0.054s-0.356 0.128-0.49 0.262c-0.134 0.134-0.225 0.305-0.262 0.49s-0.018 0.378 0.054 0.553c0.073 0.175 0.195 0.325 0.353 0.43s0.343 0.161 0.532 0.161c0.254 0 0.497-0.101 0.677-0.28s0.281-0.423 0.281-0.677z"></path>
<path fill="#ae9ac5" style="fill: var(--color7, #ae9ac5)" d="M105.188 17.822c0.191-0.038 0.389-0.018 0.57 0.056s0.334 0.201 0.442 0.363c0.108 0.162 0.166 0.353 0.166 0.548 0 0.129-0.025 0.258-0.075 0.377s-0.122 0.228-0.214 0.32c-0.091 0.092-0.2 0.164-0.319 0.214s-0.248 0.075-0.377 0.075c-0.195 0-0.385-0.058-0.548-0.166s-0.288-0.262-0.363-0.442c-0.074-0.18-0.094-0.378-0.056-0.57s0.132-0.367 0.27-0.505c0.137-0.138 0.313-0.232 0.505-0.27zM105.697 18.025c-0.152-0.063-0.318-0.079-0.478-0.047s-0.308 0.111-0.424 0.226c-0.115 0.116-0.194 0.263-0.226 0.423s-0.016 0.327 0.047 0.478c0.063 0.151 0.168 0.28 0.305 0.371s0.296 0.139 0.459 0.139c0.109 0 0.216-0.021 0.317-0.063s0.191-0.102 0.268-0.179c0.077-0.077 0.137-0.168 0.179-0.268s0.063-0.208 0.063-0.316c0-0.164-0.048-0.323-0.14-0.459s-0.22-0.242-0.371-0.305z"></path>
<path fill="#ae9ac5" style="fill: var(--color7, #ae9ac5)" d="M101.901 22.704h-0.254c-0.226 0-0.408 0.181-0.408 0.404v2.009c0 0.223 0.183 0.404 0.408 0.404h0.254c0.226 0 0.408-0.181 0.408-0.404v-2.009c0-0.223-0.183-0.404-0.408-0.404z"></path>
<path fill="#ae9ac5" style="fill: var(--color7, #ae9ac5)" d="M3.775 5.324c0-0.162-0.050-0.319-0.142-0.454s-0.225-0.239-0.379-0.301c-0.154-0.062-0.324-0.078-0.488-0.046s-0.314 0.109-0.433 0.224c-0.118 0.114-0.199 0.26-0.231 0.418s-0.016 0.323 0.048 0.472c0.064 0.149 0.172 0.277 0.311 0.367s0.302 0.138 0.47 0.138c0.224 0 0.439-0.086 0.598-0.239s0.248-0.361 0.248-0.578z"></path>
<path fill="#f1cc75" style="fill: var(--color5, #f1cc75)" d="M5.972 2.141c0-0.223-0.068-0.441-0.195-0.626s-0.307-0.33-0.518-0.415-0.443-0.108-0.667-0.064c-0.224 0.043-0.43 0.151-0.591 0.308s-0.272 0.358-0.316 0.577c-0.045 0.219-0.022 0.445 0.066 0.651s0.235 0.382 0.425 0.506c0.19 0.124 0.413 0.19 0.642 0.19 0.152 0 0.302-0.029 0.442-0.086s0.267-0.14 0.375-0.244c0.107-0.105 0.192-0.229 0.25-0.366s0.088-0.283 0.088-0.431z"></path>
<path fill="#f1cc75" style="fill: var(--color5, #f1cc75)" d="M4.617 23.891c0-0.279-0.084-0.552-0.242-0.785s-0.382-0.413-0.644-0.52-0.551-0.135-0.829-0.080c-0.278 0.054-0.534 0.189-0.735 0.386s-0.337 0.449-0.393 0.723-0.027 0.558 0.082 0.816c0.109 0.258 0.293 0.479 0.529 0.634s0.513 0.238 0.797 0.238c0.188 0 0.375-0.037 0.549-0.107s0.332-0.175 0.466-0.306c0.133-0.131 0.239-0.287 0.311-0.458s0.109-0.355 0.109-0.54z"></path>
<path fill="#f1cc75" style="fill: var(--color5, #f1cc75)" d="M13.915 9.521c0-0.156-0.046-0.309-0.133-0.438s-0.21-0.231-0.354-0.29c-0.144-0.060-0.303-0.075-0.456-0.045s-0.294 0.106-0.404 0.216c-0.11 0.11-0.185 0.251-0.216 0.404s-0.015 0.312 0.045 0.456c0.060 0.144 0.161 0.267 0.29 0.354s0.282 0.133 0.438 0.133c0.209 0 0.41-0.083 0.558-0.231s0.231-0.348 0.231-0.558z"></path>
<path fill="#f1cc75" style="fill: var(--color5, #f1cc75)" d="M2.371 12.784c0-0.088-0.027-0.174-0.076-0.248s-0.121-0.13-0.203-0.164c-0.083-0.034-0.174-0.043-0.262-0.025s-0.169 0.060-0.232 0.122-0.107 0.142-0.124 0.228c-0.018 0.087-0.008 0.176 0.026 0.258s0.092 0.151 0.167 0.2 0.162 0.075 0.252 0.075c0.060 0 0.118-0.011 0.173-0.034s0.105-0.055 0.147-0.097c0.042-0.041 0.075-0.091 0.098-0.145s0.034-0.112 0.034-0.171z"></path>
<path fill="#8fcecb" style="fill: var(--color6, #8fcecb)" d="M10.033 5.235c0-0.088-0.027-0.174-0.076-0.248s-0.121-0.131-0.203-0.164c-0.083-0.034-0.174-0.043-0.262-0.025s-0.169 0.060-0.232 0.122-0.106 0.142-0.124 0.228c-0.017 0.087-0.008 0.176 0.026 0.258s0.092 0.151 0.167 0.2c0.075 0.049 0.162 0.075 0.252 0.075 0.059 0 0.118-0.011 0.173-0.034s0.105-0.055 0.147-0.097c0.042-0.041 0.075-0.091 0.098-0.145s0.034-0.112 0.034-0.171z"></path>
<path fill="#8fcecb" style="fill: var(--color6, #8fcecb)" d="M7.442 16.446c0-0.088-0.027-0.174-0.076-0.248s-0.121-0.131-0.203-0.164c-0.083-0.034-0.174-0.043-0.262-0.025s-0.169 0.060-0.232 0.122-0.106 0.142-0.124 0.228c-0.017 0.087-0.008 0.176 0.026 0.258s0.093 0.151 0.167 0.2 0.162 0.075 0.252 0.075c0.059 0 0.118-0.012 0.173-0.034s0.105-0.055 0.147-0.097c0.042-0.041 0.075-0.091 0.098-0.145s0.034-0.112 0.034-0.171z"></path>
<path fill="#ae9ac5" style="fill: var(--color7, #ae9ac5)" d="M18.878 10.306c0-0.088-0.026-0.175-0.076-0.248s-0.121-0.131-0.203-0.164-0.174-0.043-0.262-0.026c-0.088 0.017-0.169 0.060-0.232 0.122s-0.107 0.142-0.124 0.228-0.009 0.176 0.026 0.258c0.034 0.082 0.092 0.151 0.167 0.2s0.162 0.075 0.252 0.075c0.12 0 0.235-0.047 0.32-0.13s0.133-0.197 0.133-0.315z"></path>
<path fill="#ae9ac5" style="fill: var(--color7, #ae9ac5)" d="M14.822 15.545c0-0.088-0.027-0.174-0.076-0.248s-0.121-0.13-0.203-0.164c-0.083-0.034-0.174-0.043-0.262-0.025s-0.169 0.060-0.232 0.122c-0.063 0.062-0.107 0.142-0.124 0.228s-0.009 0.176 0.026 0.258c0.034 0.082 0.092 0.151 0.167 0.2s0.162 0.075 0.252 0.075c0.12 0 0.236-0.047 0.321-0.131s0.133-0.197 0.133-0.315z"></path>
<path fill="#ae9ac5" style="fill: var(--color7, #ae9ac5)" d="M4.625 29.685c0-0.088-0.027-0.174-0.076-0.248s-0.121-0.13-0.203-0.164c-0.083-0.034-0.174-0.043-0.262-0.025s-0.169 0.060-0.232 0.122-0.107 0.142-0.124 0.228c-0.018 0.087-0.009 0.176 0.026 0.258s0.092 0.151 0.167 0.2 0.162 0.075 0.252 0.075c0.12 0 0.236-0.047 0.321-0.131s0.133-0.197 0.133-0.315z"></path>
<path fill="#f1cc75" style="fill: var(--color5, #f1cc75)" d="M11.385 22.023c0-0.088-0.027-0.174-0.076-0.248s-0.121-0.13-0.203-0.164c-0.083-0.034-0.174-0.043-0.262-0.025s-0.169 0.060-0.232 0.122c-0.063 0.062-0.107 0.142-0.124 0.228s-0.009 0.176 0.026 0.258c0.034 0.082 0.092 0.151 0.167 0.2s0.162 0.075 0.252 0.075c0.060 0 0.119-0.011 0.174-0.034s0.105-0.055 0.147-0.097c0.042-0.041 0.075-0.091 0.098-0.145s0.034-0.112 0.034-0.171z"></path>
<path fill="#f1cc75" style="fill: var(--color5, #f1cc75)" d="M13.414 2.531c0-0.088-0.027-0.174-0.076-0.248s-0.121-0.131-0.203-0.164c-0.083-0.034-0.174-0.043-0.262-0.025s-0.169 0.060-0.232 0.122c-0.063 0.062-0.107 0.142-0.124 0.228s-0.009 0.176 0.026 0.258 0.092 0.151 0.167 0.2c0.075 0.049 0.162 0.075 0.252 0.075 0.060 0 0.119-0.011 0.174-0.034s0.105-0.055 0.147-0.097c0.042-0.041 0.075-0.091 0.098-0.145s0.034-0.112 0.034-0.171z"></path>
<path fill="#ae9ac5" style="fill: var(--color7, #ae9ac5)" d="M7.503 11.831h-0.134c-0.119 0-0.215-0.098-0.215-0.218v-1.085c0-0.121 0.096-0.218 0.215-0.218h0.134c0.119 0 0.215 0.098 0.215 0.218v1.085c0 0.121-0.096 0.218-0.215 0.218z"></path>
<path fill="#8fcecb" style="fill: var(--color6, #8fcecb)" d="M17.607 1.915h-0.227c-0.202 0-0.365 0.166-0.365 0.372v1.848c0 0.205 0.164 0.372 0.365 0.372h0.227c0.202 0 0.365-0.166 0.365-0.372v-1.848c0-0.205-0.164-0.372-0.365-0.372z"></path>
<path fill="#f1cc75" style="fill: var(--color5, #f1cc75)" d="M19.549 27.465c0-0.195-0.059-0.386-0.171-0.548s-0.27-0.288-0.455-0.363c-0.185-0.075-0.389-0.094-0.586-0.056s-0.377 0.132-0.519 0.27c-0.142 0.138-0.238 0.314-0.278 0.505s-0.019 0.389 0.058 0.57c0.077 0.18 0.207 0.334 0.374 0.442s0.363 0.166 0.563 0.166c0.269 0 0.527-0.104 0.717-0.289s0.297-0.436 0.297-0.697z"></path>
<path fill="#8fcecb" style="fill: var(--color6, #8fcecb)" d="M12.338 29.239c0-0.189-0.056-0.375-0.161-0.532s-0.255-0.28-0.43-0.353c-0.175-0.073-0.368-0.091-0.553-0.054s-0.356 0.128-0.49 0.262c-0.134 0.134-0.225 0.305-0.262 0.49s-0.018 0.378 0.054 0.553c0.072 0.175 0.195 0.325 0.353 0.43s0.343 0.161 0.532 0.161c0.254 0 0.498-0.101 0.677-0.28s0.28-0.423 0.28-0.677z"></path>
<path fill="#ae9ac5" style="fill: var(--color7, #ae9ac5)" d="M18.991 17.822c0.191-0.038 0.389-0.018 0.57 0.056s0.334 0.201 0.442 0.363c0.108 0.162 0.166 0.353 0.166 0.548 0 0.129-0.026 0.258-0.075 0.377s-0.122 0.228-0.214 0.32-0.2 0.164-0.32 0.214c-0.12 0.050-0.248 0.075-0.377 0.075-0.195 0-0.386-0.058-0.548-0.166s-0.288-0.262-0.363-0.442c-0.075-0.18-0.094-0.378-0.056-0.57s0.132-0.367 0.27-0.505c0.138-0.138 0.314-0.232 0.505-0.27zM19.5 18.025c-0.151-0.063-0.317-0.079-0.478-0.047s-0.308 0.111-0.423 0.226c-0.116 0.116-0.194 0.263-0.226 0.423s-0.016 0.327 0.047 0.478c0.063 0.151 0.169 0.28 0.305 0.371s0.296 0.139 0.459 0.139c0.109 0 0.216-0.021 0.316-0.063s0.192-0.102 0.268-0.179c0.077-0.077 0.138-0.168 0.179-0.268s0.063-0.208 0.063-0.316c0-0.164-0.049-0.323-0.139-0.459s-0.22-0.242-0.371-0.305z"></path>
<path fill="#ae9ac5" style="fill: var(--color7, #ae9ac5)" d="M15.704 22.704h-0.254c-0.225 0-0.408 0.181-0.408 0.404v2.009c0 0.223 0.183 0.404 0.408 0.404h0.254c0.225 0 0.408-0.181 0.408-0.404v-2.009c0-0.223-0.183-0.404-0.408-0.404z"></path>
<path fill="#ae9ac5" style="fill: var(--color7, #ae9ac5)" d="M75.877 23.256c0-0.279-0.084-0.552-0.242-0.785s-0.382-0.413-0.644-0.52c-0.263-0.107-0.551-0.135-0.829-0.080s-0.534 0.189-0.735 0.386c-0.201 0.198-0.337 0.449-0.393 0.723s-0.027 0.558 0.082 0.816c0.109 0.258 0.292 0.479 0.528 0.634s0.513 0.238 0.797 0.238c0.381 0 0.746-0.149 1.015-0.414s0.42-0.624 0.42-0.998z"></path>
<path fill="#ae9ac5" style="fill: var(--color7, #ae9ac5)" d="M79.96 19.626c0.208-0.040 0.423-0.020 0.619 0.059s0.363 0.212 0.481 0.384c0.118 0.171 0.18 0.373 0.18 0.579 0 0.137-0.028 0.272-0.082 0.399s-0.132 0.241-0.232 0.338c-0.1 0.097-0.217 0.174-0.348 0.226s-0.269 0.079-0.41 0.079c-0.212 0-0.419-0.061-0.595-0.176s-0.313-0.277-0.394-0.468c-0.081-0.19-0.103-0.4-0.061-0.602s0.143-0.388 0.292-0.534c0.15-0.146 0.341-0.245 0.548-0.285zM80.513 19.84c-0.164-0.066-0.345-0.083-0.519-0.050s-0.334 0.117-0.46 0.239c-0.126 0.122-0.211 0.278-0.246 0.448s-0.017 0.345 0.051 0.505c0.068 0.16 0.183 0.296 0.331 0.392s0.321 0.147 0.499 0.147c0.118 0 0.234-0.023 0.344-0.067s0.208-0.108 0.291-0.189c0.083-0.081 0.149-0.178 0.194-0.284s0.068-0.22 0.068-0.334c0-0.173-0.052-0.342-0.151-0.486s-0.239-0.256-0.403-0.322z"></path>
<path fill="#f1cc75" style="fill: var(--color5, #f1cc75)" d="M27.268 1.803c0-0.156-0.048-0.308-0.138-0.438s-0.217-0.231-0.367-0.29c-0.149-0.060-0.314-0.075-0.472-0.045s-0.304 0.106-0.418 0.216c-0.114 0.11-0.192 0.251-0.224 0.404s-0.015 0.312 0.046 0.456c0.062 0.144 0.167 0.267 0.301 0.354s0.292 0.133 0.454 0.133c0.107 0 0.213-0.020 0.313-0.060s0.189-0.098 0.265-0.171c0.076-0.073 0.136-0.16 0.177-0.256s0.062-0.198 0.062-0.302z"></path>
<path fill="#f1cc75" style="fill: var(--color5, #f1cc75)" d="M25.462 24.454c0-0.279-0.084-0.552-0.242-0.785s-0.382-0.413-0.644-0.52c-0.262-0.107-0.551-0.135-0.829-0.080s-0.534 0.189-0.735 0.386c-0.201 0.198-0.337 0.449-0.393 0.723s-0.027 0.558 0.082 0.816 0.293 0.479 0.529 0.634c0.236 0.155 0.513 0.238 0.797 0.238 0.188 0 0.375-0.037 0.549-0.107s0.332-0.175 0.466-0.306c0.133-0.131 0.239-0.287 0.311-0.458s0.109-0.355 0.109-0.54z"></path>
<path fill="#f1cc75" style="fill: var(--color5, #f1cc75)" d="M80.056 9.775c0-0.206-0.063-0.408-0.18-0.579s-0.285-0.305-0.481-0.384c-0.195-0.079-0.411-0.1-0.619-0.059s-0.398 0.139-0.548 0.285c-0.149 0.146-0.251 0.331-0.293 0.534s-0.020 0.412 0.061 0.602c0.081 0.19 0.218 0.353 0.394 0.468s0.383 0.176 0.595 0.176c0.284 0 0.556-0.11 0.757-0.305s0.314-0.461 0.314-0.737z"></path>
<path fill="#ae9ac5" style="fill: var(--color7, #ae9ac5)" d="M29.69 9.577c0-0.156-0.046-0.309-0.133-0.438s-0.21-0.231-0.354-0.29c-0.144-0.060-0.303-0.075-0.456-0.045s-0.294 0.106-0.404 0.216c-0.11 0.11-0.185 0.251-0.216 0.404s-0.015 0.312 0.045 0.456c0.060 0.144 0.161 0.267 0.291 0.354s0.282 0.133 0.438 0.133c0.209 0 0.41-0.083 0.558-0.231s0.231-0.348 0.231-0.558z"></path>
<path fill="#8fcecb" style="fill: var(--color6, #8fcecb)" d="M35.104 12.221c0-0.088-0.027-0.174-0.076-0.248s-0.121-0.13-0.203-0.164c-0.083-0.034-0.174-0.043-0.262-0.025s-0.169 0.060-0.232 0.122c-0.063 0.062-0.107 0.142-0.124 0.228s-0.009 0.176 0.026 0.258c0.034 0.082 0.092 0.151 0.167 0.2s0.162 0.075 0.252 0.075c0.12 0 0.236-0.047 0.321-0.131s0.133-0.197 0.133-0.315z"></path>
<path fill="#8fcecb" style="fill: var(--color6, #8fcecb)" d="M38.498 27.464c0-0.088-0.027-0.174-0.076-0.248s-0.121-0.131-0.203-0.164-0.174-0.043-0.262-0.025c-0.088 0.017-0.169 0.060-0.232 0.122s-0.107 0.142-0.124 0.228c-0.017 0.087-0.008 0.176 0.026 0.258s0.092 0.151 0.167 0.2c0.075 0.049 0.162 0.075 0.252 0.075 0.12 0 0.236-0.047 0.321-0.131s0.133-0.197 0.133-0.315z"></path>
<path fill="#8fcecb" style="fill: var(--color6, #8fcecb)" d="M80.568 1.685c0-0.088-0.026-0.174-0.077-0.248s-0.121-0.131-0.203-0.164-0.174-0.043-0.261-0.025c-0.088 0.017-0.169 0.060-0.232 0.122s-0.107 0.142-0.124 0.228-0.008 0.176 0.026 0.258c0.034 0.081 0.092 0.151 0.167 0.2s0.162 0.075 0.251 0.075c0.121 0 0.236-0.047 0.321-0.131s0.133-0.197 0.133-0.315z"></path>
<path fill="#8fcecb" style="fill: var(--color6, #8fcecb)" d="M53.075 24.475c0-0.088-0.026-0.174-0.076-0.248s-0.121-0.131-0.203-0.164c-0.083-0.034-0.174-0.043-0.262-0.026s-0.169 0.060-0.232 0.122-0.107 0.142-0.124 0.228c-0.018 0.087-0.009 0.176 0.026 0.258s0.092 0.151 0.167 0.2c0.075 0.049 0.162 0.075 0.252 0.075 0.12 0 0.235-0.047 0.32-0.131s0.133-0.197 0.133-0.315z"></path>
<path fill="#8fcecb" style="fill: var(--color6, #8fcecb)" d="M67.497 16.511c0-0.088-0.026-0.175-0.076-0.248s-0.121-0.131-0.204-0.164c-0.083-0.034-0.174-0.042-0.262-0.025s-0.168 0.060-0.232 0.122c-0.063 0.063-0.106 0.142-0.124 0.229s-0.008 0.176 0.026 0.258c0.035 0.082 0.093 0.151 0.168 0.2s0.162 0.075 0.252 0.074c0.121 0 0.236-0.047 0.321-0.131s0.133-0.197 0.133-0.315z"></path>
<path fill="#8fcecb" style="fill: var(--color6, #8fcecb)" d="M69.977 7.995c0-0.088-0.026-0.174-0.077-0.248s-0.121-0.13-0.203-0.164c-0.083-0.034-0.174-0.043-0.261-0.025s-0.169 0.060-0.232 0.122c-0.064 0.062-0.106 0.142-0.124 0.228s-0.008 0.176 0.026 0.258c0.034 0.082 0.092 0.151 0.167 0.2s0.162 0.075 0.252 0.075c0.12 0 0.236-0.047 0.32-0.131s0.133-0.197 0.133-0.315z"></path>
<path fill="#8fcecb" style="fill: var(--color6, #8fcecb)" d="M61.232 28.191c0-0.088-0.027-0.174-0.077-0.248s-0.121-0.131-0.203-0.164-0.174-0.043-0.262-0.025c-0.088 0.017-0.168 0.060-0.232 0.122s-0.106 0.142-0.124 0.228c-0.017 0.087-0.008 0.176 0.026 0.258s0.092 0.151 0.167 0.2c0.074 0.049 0.162 0.075 0.252 0.075 0.060 0 0.118-0.012 0.174-0.034s0.105-0.055 0.147-0.097c0.042-0.041 0.075-0.091 0.099-0.145s0.034-0.112 0.034-0.171z"></path>
<path fill="#8fcecb" style="fill: var(--color6, #8fcecb)" d="M72.964 28.191c0-0.088-0.026-0.174-0.076-0.248s-0.121-0.131-0.204-0.164c-0.083-0.034-0.174-0.043-0.261-0.025s-0.169 0.060-0.232 0.122c-0.064 0.062-0.106 0.142-0.124 0.228s-0.008 0.176 0.026 0.258c0.034 0.081 0.092 0.151 0.167 0.2s0.162 0.075 0.252 0.075c0.060 0 0.119-0.012 0.174-0.034s0.105-0.055 0.147-0.097c0.042-0.041 0.076-0.091 0.098-0.145s0.034-0.112 0.034-0.171z"></path>
<path fill="#8fcecb" style="fill: var(--color6, #8fcecb)" d="M24.26 5.117c0-0.088-0.027-0.174-0.076-0.248s-0.121-0.131-0.203-0.164c-0.083-0.034-0.174-0.043-0.262-0.025s-0.169 0.060-0.232 0.122-0.106 0.142-0.124 0.228c-0.017 0.087-0.008 0.176 0.026 0.258s0.093 0.151 0.167 0.2c0.075 0.049 0.162 0.075 0.252 0.075 0.059 0 0.118-0.012 0.173-0.034s0.105-0.055 0.147-0.097c0.042-0.041 0.075-0.091 0.098-0.145s0.034-0.112 0.034-0.171z"></path>
<path fill="#8fcecb" style="fill: var(--color6, #8fcecb)" d="M48.896 20.016c0-0.088-0.027-0.174-0.076-0.248s-0.121-0.131-0.203-0.164c-0.083-0.034-0.174-0.043-0.262-0.025s-0.169 0.060-0.232 0.122c-0.063 0.062-0.107 0.142-0.124 0.228s-0.008 0.176 0.026 0.258 0.092 0.151 0.167 0.2c0.075 0.049 0.162 0.075 0.252 0.075 0.12 0 0.236-0.047 0.321-0.131s0.133-0.197 0.133-0.315z"></path>
<path fill="#ae9ac5" style="fill: var(--color7, #ae9ac5)" d="M27.836 12.615c0-0.088-0.026-0.175-0.076-0.248s-0.121-0.131-0.203-0.164-0.174-0.043-0.262-0.026c-0.088 0.017-0.169 0.060-0.232 0.122s-0.107 0.142-0.124 0.228-0.009 0.176 0.026 0.258c0.034 0.082 0.092 0.151 0.167 0.2s0.162 0.075 0.252 0.075c0.12 0 0.235-0.047 0.32-0.13s0.133-0.197 0.133-0.315z"></path>
<path fill="#ae9ac5" style="fill: var(--color7, #ae9ac5)" d="M23.477 1.027c0-0.088-0.026-0.175-0.076-0.248s-0.121-0.131-0.203-0.164c-0.083-0.034-0.174-0.043-0.262-0.025s-0.169 0.060-0.232 0.122-0.107 0.142-0.124 0.229c-0.017 0.087-0.008 0.176 0.026 0.258s0.093 0.151 0.167 0.2c0.075 0.049 0.162 0.075 0.252 0.075 0.12-0 0.235-0.047 0.32-0.131s0.132-0.197 0.133-0.315z"></path>
<path fill="#ae9ac5" style="fill: var(--color7, #ae9ac5)" d="M35.442 8.559c0-0.088-0.027-0.174-0.076-0.248s-0.121-0.131-0.203-0.164c-0.083-0.034-0.174-0.043-0.262-0.025s-0.169 0.060-0.232 0.122-0.107 0.142-0.124 0.228c-0.017 0.087-0.008 0.176 0.026 0.258s0.093 0.151 0.167 0.2c0.075 0.049 0.162 0.075 0.252 0.075 0.12-0 0.235-0.047 0.32-0.131s0.133-0.197 0.133-0.315z"></path>
<path fill="#ae9ac5" style="fill: var(--color7, #ae9ac5)" d="M33.991 19.916c0-0.088-0.027-0.174-0.076-0.248s-0.121-0.131-0.203-0.164-0.174-0.043-0.262-0.025c-0.088 0.017-0.169 0.060-0.232 0.122s-0.107 0.142-0.124 0.228c-0.017 0.087-0.008 0.176 0.026 0.258s0.092 0.151 0.167 0.2 0.162 0.075 0.252 0.075c0.12 0 0.236-0.047 0.321-0.131s0.133-0.197 0.133-0.315z"></path>
<path fill="#ae9ac5" style="fill: var(--color7, #ae9ac5)" d="M61.232 21.948c0-0.088-0.027-0.174-0.077-0.248s-0.121-0.131-0.203-0.164c-0.083-0.034-0.174-0.043-0.262-0.025s-0.168 0.060-0.232 0.122c-0.063 0.062-0.106 0.142-0.124 0.228s-0.008 0.176 0.026 0.258c0.034 0.082 0.092 0.151 0.167 0.2s0.162 0.075 0.252 0.075c0.12 0 0.236-0.047 0.321-0.131s0.133-0.197 0.133-0.315z"></path>
<path fill="#ae9ac5" style="fill: var(--color7, #ae9ac5)" d="M27.623 29.058c0-0.088-0.027-0.174-0.076-0.248s-0.121-0.13-0.203-0.164c-0.083-0.034-0.174-0.043-0.262-0.025s-0.169 0.060-0.232 0.122c-0.063 0.062-0.107 0.142-0.124 0.228s-0.009 0.176 0.026 0.258c0.034 0.082 0.092 0.151 0.167 0.2s0.162 0.075 0.252 0.075c0.12 0 0.235-0.047 0.32-0.131s0.133-0.197 0.133-0.315z"></path>
<path fill="#f1cc75" style="fill: var(--color5, #f1cc75)" d="M69.305 26.991c0-0.088-0.026-0.174-0.076-0.248s-0.121-0.131-0.203-0.164-0.174-0.043-0.262-0.026c-0.088 0.017-0.169 0.060-0.232 0.122s-0.107 0.142-0.124 0.228-0.008 0.176 0.026 0.258c0.034 0.082 0.092 0.151 0.167 0.2s0.162 0.075 0.252 0.075c0.121 0 0.236-0.047 0.321-0.131s0.133-0.197 0.133-0.315z"></path>
<path fill="#ae9ac5" style="fill: var(--color7, #ae9ac5)" d="M80.456 29.685c0-0.088-0.026-0.174-0.077-0.248s-0.121-0.131-0.203-0.164-0.174-0.043-0.262-0.025c-0.088 0.017-0.168 0.060-0.232 0.122s-0.106 0.142-0.124 0.228-0.008 0.176 0.026 0.258c0.034 0.082 0.093 0.151 0.167 0.2s0.162 0.075 0.252 0.075c0.12-0 0.236-0.047 0.321-0.131s0.132-0.197 0.132-0.315z"></path>
<path fill="#ae9ac5" style="fill: var(--color7, #ae9ac5)" d="M81.132 14.305c0-0.088-0.026-0.174-0.077-0.248s-0.121-0.131-0.203-0.164-0.174-0.043-0.262-0.025c-0.088 0.017-0.168 0.060-0.232 0.122s-0.106 0.142-0.124 0.228-0.008 0.176 0.026 0.258c0.034 0.082 0.093 0.151 0.167 0.2s0.162 0.075 0.252 0.075c0.060 0 0.118-0.011 0.174-0.034s0.105-0.055 0.147-0.097c0.042-0.041 0.076-0.091 0.098-0.145s0.034-0.112 0.034-0.171z"></path>
<path fill="#f1cc75" style="fill: var(--color5, #f1cc75)" d="M50.91 26.952c0-0.088-0.027-0.174-0.076-0.248s-0.121-0.131-0.203-0.164c-0.083-0.034-0.174-0.043-0.262-0.025s-0.169 0.060-0.232 0.122c-0.063 0.062-0.107 0.142-0.124 0.228s-0.008 0.176 0.026 0.258c0.034 0.081 0.092 0.151 0.167 0.2s0.162 0.075 0.252 0.075c0.12 0 0.236-0.047 0.321-0.131s0.133-0.197 0.133-0.315z"></path>
<path fill="#ae9ac5" style="fill: var(--color7, #ae9ac5)" d="M43.93 22.141h-0.254c-0.225 0-0.408 0.181-0.408 0.404v2.009c0 0.223 0.183 0.404 0.408 0.404h0.254c0.225 0 0.408-0.181 0.408-0.404v-2.009c0-0.223-0.183-0.404-0.408-0.404z"></path>
<path fill="#f1cc75" style="fill: var(--color5, #f1cc75)" d="M85.598 20.196c0-0.088-0.027-0.174-0.077-0.248s-0.121-0.131-0.203-0.164c-0.083-0.034-0.174-0.043-0.262-0.025s-0.168 0.060-0.232 0.122c-0.063 0.062-0.106 0.142-0.124 0.228s-0.008 0.176 0.026 0.258c0.034 0.081 0.092 0.151 0.167 0.2s0.162 0.075 0.252 0.075c0.12 0 0.236-0.047 0.321-0.131s0.133-0.197 0.133-0.315z"></path>
<path fill="#f1cc75" style="fill: var(--color5, #f1cc75)" d="M85.598 2.224c0-0.088-0.027-0.174-0.077-0.248s-0.121-0.131-0.203-0.164c-0.083-0.034-0.174-0.043-0.262-0.025s-0.168 0.060-0.232 0.122c-0.063 0.062-0.106 0.142-0.124 0.228s-0.008 0.176 0.026 0.258c0.034 0.082 0.092 0.151 0.167 0.2s0.162 0.075 0.252 0.075c0.12 0 0.236-0.047 0.321-0.131s0.133-0.197 0.133-0.315z"></path>
<path fill="#f1cc75" style="fill: var(--color5, #f1cc75)" d="M41.188 10.925c0-0.088-0.027-0.174-0.076-0.248s-0.121-0.13-0.203-0.164c-0.083-0.034-0.174-0.043-0.262-0.025s-0.169 0.060-0.232 0.122c-0.063 0.062-0.107 0.142-0.124 0.228s-0.009 0.176 0.026 0.258c0.034 0.082 0.092 0.151 0.167 0.2s0.162 0.075 0.252 0.075c0.060 0 0.119-0.011 0.174-0.034s0.105-0.055 0.147-0.097c0.042-0.041 0.075-0.091 0.098-0.145s0.034-0.112 0.034-0.171z"></path>
<path fill="#ae9ac5" style="fill: var(--color7, #ae9ac5)" d="M84.493 24.958h-0.254c-0.226 0-0.408 0.181-0.408 0.404v2.009c0 0.223 0.183 0.404 0.408 0.404h0.254c0.226 0 0.408-0.181 0.408-0.404v-2.009c0-0.223-0.183-0.404-0.408-0.404z"></path>
<path fill="#f1cc75" style="fill: var(--color5, #f1cc75)" d="M23.328 10.67c-0.236 0-0.428 0.189-0.428 0.421v2.709c0 0.233 0.192 0.421 0.428 0.421h0.345c0.236 0 0.428-0.189 0.428-0.421v-2.709c0-0.233-0.192-0.421-0.428-0.421h-0.345zM22.648 11.092c0-0.369 0.304-0.669 0.68-0.669h0.345c0.375 0 0.68 0.3 0.68 0.669v2.709c0 0.37-0.304 0.669-0.68 0.669h-0.345c-0.375 0-0.68-0.3-0.68-0.669v-2.709z"></path>
<path fill="#f1cc75" style="fill: var(--color5, #f1cc75)" d="M83.672 9.148c-0.18 0-0.326 0.144-0.326 0.322v2.074c0 0.178 0.146 0.322 0.326 0.322h0.261c0.18 0 0.326-0.144 0.326-0.322v-2.074c0-0.178-0.146-0.322-0.326-0.322h-0.261zM83.155 9.47c0-0.283 0.232-0.512 0.517-0.512h0.261c0.286 0 0.517 0.229 0.517 0.512v2.074c0 0.283-0.232 0.512-0.517 0.512h-0.261c-0.286 0-0.517-0.229-0.517-0.512v-2.074z"></path>
</symbol>
<symbol id="icon-infinity" viewBox="0 0 67 32">
<path fill="none" stroke="#a87806" style="stroke: var(--color11, #a87806)" stroke-linejoin="round" stroke-linecap="round" stroke-miterlimit="4" stroke-width="5.1892" d="M33.73 16c-1.857 3.57-4.348 6.78-7.352 9.478-1.893 1.875-4.306 3.152-6.932 3.67s-5.349 0.252-7.823-0.762c-2.474-1.015-4.589-2.733-6.077-4.937s-2.282-4.797-2.282-7.448 0.794-5.244 2.282-7.448c1.488-2.205 3.603-3.923 6.077-4.937s5.197-1.28 7.823-0.762 5.039 1.795 6.932 3.67c3.004 2.698 5.495 5.908 7.352 9.478zM33.73 16c1.857-3.57 4.348-6.78 7.352-9.478 1.893-1.875 4.306-3.152 6.932-3.67s5.349-0.252 7.823 0.762c2.474 1.014 4.589 2.733 6.077 4.937s2.282 4.797 2.282 7.448-0.794 5.244-2.282 7.448c-1.488 2.205-3.603 3.923-6.077 4.937s-5.197 1.28-7.823 0.762c-2.627-0.518-5.039-1.795-6.932-3.67-3.004-2.698-5.495-5.908-7.352-9.478z"></path>
</symbol>
<symbol id="icon-line-1" viewBox="0 0 5 32">
<path fill="#8fcecb" style="fill: var(--color6, #8fcecb)" d="M2.286 0c1.262 0 2.286 0.895 2.286 2v28c0 1.105-1.023 2-2.286 2s-2.286-0.895-2.286-2v-28c0-1.105 1.023-2 2.286-2z"></path>
</symbol>
<symbol id="icon-line-2" viewBox="0 0 5 32">
<path fill="#AE9AC5" style="fill: var(--color6, #AE9AC5)" d="M2.286 0c1.262 0 2.286 0.895 2.286 2v28c0 1.105-1.023 2-2.286 2s-2.286-0.895-2.286-2v-28c0-1.105 1.023-2 2.286-2z"></path>
</symbol>
<symbol id="icon-line-3" viewBox="0 0 5 32">
<path fill="#F1CC75" style="fill: var(--color6, #F1CC75)" d="M2.286 0c1.262 0 2.286 0.895 2.286 2v28c0 1.105-1.023 2-2.286 2s-2.286-0.895-2.286-2v-28c0-1.105 1.023-2 2.286-2z"></path>
</symbol>
<symbol id="icon-arrow_down" viewBox="0 0 32 32">
<path fill="" style="fill: var()" d="M7.293 7.293c0.391-0.391 1.024-0.391 1.414 0l15.626 15.626v-14.226c0-0.552 0.448-1 1-1s1 0.448 1 1v16.64c0 0.552-0.448 1-1 1h-16.64c-0.552 0-1-0.448-1-1s0.448-1 1-1h14.226l-15.626-15.626c-0.391-0.391-0.391-1.024 0-1.414z"></path>
</symbol>
<symbol id="icon-youtube" viewBox="0 0 32 32">
<path fill="#f34d4d" style="fill: var(--color12, #f34d4d)" d="M32 16c0 8.837-7.163 16-16 16s-16-7.163-16-16c0-8.837 7.163-16 16-16s16 7.163 16 16z"></path>
<path fill="#fdfcfc" style="fill: var(--color2, #fdfcfc)" d="M23.268 12.29c-0.174-0.665-0.689-1.189-1.341-1.367-1.183-0.323-5.927-0.323-5.927-0.323s-4.744 0-5.927 0.323c-0.653 0.178-1.167 0.702-1.341 1.367-0.317 1.206-0.317 3.721-0.317 3.721s0 2.515 0.317 3.721c0.174 0.665 0.689 1.167 1.341 1.345 1.183 0.323 5.927 0.323 5.927 0.323s4.744 0 5.927-0.323c0.653-0.178 1.167-0.68 1.341-1.345 0.317-1.206 0.317-3.721 0.317-3.721s0-2.515-0.317-3.721zM14.448 18.295v-4.568l3.965 2.284-3.965 2.284z"></path>
</symbol>
<symbol id="icon-facebook" viewBox="0 0 32 32">
<path fill="#4792f3" style="fill: var(--color13, #4792f3)" d="M32 16c0-8.836-7.164-16-16-16s-16 7.163-16 16c0 7.986 5.851 14.605 13.5 15.806v-11.181h-4.062v-4.625h4.062v-3.525c0-4.010 2.389-6.225 6.043-6.225 1.751 0 3.582 0.313 3.582 0.313v3.938h-2.017c-1.988 0-2.608 1.233-2.608 2.499v3.001h4.438l-0.709 4.625h-3.728v11.181c7.649-1.2 13.5-7.819 13.5-15.806z"></path>
<path fill="#fdfcfc" style="fill: var(--color2, #fdfcfc)" d="M22.228 20.625l0.709-4.625h-4.438v-3.001c0-1.265 0.62-2.499 2.608-2.499h2.017v-3.938c0 0-1.831-0.313-3.582-0.313-3.655 0-6.043 2.215-6.043 6.225v3.525h-4.062v4.625h4.062v11.181c0.827 0.13 1.663 0.195 2.5 0.194s1.673-0.065 2.5-0.194v-11.181h3.728z"></path>
</symbol>
<symbol id="icon-whatsapp" viewBox="0 0 32 32">
<path fill="#1FAF38" style="fill: var(--color14, #1FAF38)" d="M1.721 16.014c-0.001 2.54 0.666 5.021 1.934 7.207l-2.055 7.47 7.679-2.004c2.124 1.151 4.503 1.754 6.922 1.754h0.006c7.983 0 14.481-6.467 14.484-14.415 0.002-3.852-1.504-7.473-4.239-10.198s-6.371-4.226-10.246-4.228c-7.984 0-14.481 6.466-14.485 14.414z"></path>
<path fill="#fdfcfc" style="fill: var(--color2, #fdfcfc)" d="M12.114 9.492c-0.298-0.658-0.612-0.671-0.896-0.683-0.232-0.010-0.498-0.009-0.763-0.009s-0.697 0.099-1.061 0.494c-0.365 0.395-1.394 1.351-1.394 3.294s1.427 3.822 1.626 4.086c0.199 0.263 2.754 4.379 6.801 5.962 3.363 1.316 4.047 1.054 4.777 0.988s2.356-0.955 2.687-1.878c0.332-0.922 0.332-1.713 0.232-1.878s-0.365-0.263-0.763-0.461c-0.398-0.198-2.356-1.153-2.72-1.285s-0.63-0.197-0.896 0.198c-0.266 0.395-1.028 1.284-1.26 1.548s-0.465 0.297-0.863 0.099c-0.398-0.198-1.68-0.615-3.202-1.96-1.184-1.047-1.982-2.34-2.215-2.736s-0.025-0.609 0.175-0.806c0.179-0.177 0.398-0.461 0.598-0.692s0.265-0.395 0.398-0.659c0.133-0.264 0.066-0.494-0.033-0.692s-0.873-2.151-1.227-2.932z"></path>
</symbol>
<symbol id="icon-phone" viewBox="0 0 32 32">
<path d="M16.721 8.541c3.563 0.11 6.643 3.333 6.6 6.79-0.003 0.088 0.003 0.176 0.017 0.263 0 0.283-0.017 0.577-0.41 0.567-0.447 0-0.383-0.44-0.41-0.777v-0.090c-0.477-3.667-2.183-5.403-5.903-5.967-0.31-0.037-0.777 0.017-0.767-0.377 0.043-0.593 0.59-0.363 0.873-0.41zM21.484 15.158c0.001 0.038-0.006 0.076-0.020 0.111s-0.034 0.068-0.061 0.095c-0.026 0.027-0.058 0.049-0.093 0.064s-0.072 0.023-0.11 0.023c-0.403 0.073-0.467-0.163-0.493-0.43 0-0.104-0.009-0.208-0.027-0.31-0.393-2.23-1.197-3.050-3.483-3.557-0.333-0.073-0.86-0.037-0.767-0.54s0.55-0.333 0.913-0.283c2.283 0.283 4.16 2.23 4.15 4.377-0.010 0.13 0.007 0.313-0.010 0.45zM19.584 14.865c-0.061 0.034-0.13 0.052-0.2 0.053-0.058 0.007-0.116-0.001-0.17-0.022s-0.102-0.055-0.14-0.098c-0.063-0.092-0.101-0.199-0.11-0.31-0.011-0.41-0.174-0.802-0.458-1.098s-0.669-0.475-1.078-0.502c-0.283-0.047-0.567-0.147-0.43-0.51 0.090-0.257 0.333-0.283 0.567-0.283 1-0.027 2.203 1.17 2.183 2.203 0.021 0.101 0.016 0.206-0.015 0.305s-0.085 0.189-0.159 0.261h0.010zM23.378 21.298c-0.393 1.080-1.747 2.183-2.907 2.167-0.265-0.045-0.525-0.115-0.777-0.21-4.16-1.743-7.377-4.413-9.563-8.070-0.511-0.854-0.957-1.745-1.333-2.667-0.703-1.69 0.027-3.117 1.81-3.71 0.305-0.1 0.635-0.1 0.94 0 0.767 0.283 2.687 2.87 2.723 3.647 0.027 0.593-0.373 0.913-0.787 1.18-0.209 0.111-0.382 0.278-0.5 0.482s-0.176 0.438-0.167 0.674c0.020 0.253 0.086 0.5 0.193 0.73 0.73 1.593 2.042 2.845 3.667 3.5 0.593 0.267 1.17 0.237 1.58-0.367 0.723-1.070 1.617-1 2.597-0.357 0.477 0.333 1 0.667 1.453 1.033 0.64 0.517 1.443 0.917 1.060 1.967h0.010z"></path>
<path fill="none" stroke="#acacac" style="stroke: var(--color15, #acacac)" stroke-linejoin="miter" stroke-linecap="butt" stroke-miterlimit="4" stroke-width="0.8" d="M16 0.4c8.616 0 15.6 6.984 15.6 15.6s-6.984 15.6-15.6 15.6c-8.616 0-15.6-6.984-15.6-15.6s6.984-15.6 15.6-15.6z"></path>
</symbol>
<symbol id="icon-gmail" viewBox="0 0 32 32">
<path fill="#4285f4" style="fill: var(--color16, #4285f4)" d="M11.2 22.337v-6.56l-2.109-1.861-1.891-1.033v8.296c0 0.641 0.538 1.158 1.2 1.158h2.8z"></path>
<path fill="#34a853" style="fill: var(--color17, #34a853)" d="M20.8 22.337h2.8c0.664 0 1.2-0.519 1.2-1.158v-8.296l-2.142 1.183-1.858 1.711v6.56z"></path>
<path fill="#ea4335" style="fill: var(--color18, #ea4335)" d="M11.2 15.777l-0.287-2.563 0.287-2.453 4.8 3.473 4.8-3.473 0.321 2.321-0.321 2.696-4.8 3.473-4.8-3.473z"></path>
<path fill="#fbbc04" style="fill: var(--color19, #fbbc04)" d="M20.8 10.761v5.016l4-2.894v-1.543c0-1.432-1.694-2.248-2.88-1.389l-1.12 0.81z"></path>
<path fill="#c5221f" style="fill: var(--color20, #c5221f)" d="M7.2 12.883l4 2.894v-5.016l-1.12-0.81c-1.188-0.859-2.88-0.042-2.88 1.389v1.544z"></path>
<path fill="none" stroke="#acacac" style="stroke: var(--color15, #acacac)" stroke-linejoin="miter" stroke-linecap="butt" stroke-miterlimit="4" stroke-width="0.8" d="M16 0.4c8.616 0 15.6 6.984 15.6 15.6s-6.984 15.6-15.6 15.6c-8.616 0-15.6-6.984-15.6-15.6s6.984-15.6 15.6-15.6z"></path>
</symbol>
<symbol id="icon-about-us-arrow-right" viewBox="0 0 32 32">
<path stroke-linejoin="round" stroke-linecap="round" stroke-miterlimit="4" stroke-width="2" d="M4 16h24M28 16l-11.333 11.333M28 16l-11.333-11.333"></path>
</symbol>
<symbol id="icon-about-us-arrow-left" viewBox="0 0 32 32">
<path stroke-linejoin="round" stroke-linecap="round" stroke-miterlimit="4" stroke-width="2" d="M28 16h-24M4 16l11.333-11.333M4 16l11.333 11.333"></path>
</symbol>
<symbol id="icon-arrow-page-right" viewBox="0 0 32 32">
<path d="M25.061 15.1l-16.1-12.575c-0.042-0.033-0.093-0.054-0.146-0.059s-0.107 0.004-0.155 0.027c-0.048 0.023-0.089 0.060-0.117 0.106s-0.043 0.098-0.043 0.152v2.761c0 0.175 0.082 0.343 0.218 0.45l12.857 10.039-12.857 10.039c-0.139 0.107-0.218 0.275-0.218 0.45v2.761c0 0.239 0.275 0.371 0.461 0.225l16.1-12.575c0.137-0.107 0.248-0.243 0.324-0.399s0.116-0.327 0.116-0.501c0-0.174-0.040-0.345-0.116-0.501s-0.187-0.293-0.324-0.399z"></path>
</symbol>
<symbol id="icon-arrow-page-left" viewBox="0 0 32 32">
<path d="M23.573 5.511v-2.761c0-0.239-0.275-0.371-0.461-0.225l-16.1 12.575c-0.137 0.106-0.247 0.243-0.324 0.398s-0.116 0.327-0.116 0.5c0 0.173 0.040 0.344 0.116 0.5s0.187 0.292 0.324 0.398l16.1 12.575c0.189 0.146 0.461 0.014 0.461-0.225v-2.761c0-0.175-0.082-0.343-0.218-0.45l-12.857-10.036 12.857-10.039c0.136-0.107 0.218-0.275 0.218-0.45z"></path>
</symbol>
</defs>
</svg>
