<svg width="64" height="64" viewBox="0 0 64 64" fill="none" xmlns="http://www.w3.org/2000/svg">
<g opacity="0.6">
<mask id="mask0_849_2968" style="mask-type:luminance" maskUnits="userSpaceOnUse" x="22" y="5" width="21" height="26">
<path d="M42.058 5.31152H22.3877V30.1623H42.058V5.31152Z" fill="white"/>
</mask>
<g mask="url(#mask0_849_2968)">
<mask id="mask1_849_2968" style="mask-type:luminance" maskUnits="userSpaceOnUse" x="22" y="5" width="21" height="26">
<path d="M42.058 5.31152H22.3877V30.1623H42.058V5.31152Z" fill="white"/>
</mask>
<g mask="url(#mask1_849_2968)">
<path d="M24.6428 30.1623H35.8836C36.279 30.1661 36.6681 30.0629 37.0097 29.8636C37.6025 29.4939 38.0546 28.9366 38.2942 28.2804C38.8807 26.817 41.2183 21.2207 41.8819 19.6361C41.9979 19.3583 42.0578 19.0602 42.0581 18.7591V16.3747C42.0595 16.0306 41.9813 15.6909 41.8295 15.3821C41.5267 14.775 40.8824 13.9132 39.6626 13.9132H34.3431C34.0104 13.9132 33.6817 13.8402 33.3803 13.6993C33.0788 13.5585 32.812 13.3532 32.5985 13.098C32.3851 12.8428 32.2302 12.5439 32.1448 12.2223C32.0595 11.9007 32.0457 11.5643 32.1045 11.2368L32.6773 8.04291C32.7423 7.69219 32.723 7.33105 32.621 6.98924C32.519 6.64744 32.3373 6.33476 32.0908 6.07698C31.8457 5.82229 31.5635 5.46159 31.1106 5.3611C28.0323 4.67275 24.5919 11.2066 22.8999 13.2799C22.5684 13.6855 22.3875 14.1933 22.3878 14.7171V27.9101C22.3823 28.4693 22.5878 29.01 22.9633 29.4244L23.0018 29.4657C23.2138 29.6873 23.4685 29.8635 23.7506 29.9837C24.0327 30.1039 24.3362 30.1656 24.6428 30.1651" fill="#7C59A0"/>
</g>
</g>
</g>
<g opacity="0.61">
<mask id="mask2_849_2968" style="mask-type:luminance" maskUnits="userSpaceOnUse" x="37" y="12" width="21" height="26">
<path d="M57.5326 12.916H37.8623V37.7668H57.5326V12.916Z" fill="white"/>
</mask>
<g mask="url(#mask2_849_2968)">
<mask id="mask3_849_2968" style="mask-type:luminance" maskUnits="userSpaceOnUse" x="37" y="12" width="21" height="26">
<path d="M57.5326 12.916H37.8623V37.7668H57.5326V12.916Z" fill="white"/>
</mask>
<g mask="url(#mask3_849_2968)">
<path d="M40.1173 37.7674H51.358C51.7529 37.7715 52.1415 37.6687 52.4828 37.47C53.076 37.1005 53.5286 36.5432 53.7686 35.8868C54.3537 34.422 56.6927 28.8271 57.3549 27.2412C57.4717 26.9636 57.5316 26.6654 57.5311 26.3642V23.9811C57.5331 23.6366 57.4549 23.2963 57.3026 22.9872C56.9997 22.3814 56.3554 21.5182 55.1371 21.5182H49.8161C49.4833 21.5186 49.1545 21.4459 48.8528 21.3053C48.5512 21.1647 48.2841 20.9597 48.0703 20.7046C47.8566 20.4495 47.7014 20.1506 47.6158 19.829C47.5302 19.5074 47.5162 19.1709 47.5749 18.8433L48.1489 15.648C48.213 15.2973 48.1933 14.9363 48.0914 14.5947C47.9895 14.253 47.8082 13.9403 47.5625 13.682C47.316 13.4287 47.0338 13.068 46.5823 12.9675C43.5026 12.2792 40.0636 18.813 38.3716 20.8849C38.0401 21.2911 37.8592 21.7993 37.8595 22.3236V35.5151C37.8539 36.0741 38.0589 36.6147 38.4336 37.0295L38.4735 37.0722C38.6855 37.2936 38.9402 37.4697 39.2223 37.5897C39.5044 37.7097 39.808 37.7711 40.1145 37.7702" fill="#E9AE21"/>
</g>
</g>
</g>
<g opacity="0.6">
<mask id="mask4_849_2968" style="mask-type:luminance" maskUnits="userSpaceOnUse" x="7" y="12" width="20" height="26">
<path d="M26.847 12.916H7.17676V37.7668H26.847V12.916Z" fill="white"/>
</mask>
<g mask="url(#mask4_849_2968)">
<mask id="mask5_849_2968" style="mask-type:luminance" maskUnits="userSpaceOnUse" x="7" y="12" width="20" height="26">
<path d="M26.847 12.916H7.17676V37.7668H26.847V12.916Z" fill="white"/>
</mask>
<g mask="url(#mask5_849_2968)">
<path d="M9.43156 37.7674H20.6723C21.0676 37.7717 21.4568 37.6689 21.7984 37.47C22.3912 37.1003 22.8433 36.543 23.0829 35.8868C23.6694 34.422 26.007 28.8271 26.6706 27.2412C26.7867 26.9634 26.8466 26.6653 26.8468 26.3642V23.9811C26.8481 23.6366 26.7699 23.2965 26.6183 22.9872C26.3154 22.3814 25.6711 21.5127 24.4458 21.5127H19.1318C18.7991 21.5129 18.4705 21.4401 18.1691 21.2994C17.8676 21.1587 17.6008 20.9536 17.3873 20.6985C17.1738 20.4434 17.0189 20.1445 16.9335 19.823C16.8482 19.5015 16.8344 19.1652 16.8933 18.8378L17.466 15.6425C17.5291 15.2922 17.5084 14.9319 17.4055 14.5911C17.3026 14.2504 17.1205 13.9389 16.874 13.682C16.6289 13.4287 16.3467 13.068 15.8938 12.9675C12.8155 12.2792 9.37511 18.813 7.68315 20.8849C7.35163 21.2911 7.1707 21.7993 7.17101 22.3236V35.5151C7.16529 36.0744 7.3708 36.6152 7.74648 37.0295C7.75887 37.0433 7.77263 37.057 7.78502 37.0722C7.99708 37.2935 8.25186 37.4695 8.53394 37.5895C8.81602 37.7095 9.11952 37.7709 9.42605 37.7702" fill="#42B5AE"/>
</g>
</g>
</g>
<path d="M11.7309 52.6858H10.2688V57.7603H7.17676V44.9336H10.2688V49.8897H11.4583L13.924 44.9336H17.6686L14.1442 50.8534L18.1091 57.7603H14.4526L11.7309 52.6858Z" fill="#7C59A0"/>
<path d="M30.5253 44.9336V57.7603H27.4319V47.3208H24.5518L24.3398 51.6285C24.248 53.1144 24.0425 54.3007 23.7231 55.1873C23.4037 56.0738 22.9448 56.7214 22.3464 57.1298C21.7498 57.5391 20.938 57.7493 19.911 57.7603H19.085V55.38L19.5172 55.3359C20.134 55.2442 20.5801 54.8669 20.8554 54.2043C21.1307 53.5416 21.3088 52.4192 21.3896 50.8369L21.6098 44.935L30.5253 44.9336Z" fill="#7C59A0"/>
<path d="M40.7476 55.3635H36.5102L35.7709 57.7603H32.4668L37.171 44.9336H40.0786L44.8185 57.7603H41.4966L40.7476 55.3635ZM37.2508 52.9763H40.0042L38.6206 48.5282L37.2508 52.9763Z" fill="#7C59A0"/>
<path d="M56.7943 53.4165C56.7698 54.2554 56.5202 55.0723 56.0716 55.7817C55.6176 56.4776 54.9742 57.0292 54.2171 57.3717C53.3619 57.7604 52.4306 57.9533 51.4913 57.9362C49.8053 57.9362 48.4777 57.3855 47.5085 56.2841C46.5393 55.1828 46.0547 53.6335 46.0547 51.6364V51.0031C46.0547 49.7467 46.2736 48.6453 46.7114 47.699C47.1117 46.8 47.7695 46.0397 48.6016 45.5142C49.4599 44.9904 50.4501 44.7229 51.4555 44.7433C53.0157 44.7433 54.2667 45.1531 55.2084 45.9727C56.15 46.7923 56.6874 47.9225 56.8205 49.3635H53.7367C53.7137 48.5824 53.5173 48.0217 53.1474 47.6811C52.7776 47.3406 52.2122 47.1704 51.4514 47.1704C50.6822 47.1704 50.1182 47.4581 49.7594 48.0336C49.4005 48.609 49.2128 49.5268 49.1963 50.787V51.6942C49.1963 53.0627 49.3679 54.0406 49.7112 54.628C50.0545 55.2154 50.6464 55.5091 51.4871 55.5091C52.1975 55.5091 52.7404 55.3416 53.1158 55.0066C53.4912 54.6716 53.6908 54.1402 53.7146 53.4123L56.7943 53.4165Z" fill="#7C59A0"/>
</svg>
