<svg width="170" height="142" viewBox="0 0 170 142" fill="none" xmlns="http://www.w3.org/2000/svg">
<g clip-path="url(#clip0_462_5525)">
<path d="M57.7893 62.6795C57.2366 63.2295 56.5033 63.5152 55.7805 63.5152C55.0578 63.5152 54.3245 63.2401 53.7718 62.6795C52.8471 61.7591 52.0287 60.7541 51.3379 59.6751C51.9543 59.1568 52.6346 58.7125 53.3679 58.3422C54.3989 57.8133 55.483 57.4642 56.5883 57.2949C56.9497 57.7815 57.3535 58.2364 57.7893 58.6701C58.8947 59.7809 58.8947 61.5793 57.7893 62.6795Z" fill="#F68712"/>
<path d="M55.1747 45.479C54.6645 46.685 54.3563 47.9756 54.2713 49.3085C52.6664 49.6576 51.104 50.2077 49.6054 50.9694C49.2653 51.1386 48.9358 51.3185 48.6064 51.5089C48.5745 51.054 48.5532 50.6097 48.5532 50.1548C48.5532 47.087 49.3291 44.1356 50.8064 41.5332C51.6567 43.3633 53.2403 44.802 55.1747 45.479Z" fill="#F68712"/>
<path d="M67.8968 32.5204C66.749 34.1601 65.8775 36.0007 65.2929 37.9684C65.1972 35.9267 64.2832 34.0966 62.8696 32.7848C64.5277 32.4675 66.2282 32.3723 67.8968 32.5204Z" fill="#F68712"/>
<path d="M78.9288 41.6281C77.8128 42.7389 76.0166 42.7389 74.9113 41.6281C74.4011 41.1204 73.8485 40.6655 73.2852 40.2741C73.8272 38.4016 74.8794 36.7408 76.2717 35.4502C77.207 36.0743 78.1104 36.8043 78.9288 37.6294C80.0448 38.7296 80.0448 40.5279 78.9288 41.6281Z" fill="#F68712"/>
<path d="M78.1639 32.5418C77.0266 33.113 76.0063 33.8535 75.1135 34.7421C73.7637 36.075 72.7221 37.7253 72.1269 39.566C71.7337 40.7402 71.5318 41.9885 71.5318 43.2897C71.5318 44.8553 70.2564 46.1248 68.6834 46.1248C67.1104 46.1248 65.835 44.8553 65.835 43.2897C65.835 41.4913 66.1007 39.7458 66.6108 38.1167C67.2166 36.1491 68.1626 34.3296 69.3636 32.711C71.096 30.4049 73.3811 28.5219 76.0169 27.2842C76.0276 29.3153 76.8459 31.1771 78.1639 32.5418Z" fill="#80CC28"/>
<path d="M96.9653 31.5578C94.9034 31.9915 92.9372 32.7532 91.141 33.8322C90.5139 33.3244 89.8337 32.9013 89.1216 32.531C90.4501 31.1664 91.2579 29.3045 91.2579 27.2734C93.4367 28.3101 95.3817 29.77 96.9653 31.5578Z" fill="#80CC28"/>
<path d="M101.44 43.2888C101.44 44.8544 100.164 46.1239 98.5914 46.1239C97.0184 46.1239 95.743 44.8544 95.743 43.2888C95.743 42.4636 95.658 41.6491 95.4985 40.8768C97.1247 39.9248 98.9953 39.417 100.94 39.417H100.993C101.291 40.6547 101.44 41.9559 101.44 43.2888Z" fill="#80CC28"/>
<path d="M81.4796 106.327C80.7994 106.993 80.0129 107.565 79.1626 108.041C79.0776 107.882 78.9926 107.723 78.9182 107.544C78.5781 106.835 78.2805 106.084 78.0254 105.322C77.5365 103.841 78.3549 102.244 79.8429 101.746C81.3415 101.26 82.9357 102.074 83.4352 103.555C83.4459 103.598 83.4671 103.64 83.4777 103.682C82.9463 104.677 82.2767 105.555 81.4796 106.327Z" fill="#00ADEF"/>
<path d="M94.5417 114.706C94.5417 115.711 94.733 116.663 95.0944 117.541H94.9456C94.7542 117.541 94.5842 117.541 94.446 117.53C91.3 117.446 88.2178 116.525 85.5395 114.875C85.3056 114.727 85.0824 114.579 84.8699 114.441C84.8167 114.41 84.7636 114.367 84.7104 114.336C85.5395 113.775 86.3153 113.151 87.0381 112.474C87.7502 111.818 88.3985 111.099 88.9937 110.337C90.7155 111.3 92.6392 111.829 94.6054 111.871H94.648C94.7968 111.871 94.9349 111.881 95.0731 111.871H95.0837C94.7436 112.749 94.5417 113.712 94.5417 114.706Z" fill="#00ADEF"/>
<path d="M106.446 96.0876C105.957 94.6066 106.775 93.0092 108.263 92.512C109.751 92.0254 111.356 92.84 111.856 94.321C112.217 95.4106 112.461 96.5319 112.6 97.6639C112.493 97.7062 112.387 97.7485 112.281 97.7802C111.473 98.0447 110.644 98.2139 109.804 98.2774C109.507 98.3091 109.22 98.3197 108.912 98.3197C108.231 98.3197 107.572 98.2563 106.913 98.1293C106.828 97.4417 106.669 96.7541 106.446 96.0876Z" fill="#00ADEF"/>
<path d="M108.912 106.602C109.762 106.602 110.602 106.549 111.441 106.433C111.346 106.665 111.261 106.888 111.154 107.11C111.016 107.395 110.91 107.649 110.772 107.903C110.315 108.802 109.762 109.68 109.145 110.495C109.018 110.654 108.901 110.823 108.763 110.982C108.274 110.135 107.636 109.395 106.871 108.792C106.116 108.199 105.255 107.745 104.31 107.469C104.405 107.353 104.501 107.226 104.597 107.099C104.798 106.824 105 106.549 105.181 106.253C106.191 106.454 107.2 106.57 108.242 106.602C108.465 106.602 108.688 106.602 108.912 106.602Z" fill="#00ADEF"/>
<path d="M119.189 84.2497C119.221 84.366 119.264 84.4718 119.295 84.5882C118.307 85.1383 117.244 85.6037 116.128 85.9634C115.831 86.0586 115.544 86.1009 115.246 86.1009C114.045 86.1009 112.94 85.3393 112.546 84.1439C112.057 82.6629 112.876 81.0655 114.364 80.5789C115.055 80.3567 115.703 80.0711 116.319 79.7432C117.637 80.9703 118.615 82.5042 119.189 84.2497Z" fill="#F68712"/>
<path d="M126.565 72.2957C127.107 72.2957 127.639 72.2428 128.149 72.1264C127.756 74.3902 126.916 76.5483 125.704 78.4947C124.716 76.6752 123.419 75.0038 121.857 73.5757C122.176 72.7928 122.399 71.9783 122.548 71.1426C123.706 71.8725 125.088 72.2957 126.565 72.2957Z" fill="#F68712"/>
<path d="M111.664 51.4456C111.42 53.5614 110.537 55.5396 109.134 57.1581C108.38 57.2533 107.615 57.4226 106.86 57.6659C106.562 57.7611 106.275 57.8034 105.978 57.8034C104.777 57.8034 103.672 57.0417 103.278 55.8464C102.789 54.3653 103.608 52.768 105.106 52.2814C106.934 51.6889 108.784 51.4033 110.612 51.4033C110.963 51.4033 111.313 51.4139 111.664 51.4456Z" fill="#F68712"/>
<path d="M124.089 57.549C122.229 58.1838 120.688 59.5273 119.795 61.2622C119.168 60.5322 118.456 59.8975 117.69 59.3474C118.647 57.6231 119.306 55.7824 119.689 53.8994C121.325 54.8621 122.813 56.0998 124.089 57.549Z" fill="#F68712"/>
<path d="M48.6378 72.7928C48.6272 72.761 48.606 72.7399 48.606 72.7187C49.605 71.8936 50.7104 71.1848 51.8901 70.5924C53.2931 69.8836 55.0042 70.4443 55.7163 71.8301C56.4284 73.2265 55.8758 74.9297 54.4622 75.6384C53.7182 76.0087 53.038 76.453 52.4003 76.9502C50.806 75.9346 49.5094 74.5065 48.6378 72.7928Z" fill="#80CC28"/>
<path d="M46.7995 86.4395C45.0883 86.4395 43.4941 87.0107 42.2187 87.9734C42.0061 85.6143 42.2718 83.213 43.0264 80.8857C43.1434 80.5366 43.2603 80.2086 43.3984 79.8701C44.7164 81.5098 46.3 82.8956 48.0749 84.017C47.9049 84.8421 47.8305 85.6778 47.8305 86.5029C47.4904 86.4606 47.1502 86.4395 46.7995 86.4395Z" fill="#80CC28"/>
<path d="M55.4613 103.503C53.4631 102.984 51.55 102.127 49.8389 100.943C51.6776 100.149 53.1337 98.647 53.867 96.7852C54.1859 96.9756 54.526 97.1448 54.8661 97.3035C54.7173 99.3981 54.9192 101.482 55.4613 103.503Z" fill="#80CC28"/>
<path d="M68.0135 102.17C66.8231 102.773 65.5902 103.228 64.3467 103.546C64.3361 103.525 64.3255 103.514 64.3148 103.493C63.4327 101.768 63.0394 99.8749 63.1564 97.9919C63.9322 97.7803 64.6868 97.4947 65.4202 97.1139C66.8231 96.4051 68.5343 96.9552 69.2464 98.3516C69.9585 99.7586 69.4058 101.462 68.0135 102.17Z" fill="#80CC28"/>
<path d="M61.8492 111.638C60.3187 110.231 59.0433 108.56 58.0761 106.655C57.6084 105.735 57.2258 104.794 56.9282 103.831C56.3118 101.874 56.0567 99.8534 56.1524 97.8223C56.2267 96.2461 56.5137 94.6698 57.0132 93.1359C57.4065 91.9405 58.5225 91.1895 59.7129 91.1895C60.0104 91.1895 60.2974 91.2318 60.595 91.327C62.083 91.8136 62.9014 93.411 62.4125 94.892C62.0511 96.0027 61.8492 97.1452 61.8173 98.2877C61.7535 100.192 62.1574 102.075 63.0076 103.831C63.0502 103.916 63.0927 104 63.1352 104.095C63.7091 105.217 64.4425 106.232 65.314 107.1C63.6347 108.094 62.3699 109.713 61.8492 111.638Z" fill="#F68712"/>
<path d="M90.8539 104.116C90.1844 106.148 89.1853 108.009 87.8886 109.628C87.2934 110.368 86.6345 111.067 85.933 111.712C85.2103 112.368 84.4344 112.96 83.6054 113.489C83.0846 113.828 82.5532 114.134 82.0005 114.409C80.1937 115.319 78.2912 115.912 76.3462 116.176C76.6438 115.372 76.8033 114.515 76.8033 113.605C76.8033 112.484 76.5588 111.426 76.123 110.474C77.2603 110.263 78.3763 109.892 79.4285 109.363C79.5666 109.3 79.6835 109.226 79.8111 109.162C80.6507 108.697 81.4266 108.147 82.1174 107.502C82.8721 106.825 83.531 106.042 84.0837 105.195C84.6576 104.317 85.1146 103.365 85.4441 102.36C85.8374 101.165 86.9533 100.403 88.1543 100.403C88.4413 100.403 88.7389 100.446 89.0365 100.541C90.5245 101.027 91.3429 102.635 90.8539 104.116Z" fill="#F68712"/>
<path d="M56.3331 82.9487C55.9399 84.1441 54.8239 84.9058 53.6335 84.9058C53.3359 84.9058 53.049 84.8529 52.7514 84.7577C51.1996 84.2605 49.7542 83.5623 48.4256 82.6843C46.7251 81.5629 45.2265 80.156 44.0042 78.5163C43.3984 77.7123 42.867 76.8554 42.41 75.9457C41.836 74.8138 41.3897 73.6501 41.0708 72.4547C41.7829 72.6663 42.5375 72.7932 43.324 72.7932C44.5994 72.7932 45.8004 72.4759 46.8633 71.9258C47.0333 72.423 47.2459 72.9096 47.4903 73.3856C47.5328 73.4703 47.5754 73.5443 47.6179 73.6184C48.5319 75.3427 49.8392 76.7814 51.4122 77.8498C52.3581 78.5057 53.4103 79.0135 54.5263 79.3837C55.993 79.8598 56.8114 81.4677 56.3331 82.9487Z" fill="#00ADEF"/>
<path d="M65.5904 54.6507C65.1972 55.8461 64.0812 56.5972 62.8908 56.5972C62.5932 56.5972 62.3062 56.5549 62.0087 56.4597C60.7758 56.0577 59.511 55.8567 58.2462 55.8567C57.4278 55.8567 56.6201 55.9413 55.8229 56.1C54.7814 56.3116 53.7504 56.6712 52.7832 57.1684C52.0286 57.5493 51.3165 58.0041 50.6682 58.5225C50.0518 59.0091 49.4884 59.5592 48.9889 60.1622C47.6816 58.7129 45.8323 57.7714 43.7598 57.6445C45.0883 55.7615 46.7888 54.1641 48.787 52.9264C49.244 52.6302 49.7223 52.3657 50.2112 52.1118C51.5185 51.456 52.8683 50.9588 54.2606 50.6414C55.5679 50.3346 56.907 50.1865 58.2568 50.1865C60.1168 50.1865 61.9768 50.4827 63.7942 51.0646C65.2716 51.5618 66.0793 53.1591 65.5904 54.6507Z" fill="#00ADEF"/>
<path d="M89.9397 27.2731C89.9397 29.1456 89.1107 30.817 87.814 31.9595C87.6227 32.1287 87.4102 32.298 87.1976 32.4461C86.9531 32.6154 86.6981 32.7635 86.4217 32.901C85.5821 33.3136 84.6362 33.5357 83.6371 33.5357C82.638 33.5357 81.6921 33.303 80.8525 32.901C80.5868 32.7635 80.321 32.6154 80.0766 32.4461C79.864 32.298 79.6515 32.1393 79.4601 31.9595C78.1529 30.8064 77.3345 29.135 77.3345 27.2731C77.3345 27.0827 77.3451 26.8923 77.3664 26.7125C77.3876 26.4692 77.4195 26.2153 77.4726 25.972C77.5258 25.7075 77.6002 25.4642 77.6852 25.2103C78.5355 22.7666 80.8843 21 83.6371 21C86.3898 21 88.7281 22.7561 89.589 25.2103C89.674 25.4536 89.7484 25.7181 89.8015 25.972C89.8547 26.2153 89.8866 26.4586 89.9078 26.7019C89.9291 26.8923 89.9397 27.0827 89.9397 27.2731Z" fill="#80CC28"/>
<path d="M132.868 64.7214C132.868 67.0487 131.593 69.0798 129.701 70.1588C129.488 70.2858 129.254 70.4021 129.02 70.4973C128.797 70.5925 128.563 70.6666 128.33 70.7406C127.766 70.9099 127.171 70.9945 126.565 70.9945C125.109 70.9945 123.77 70.5079 122.707 69.6828C122.484 69.5135 122.271 69.3231 122.07 69.1221C121.814 68.8682 121.581 68.5932 121.379 68.2864C120.677 67.2814 120.263 66.0543 120.263 64.732C120.263 64.605 120.263 64.4781 120.273 64.3511C120.295 63.9809 120.348 63.6212 120.433 63.2721C120.497 62.9865 120.592 62.7114 120.688 62.447C121.411 60.5851 123.005 59.157 124.96 58.6492C125.184 58.5858 125.428 58.5435 125.662 58.5117C125.906 58.4694 126.172 58.4588 126.427 58.4482C126.47 58.4482 126.512 58.4482 126.565 58.4482C130.041 58.4482 132.868 61.2516 132.868 64.7214Z" fill="#F68712"/>
<path d="M108.454 114.717C108.454 118.186 105.638 120.99 102.152 120.99C99.6647 120.99 97.5178 119.562 96.4868 117.467C96.0723 116.631 95.8491 115.7 95.8491 114.717V114.685C95.8491 113.627 96.1148 112.643 96.5931 111.765C97.6559 109.787 99.7497 108.443 102.152 108.443C102.545 108.443 102.928 108.475 103.3 108.549C104.331 108.74 105.266 109.173 106.052 109.787C106.818 110.379 107.434 111.141 107.849 112.019C108.231 112.844 108.454 113.743 108.454 114.717Z" fill="#00ADEF"/>
<path d="M75.496 113.616C75.496 114.579 75.2834 115.499 74.8795 116.313C74.7626 116.546 74.6457 116.768 74.5075 116.98C74.3587 117.213 74.1887 117.435 74.0186 117.646C72.8601 119.011 71.1277 119.878 69.204 119.878C65.9092 119.878 63.2096 117.371 62.9333 114.155C62.912 113.976 62.9014 113.785 62.9014 113.605C62.9014 113.51 62.9014 113.426 62.912 113.341C62.9226 113.087 62.9439 112.833 62.997 112.579C63.3265 110.58 64.6019 108.898 66.3662 108.009C66.5894 107.893 66.8232 107.798 67.0571 107.713C67.3121 107.618 67.5778 107.544 67.8542 107.491C68.2899 107.396 68.747 107.343 69.2146 107.343C71.0533 107.343 72.7007 108.126 73.8592 109.374C74.0505 109.575 74.2206 109.797 74.38 110.019C74.5288 110.22 74.6563 110.442 74.7732 110.654C75.2196 111.542 75.496 112.547 75.496 113.616Z" fill="#F68712"/>
<path d="M53.0914 94.0134C53.0914 94.7327 52.9639 95.4203 52.7407 96.0656C52.0818 97.9698 50.53 99.4402 48.585 100.022C48.0111 100.191 47.4053 100.287 46.7782 100.287C43.3027 100.287 40.4756 97.4832 40.4756 94.0134C40.4756 92.2467 41.2196 90.6494 42.3993 89.5069C43.5366 88.4173 45.0777 87.7402 46.7676 87.7402C47.1502 87.7402 47.5222 87.772 47.8835 87.846C50.8701 88.3644 53.0914 90.9244 53.0914 94.0134Z" fill="#80CC28"/>
<path d="M49.5946 65.2188C49.5946 67.0172 48.8294 68.6357 47.6177 69.7782C47.437 69.9474 47.2457 70.1167 47.0438 70.2648C46.8525 70.4023 46.6612 70.5293 46.4592 70.6456C45.5346 71.1851 44.4611 71.4919 43.3026 71.4919C42.3779 71.4919 41.5064 71.3015 40.7199 70.9418C40.4755 70.836 40.2204 70.6985 39.9972 70.561C39.7421 70.4023 39.487 70.2225 39.2638 70.0321C37.8822 68.879 37 67.1547 37 65.2294C37 62.4895 38.7643 60.1622 41.2195 59.3159C41.4958 59.2101 41.7828 59.1361 42.0804 59.0832C42.3461 59.0303 42.6118 58.9985 42.8881 58.9774C43.0263 58.9668 43.1538 58.9668 43.292 58.9668C45.2582 58.9668 47.0013 59.8554 48.1598 61.2624C48.3086 61.4422 48.4467 61.6326 48.5743 61.823C48.7124 62.0346 48.84 62.2462 48.9463 62.4789C49.3714 63.2935 49.5946 64.2244 49.5946 65.2188Z" fill="#00ADEF"/>
<path d="M63.9959 38.3278C63.9959 41.7976 61.1687 44.601 57.6932 44.601C57.0237 44.601 56.3753 44.4952 55.7589 44.3048C53.8033 43.6806 52.2515 42.1256 51.6563 40.1474C51.4757 39.5761 51.3906 38.9625 51.3906 38.3278C51.3906 34.8686 54.2071 32.0547 57.6932 32.0547C59.0218 32.0547 60.2653 32.4673 61.2856 33.176C62.9224 34.3079 63.9959 36.1909 63.9959 38.3278Z" fill="#F68712"/>
<path d="M112.706 99.0283C114.236 98.5205 115.607 97.7589 116.787 96.7539C117.499 98.584 118.902 100.065 120.677 100.88C118.891 102.456 116.776 103.662 114.438 104.413C113.609 104.677 112.78 104.889 111.94 105.037C110.931 105.206 109.921 105.301 108.911 105.301H108.837C107.838 105.301 106.839 105.206 105.861 105.037C104.15 104.741 102.471 104.18 100.866 103.376C99.4628 102.667 98.9101 100.964 99.6222 99.5678C100.122 98.584 101.121 98.0233 102.162 98.0233C102.598 98.0233 103.034 98.1186 103.438 98.3301C104.586 98.912 105.797 99.3034 107.03 99.4938C107.647 99.5996 108.284 99.6525 108.911 99.6525C109.23 99.6525 109.549 99.6419 109.879 99.6101C110.814 99.5361 111.76 99.3457 112.674 99.0495C112.695 99.0283 112.695 99.0283 112.706 99.0283Z" fill="#80CC28"/>
<path d="M126.714 86.9792C125.832 86.6301 124.886 86.4397 123.887 86.4397C122.877 86.4397 121.91 86.6301 121.017 87.0003C120.985 86.4079 120.911 85.8049 120.805 85.2231C120.752 85.001 120.698 84.7682 120.645 84.5461C120.592 84.3239 120.528 84.1018 120.454 83.8902C119.869 82.0918 118.87 80.4204 117.489 79.0558C117.329 78.8971 117.17 78.749 117 78.5903C116.83 78.4422 116.649 78.2941 116.479 78.1566C115.852 77.6488 115.172 77.2151 114.428 76.8342C113.025 76.1255 112.472 74.4223 113.184 73.0259C113.694 72.0421 114.693 71.4814 115.724 71.4814C116.16 71.4814 116.607 71.5767 117.01 71.7882C118.201 72.3912 119.295 73.1106 120.284 73.9357C120.454 74.0732 120.624 74.2213 120.794 74.3694C120.964 74.5175 121.134 74.6656 121.294 74.8243C122.782 76.2524 123.993 77.9133 124.886 79.7222C125.003 79.9444 125.099 80.1665 125.205 80.3887C125.311 80.6108 125.396 80.8436 125.492 81.0763C126.215 82.9487 126.64 84.9481 126.714 86.9792Z" fill="#80CC28"/>
<path d="M130.179 94.0142C130.179 97.4734 127.362 100.287 123.876 100.287C123.643 100.287 123.409 100.277 123.186 100.245C122.92 100.213 122.675 100.171 122.42 100.107C122.176 100.055 121.942 99.9805 121.708 99.8959C119.838 99.2083 118.381 97.6638 117.818 95.7385C117.733 95.4846 117.68 95.2202 117.648 94.9451C117.595 94.6383 117.574 94.321 117.574 94.0036V93.993C117.574 92.2052 118.339 90.5867 119.551 89.4442C119.784 89.2326 120.029 89.0211 120.295 88.8412C120.518 88.6825 120.752 88.545 120.985 88.4287C121.846 87.9738 122.824 87.7305 123.866 87.7305C124.875 87.7305 125.832 87.9738 126.682 88.3969C126.895 88.5027 127.118 88.6297 127.32 88.7672C127.533 88.9153 127.745 89.0634 127.947 89.2432C129.318 90.3963 130.179 92.0995 130.179 94.0142Z" fill="#80CC28"/>
<path d="M104.66 38.3277C104.66 38.4546 104.66 38.571 104.671 38.6874C103.81 38.4123 102.928 38.2325 102.035 38.1584C101.801 38.1267 101.567 38.1161 101.344 38.1161C101.206 38.1055 101.078 38.1055 100.94 38.1055C100.844 38.1055 100.749 38.1055 100.653 38.1055C98.7506 38.1479 96.8587 38.6345 95.1475 39.5654C94.9562 39.6712 94.7543 39.777 94.563 39.9039C94.3717 40.0203 94.1804 40.1472 93.9891 40.2742C93.4258 40.6762 92.8837 41.1205 92.3735 41.6282C91.8209 42.1783 91.0981 42.4534 90.3648 42.4534C89.6421 42.4534 88.9087 42.1783 88.356 41.6282C87.24 40.5175 87.24 38.7297 88.356 37.6295C89.185 36.8044 90.0672 36.0744 91.0025 35.4503C91.1938 35.3234 91.3745 35.207 91.5658 35.08C91.7571 34.9637 91.959 34.8473 92.1504 34.731C93.9572 33.7154 95.8915 33.0384 97.879 32.6998C98.1235 32.6575 98.3679 32.6152 98.6124 32.5835C98.8568 32.5517 99.1119 32.5306 99.3564 32.4989C99.8772 32.446 100.398 32.4248 100.929 32.4248C102.821 32.4248 104.713 32.721 106.531 33.3134C105.372 34.6781 104.66 36.4235 104.66 38.3277Z" fill="#00ADEF"/>
<path d="M118.658 51.8576C118.636 52.0904 118.604 52.3231 118.573 52.5453C118.541 52.778 118.509 53.0107 118.466 53.2329C118.137 55.1053 117.51 56.9248 116.574 58.628C116.468 58.8184 116.362 58.9982 116.256 59.1887C116.149 59.3791 116.032 59.5589 115.905 59.7493C115.235 60.786 114.438 61.7698 113.535 62.6796C112.982 63.2297 112.259 63.5153 111.526 63.5153C110.793 63.5153 110.07 63.2403 109.517 62.6796C108.401 61.5794 108.401 59.7811 109.517 58.6809C109.602 58.5962 109.687 58.5116 109.772 58.4164C109.985 58.1943 110.187 57.9615 110.378 57.7288C110.548 57.5172 110.718 57.2951 110.867 57.0729C112.047 55.4121 112.759 53.5079 112.971 51.572C113.003 51.3604 113.025 51.1383 113.035 50.9161C113.056 50.7046 113.056 50.4718 113.056 50.2603C113.078 48.7793 112.812 47.3088 112.281 45.9019C114.321 45.9019 116.181 45.0873 117.552 43.7861C118.551 46.3673 118.923 49.1389 118.658 51.8576Z" fill="#00ADEF"/>
<path d="M118.573 38.328C118.573 39.3859 118.307 40.3909 117.839 41.2689C117.722 41.491 117.584 41.7132 117.435 41.9142C117.297 42.1152 117.138 42.3056 116.978 42.4854C115.82 43.7866 114.14 44.6012 112.259 44.6012C112.068 44.6012 111.866 44.5906 111.675 44.5694C111.398 44.5377 111.111 44.4954 110.846 44.4319C110.516 44.3579 110.197 44.2626 109.889 44.1357C108.412 43.5433 107.221 42.4008 106.552 40.9621C106.414 40.6553 106.297 40.3485 106.201 40.0206C106.116 39.7561 106.063 39.4917 106.031 39.2166C105.989 38.9204 105.967 38.6348 105.967 38.328C105.967 36.572 106.701 34.9746 107.88 33.8427C108.05 33.6734 108.242 33.5147 108.433 33.3666C108.635 33.208 108.848 33.0704 109.071 32.9435C110.006 32.3828 111.101 32.0655 112.281 32.0655C115.756 32.0549 118.573 34.8688 118.573 38.328Z" fill="#00ADEF"/>
<path d="M62.8268 66.2664L64.4317 70.1382C64.7292 70.921 64.9524 71.5769 65.2075 72.2434H65.2607C65.4095 71.7673 65.5901 71.0374 65.8665 70.1065L67.0675 66.277H69.6927L67.6095 71.5875C66.9399 73.3012 66.2491 74.9621 65.4307 75.9776C64.708 76.8768 63.7939 77.4269 62.4973 77.4269C61.9234 77.4269 61.5832 77.3634 61.275 77.2471L61.4557 75.2583C61.647 75.3112 61.9127 75.3429 62.2741 75.3429C63.05 75.3429 63.5708 74.8246 63.7621 74.3168C63.8577 74.137 63.8152 73.9889 63.7302 73.809L60.0103 66.2559L62.8268 66.2664Z" fill="#00ADEF"/>
<path d="M81.1821 73.0474C81.129 71.725 81.0864 70.1276 81.0864 68.5303H81.0333C80.6826 69.9372 80.2362 71.4923 79.8004 72.7829L78.4612 77.0778H76.5163L75.3365 72.8252C74.9751 71.5346 74.6032 69.969 74.3374 68.5303H74.3056C74.2418 70.0113 74.1886 71.7039 74.1142 73.0791L73.9229 77.2577H71.606L72.3074 66.2664H75.6341L76.7182 69.9372C77.0689 71.2067 77.409 72.5819 77.6535 73.8619H77.7066C78.0149 72.5925 78.3975 71.1326 78.7588 69.9161L79.9386 66.2559H83.2015L83.8073 77.2471H81.3628L81.1821 73.0474Z" fill="#00ADEF"/>
<path d="M95.9342 66.2656V77.2568H93.4259V68.3073H89.5146V77.2568H87.0063V66.2656H95.9342Z" fill="#00ADEF"/>
<path d="M108.167 66.2664V75.3006L109.262 75.3641L109.145 80.0504H107.253L107.115 77.2577H100.664L100.536 80.0504H98.6445L98.5488 75.3641L99.4629 75.3006C99.9093 74.5178 100.26 73.7138 100.515 72.8569C100.823 71.7462 100.961 70.5508 100.961 69.1967V66.2559L108.167 66.2664ZM103.257 69.7574C103.257 71.0268 103.098 72.2751 102.768 73.3753C102.577 74.0417 102.29 74.7082 101.992 75.2371H105.67V68.287H103.257V69.7574Z" fill="#00ADEF"/>
</g>
<defs>
<clipPath id="clip0_462_5525">
<rect width="95.8678" height="100" fill="white" transform="translate(37 21)"/>
</clipPath>
</defs>
</svg>
