<svg width="223" height="80" viewBox="0 0 223 80" fill="none" xmlns="http://www.w3.org/2000/svg">
<rect width="222.5" height="80" rx="8" fill="#4AA3E4"/>
<g clip-path="url(#clip0_462_6155)">
<rect width="196.667" height="44.1667" transform="translate(13.3335 18.333)" fill="#4AA3E4"/>
<mask id="mask0_462_6155" style="mask-type:luminance" maskUnits="userSpaceOnUse" x="13" y="18" width="197" height="44">
<path d="M13.3335 18.333H210V61.5827H13.3335V18.333Z" fill="white"/>
</mask>
<g mask="url(#mask0_462_6155)">
<path d="M41.4569 27.6875V35.0566C41.981 34.4152 42.6693 33.2938 42.6693 31.3716C42.6693 29.482 42.0144 28.3279 41.4569 27.6875ZM39.0969 47.9667C39.1627 47.1343 39.1952 45.5961 38.5727 44.2183C37.9493 42.8415 36.8352 42.0398 36.2452 41.6557C36.1144 42.3278 35.9826 43.6739 36.6061 45.0517C37.2285 46.4612 38.4085 47.454 39.0969 47.9667ZM40.6377 35.2487V27.4638C40.0802 28.0716 39.2611 29.289 39.2611 31.3716C39.2276 33.4868 40.0802 34.6716 40.6377 35.2487ZM45.4226 45.3724C46.0461 43.9946 45.8819 42.6485 45.7511 41.9764C45.1611 42.3288 44.046 43.1612 43.4235 44.539C42.8011 45.9168 42.866 47.454 42.9643 48.2874C43.6526 47.7747 44.8326 46.7493 45.4226 45.3715V45.3724ZM64.4344 21.8892C60.7626 18.9416 53.9127 18.5248 40.8669 18.4932C27.9193 18.5248 21.0694 18.9732 17.3976 21.9209C13.7269 24.8685 13.3994 30.2828 13.3994 40.0225C13.3994 49.8573 13.7269 55.2715 17.3652 58.2509C21.0035 61.1985 27.8869 61.6469 40.8669 61.6469C53.9127 61.6469 60.7626 61.1985 64.4344 58.2509C68.1052 55.2715 68.4326 49.8573 68.4326 40.0215C68.4326 30.2501 68.1052 24.8359 64.4344 21.8892ZM49.6844 24.9645C50.241 24.1638 51.2577 24.0034 51.2577 24.0034C51.2577 24.0034 52.9294 23.1067 54.5352 24.3241C56.3376 25.701 55.1576 28.2319 55.1576 28.2319C55.1576 28.2319 54.7977 30.4431 54.6994 30.7629C54.6011 31.0509 53.8793 31.3389 53.8793 31.3389C53.8793 31.3389 53.486 31.4359 53.0277 31.4676C52.601 31.4676 52.0769 31.3399 51.9461 31.2439C51.7494 31.1479 51.716 30.7638 51.716 30.7638C51.716 30.7638 51.6511 30.4105 51.5527 30.3145C51.4544 30.2185 50.4711 30.1541 49.8152 29.0336C49.356 28.2646 49.651 27.2074 49.7493 26.5987C49.8152 25.9256 49.6844 24.9645 49.6844 24.9645ZM26.1169 24.2281C27.9527 23.3947 30.1161 24.1638 30.9352 25.9573C31.4927 27.1431 31.2626 27.5598 30.476 27.9439C30.6077 28.2319 30.6726 28.52 30.6726 28.8406C30.6726 30.1224 29.591 31.1796 28.2802 31.1796C27.2969 31.1796 26.4443 30.6035 26.0844 29.7384C25.3302 29.9947 24.7726 29.8978 24.3469 28.9367C23.5277 27.1431 24.281 25.0606 26.1169 24.2281ZM64.7294 53.5097H50.0119L49.9135 53.8294C49.9135 53.8294 49.061 56.3603 47.4552 55.9446C45.9477 55.5605 46.5702 53.5097 46.5702 53.5097V53.477H41.4569V56.2643H40.6377V53.477H35.9502L36.1144 54.1501C36.1144 54.1501 36.4094 55.4319 35.2619 55.8802C34.0494 56.3603 33.3611 54.7271 33.3611 54.7271C33.3611 54.7271 33.0985 54.1818 32.7711 53.4453H17.0377V52.6446H32.4426C32.3443 52.3565 32.2135 52.0685 32.1152 51.7795C31.6235 50.4017 31.0011 48.0311 30.8693 47.935C30.7385 47.839 29.7876 47.839 28.6735 47.7104C27.5594 47.5827 26.8052 47.2303 26.6744 47.262C26.346 47.3263 24.0194 50.3056 22.4785 50.5937C20.9376 50.8817 19.3319 48.9605 19.3319 48.9605L17.4311 46.5572C17.4311 46.5572 16.7093 45.5971 17.2344 45.0834C17.8893 44.443 18.5452 44.9231 18.5452 44.9231C18.5452 44.9231 21.1019 46.5572 21.3969 46.7176C21.5935 46.8453 21.6594 46.7493 21.6594 46.7493C21.6594 46.7493 22.0852 46.3652 22.2819 46.1089C22.4126 45.9168 22.2819 45.8208 22.2819 45.8208C22.2819 45.8208 21.036 44.6033 20.5443 44.0906C20.1185 43.6739 20.5119 43.0652 20.5119 43.0652L24.2485 35.7604L19.3319 36.7542C19.3319 36.7542 18.381 36.9779 18.1843 36.3701C17.9876 35.7604 18.9061 35.2487 18.9061 35.2487L25.3961 31.5329C25.3961 31.5329 25.6911 31.3399 25.8219 31.3399C25.9526 31.3073 26.2152 31.4359 26.2152 31.4359C26.2152 31.4359 27.1002 32.1407 28.3461 32.0763C29.591 32.0447 30.2793 31.3082 30.2793 31.3082C30.2793 31.3082 30.4435 31.1479 30.6726 31.0835C30.9027 31.0519 31.4593 31.6279 31.4593 31.6279L37.2285 37.8756C37.2285 37.8756 37.851 38.5477 37.3927 39.1248C36.966 39.6375 36.081 39.0931 36.081 39.0931C36.081 39.0931 32.4426 36.9779 32.3119 36.9135C32.1811 36.8819 32.2135 37.0749 32.2135 37.0749L35.7535 52.5802H40.6043V36.2414C40.2444 36.0177 38.3426 34.6073 38.3426 31.2439C38.3426 27.6241 40.6043 26.2137 40.6702 26.1503C40.7371 26.1034 40.8174 26.0781 40.8998 26.0781C40.9822 26.0781 41.0625 26.1034 41.1294 26.1503C41.2277 26.2137 43.4894 27.6232 43.4894 31.2439C43.4894 34.2232 42.0144 35.6644 41.4244 36.1137V52.5802H46.701L48.8643 42.4891C48.8643 42.4891 50.0777 36.8185 50.0119 36.7542C49.946 36.7215 45.6193 39.4454 45.6193 39.4454C45.6193 39.4454 45.0293 39.9899 44.4069 39.4128C43.7844 38.8367 44.7019 38.036 44.7019 38.036L50.1761 31.7883C50.1761 31.7883 50.3727 31.5646 50.6019 31.5646C50.9293 31.5963 50.9627 31.7883 50.9627 31.7883C50.9627 31.7883 51.5527 33.2938 51.6511 33.2938C51.7494 33.2938 52.5685 32.4614 52.5685 32.4614C52.5685 32.4614 52.9943 32.0447 53.2244 32.013C53.4535 31.9803 53.5843 32.1733 53.5843 32.1733L54.4693 33.4215C54.4693 33.4215 54.6994 33.7105 54.7319 33.7105C54.7977 33.7105 54.8626 33.5828 54.8626 33.5828L55.9119 31.6913C55.9119 31.6913 56.141 31.2439 56.3376 31.0835C56.5677 30.9232 56.9935 31.2112 56.9935 31.2112L63.221 34.8636C63.221 34.8636 64.0735 35.2477 63.8444 36.0494C63.5819 36.9779 62.1393 36.4978 62.1393 36.4978C62.1393 36.4978 57.8461 35.6337 57.8126 35.697C57.7477 35.7604 57.8785 35.9208 57.8785 35.9208C57.8785 35.9208 61.2543 43.3859 61.2219 43.8343C61.1894 44.1866 60.7626 44.4747 60.7626 44.4747C60.7626 44.4747 59.6161 45.1478 59.6161 45.2754C59.5826 45.4041 59.7144 45.5001 59.7144 45.5001C59.7144 45.5001 60.3044 46.1089 60.4676 46.1722C60.6319 46.2049 60.9269 46.0128 60.9269 46.0128L62.8935 44.9874C62.8935 44.9874 63.811 44.251 64.5327 44.9557C65.2535 45.6278 64.2702 46.4929 64.2702 46.4929L62.336 48.6081C62.336 48.6081 61.2219 50.2413 60.1077 50.37C58.9277 50.4977 57.8461 49.4732 57.8461 49.4732C57.8461 49.4732 54.371 46.3969 54.3061 46.3009C54.2402 46.2366 54.1743 46.3335 54.1743 46.3335C54.1743 46.3335 53.8144 47.262 53.6502 47.4223C53.486 47.55 53.191 47.6144 53.191 47.6144C53.191 47.6144 51.7819 47.8064 51.716 47.839C51.6511 47.8707 51.5852 48.1588 51.5852 48.1588L50.2085 52.6762H64.696L64.7294 53.5097ZM39.326 43.8986C40.3427 46.1405 39.8511 48.6398 39.8176 48.7358C39.805 48.7979 39.7777 48.8563 39.738 48.9063C39.6982 48.9563 39.647 48.9965 39.5885 49.0239C39.4577 49.0882 39.326 49.0565 39.1952 48.9922C39.0969 48.9278 36.8676 47.6144 35.8519 45.3724C34.8361 43.0969 35.5569 40.9826 35.5893 40.8866C35.6227 40.7906 35.7211 40.6946 35.8194 40.6629C35.9261 40.631 36.0402 40.631 36.1469 40.6629C36.2127 40.7263 38.3102 41.6231 39.326 43.8986ZM45.8819 40.9826C45.9885 40.9506 46.1026 40.9506 46.2093 40.9826C46.3076 41.0153 46.406 41.1113 46.4394 41.2073C46.4719 41.3033 47.2261 43.3859 46.2093 45.6605C45.226 47.9024 42.9977 49.2485 42.8994 49.3129C42.7676 49.4089 42.6369 49.4089 42.5061 49.3762C42.4474 49.349 42.3961 49.3088 42.3562 49.2588C42.3162 49.2088 42.2888 49.1504 42.276 49.0882C42.2435 48.9922 41.7194 46.4929 42.7027 44.2183C43.6861 41.9437 45.7835 41.0153 45.8819 40.9826ZM87.6411 19.9343H88.4602L88.7227 19.967L88.9843 19.9987L89.2469 20.0304L89.476 20.063L89.7061 20.0947L89.9352 20.1273L90.1643 20.159L90.3944 20.2233L90.6235 20.2867L90.8202 20.351L91.0169 20.4154L91.2135 20.4797L91.4102 20.5431V22.4979L91.1811 22.3693L90.951 22.2733L90.7219 22.1772L90.4927 22.0812L90.2626 21.9852L90.0335 21.9209L89.8044 21.8566L89.5743 21.7932L89.3452 21.7289L89.1161 21.6972L88.886 21.6645L88.6244 21.6328L88.3619 21.6002L88.0993 21.5685H87.2477L86.9193 21.6002L86.5919 21.6328L86.2644 21.6972L85.9694 21.7605L85.6744 21.8249L85.3794 21.9209L85.0844 22.0169L84.8219 22.1456L84.5593 22.2733L84.2977 22.4336L84.0352 22.5939L83.8061 22.7543L83.576 22.9463L83.3469 23.1383L83.1177 23.363L82.9211 23.5867L82.7244 23.8114L82.5602 24.0678L82.396 24.3241L82.2327 24.5805L82.101 24.8685L81.9702 25.1566L81.8719 25.4446L81.7735 25.7653L81.6752 26.086L81.6093 26.4057L81.5444 26.7264L81.511 27.0788L81.4785 27.4312L81.4461 27.7835V28.5209L81.4785 28.8733L81.511 29.193L81.5444 29.5137L81.6093 29.8344L81.6752 30.1541L81.7411 30.4422L81.8394 30.7312L81.9377 31.0192L82.0685 31.2756L82.1993 31.5319L82.3311 31.7883L82.4943 32.109L82.6585 32.3327L82.8552 32.5574L83.0519 32.7811L83.2485 32.9731L83.4452 33.1651L83.6743 33.3581L83.9044 33.5185L84.1335 33.6788L84.3626 33.8065L84.6252 33.9352L84.8877 34.0629L85.1493 34.1589L85.4119 34.2549L85.7069 34.3192L86.0019 34.3836L86.2969 34.4152L86.5919 34.4479L86.9193 34.4796H87.8377L88.1327 34.4469L88.4277 34.4152L88.7227 34.3836L88.9843 34.3509L89.2469 34.2875L89.5094 34.2232L89.771 34.1589L90.0335 34.0946L90.2961 33.9985L90.5252 33.9025L90.7543 33.8065L90.9844 33.7105L91.2135 33.5828L91.4426 33.4541V35.2487L91.2135 35.3447L90.9844 35.4407L90.7543 35.5367L90.4927 35.6327L90.2302 35.7287L89.9676 35.7931L89.7061 35.8574L89.4435 35.9208L89.1485 35.9851L88.8535 36.0177L88.5585 36.0494L88.2635 36.0811L87.9685 36.1137L87.6411 36.1454H86.5594L86.1326 36.1137L85.7393 36.0811L85.346 36.0177L84.9526 35.9534L84.5927 35.8574L84.2319 35.7614L83.871 35.6327L83.5435 35.505L83.2161 35.3447L82.8876 35.1526L82.5926 34.9606L82.2976 34.7359L82.0026 34.5113L81.7411 34.2549L81.4785 33.9985L81.216 33.7105L80.9869 33.4225L80.7577 33.1344L80.5611 32.8137L80.3644 32.493L80.2002 32.1733L80.036 31.82L79.9052 31.4676L79.7744 31.1152L79.6761 30.7312L79.5777 30.3471L79.5119 29.9631L79.446 29.5454L79.4135 29.1297L79.3811 28.7129V27.8479L79.4135 27.3995L79.446 26.9511L79.5119 26.5344L79.5777 26.1177L79.6761 25.701L79.8069 25.3169L79.9376 24.9329L80.1019 24.5488L80.2661 24.1955L80.4627 23.8431L80.6594 23.4907L80.8885 23.17L81.1176 22.8503L81.3802 22.5296L81.6752 22.2416L81.9702 21.9535L82.2652 21.6972L82.5926 21.4408L82.9211 21.2161L83.2485 21.0241L83.576 20.8321L83.9369 20.6717L84.2977 20.5114L84.6576 20.3837L85.051 20.255L85.4443 20.159L85.8376 20.063L86.2644 19.9987L86.6902 19.967L87.116 19.9343H87.6411ZM101.276 21.6002H100.949L100.654 21.6328L100.359 21.6645L100.064 21.6972L99.7685 21.7605L99.506 21.8249L99.2444 21.9209L98.9819 22.0169L98.7193 22.1456L98.4902 22.2733L98.2611 22.4336L98.031 22.5939L97.8019 22.7543L97.5727 22.9463L97.3761 23.1383L97.1794 23.363L96.9827 23.5867L96.8185 23.8114L96.6543 24.0678L96.4911 24.3241L96.3593 24.5805L96.2285 24.8359L96.0977 25.1239L95.9994 25.4129L95.9011 25.701L95.8352 26.0217L95.7693 26.3423L95.7044 26.6621L95.671 26.9828L95.6385 27.3351L95.6061 27.6875V28.3923L95.6385 28.7446L95.671 29.097L95.7044 29.4177L95.7693 29.7384L95.8352 30.0581L95.9011 30.3788L95.9994 30.6668L96.0977 30.9549L96.1961 31.2429L96.3269 31.5002L96.4576 31.7566L96.6219 32.013L96.7861 32.2693L96.9493 32.493L97.146 32.7177L97.3426 32.9414L97.5393 33.1335L97.736 33.3255L97.9661 33.4868L98.1952 33.6462L98.4243 33.7748L98.6544 33.9025L98.916 34.0312L99.1785 34.1272L99.4411 34.2232L99.7026 34.2875L99.9652 34.3509L100.26 34.3836L100.555 34.4152L100.85 34.4479H101.473L101.801 34.4152L102.096 34.3836L102.391 34.3509L102.686 34.2875L102.981 34.2232L103.243 34.1272L103.505 34.0312L103.768 33.9352L104.029 33.8065L104.259 33.6788L104.489 33.5185L104.718 33.3581L104.914 33.1978L105.111 33.0058L105.308 32.8137L105.504 32.5891L105.669 32.3653L105.833 32.1407L105.996 31.8843L106.128 31.6279L106.259 31.3716L106.357 31.0835L106.455 30.7955L106.554 30.5075L106.619 30.1868L106.684 29.8661L106.75 29.5454L106.783 29.193L106.816 28.8406L106.849 28.4883V27.3361L106.816 26.9828L106.783 26.6304L106.718 26.278L106.652 25.9573L106.586 25.6376L106.488 25.3169L106.389 25.0289L106.291 24.7408L106.16 24.4835L106.029 24.2281L105.898 23.9718L105.734 23.7471L105.57 23.5224L105.406 23.2987L105.209 23.1067L105.013 22.9146L104.816 22.7226L104.587 22.5613L104.358 22.4019L104.128 22.2733L103.899 22.1456L103.636 22.0169L103.374 21.9209L103.112 21.8249L102.849 21.7605L102.554 21.6972L102.259 21.6645L101.964 21.6328L101.669 21.6002H101.276ZM101.408 19.9343H101.834L102.227 19.967L102.62 19.9987L103.014 20.063L103.374 20.1273L103.734 20.2233L104.095 20.3194L104.423 20.4471L104.751 20.6074L105.079 20.7677L105.374 20.9598L105.669 21.1518L105.964 21.3765L106.226 21.6002L106.488 21.8566L106.75 22.1129L106.979 22.401L107.209 22.689L107.439 22.978L107.635 23.2987L107.832 23.6194L107.996 23.9391L108.159 24.2915L108.291 24.6439L108.422 24.9962L108.52 25.3803L108.619 25.7653L108.684 26.1494L108.749 26.5661L108.783 26.9828L108.815 27.3995V28.3279L108.783 28.7773L108.717 29.2257L108.651 29.6741L108.586 30.0908L108.488 30.5065L108.389 30.8906L108.258 31.2756L108.127 31.6596L107.963 32.013L107.799 32.3653L107.603 32.6851L107.406 33.0058L107.176 33.3264L106.947 33.6145L106.684 33.9025L106.423 34.1589L106.16 34.4152L105.865 34.6399L105.57 34.8636L105.275 35.0557L104.948 35.2477L104.619 35.409L104.292 35.5684L103.931 35.697L103.571 35.8247L103.21 35.9208L102.817 35.9851L102.424 36.0494L102.03 36.0811L101.604 36.1137H100.752L100.326 36.0811L99.9327 36.0494L99.5394 35.9851L99.1461 35.9208L98.7852 35.8247L98.4243 35.697L98.0644 35.5684L97.736 35.409L97.4085 35.2487L97.0811 35.0566L96.7861 34.8646L96.4911 34.6399L96.1961 34.4152L95.9335 34.1589L95.671 33.9025L95.4094 33.6145L95.1793 33.3264L94.9502 33.0384L94.7535 32.7177L94.5569 32.397L94.3926 32.0763L94.2294 31.724L94.0976 31.3716L93.9669 31.0192L93.8685 30.6352L93.7702 30.2511L93.7043 29.867L93.6394 29.4494L93.606 29.0336L93.5735 28.6169V27.6885L93.606 27.2391L93.6394 26.7907L93.7043 26.374L93.7702 25.9573L93.8685 25.5416L93.9669 25.1575L94.0976 24.7725L94.2294 24.3885L94.3926 24.0351L94.5569 23.6827L94.7535 23.363L94.9502 23.0423L95.1793 22.7216L95.4094 22.4336L95.671 22.1456L95.9335 21.8575L96.1961 21.6002L96.4911 21.3765L96.7861 21.1518L97.1135 20.9598L97.441 20.7677L97.7694 20.6074L98.1293 20.4471L98.4902 20.3194L98.8511 20.1907L99.2444 20.0947L99.6377 20.0304L100.031 19.967L100.457 19.9343L100.883 19.9027L101.408 19.9343ZM119.074 19.9343H119.894L120.156 19.967L120.419 19.9987L120.681 20.0304L120.91 20.063L121.139 20.0947L121.369 20.1273L121.599 20.159L121.828 20.2233L122.058 20.2867L122.254 20.351L122.451 20.4154L122.648 20.4797L122.844 20.5431V22.4979L122.614 22.3693L122.385 22.2733L122.156 22.1772L121.926 22.0812L121.697 21.9852L121.468 21.9209L121.238 21.8566L121.009 21.7932L120.779 21.7289L120.549 21.6972L120.32 21.6645L120.058 21.6328L119.796 21.6002L119.534 21.5685H118.681L118.354 21.6002L118.026 21.6328L117.698 21.6972L117.403 21.7605L117.108 21.8249L116.813 21.9209L116.518 22.0169L116.256 22.1456L115.994 22.2733L115.731 22.4336L115.469 22.5939L115.239 22.7543L115.01 22.9463L114.781 23.1383L114.551 23.363L114.354 23.5867L114.158 23.8114L113.961 24.0678L113.798 24.3241L113.634 24.5805L113.503 24.8685L113.371 25.1566L113.273 25.4446L113.174 25.7653L113.076 26.086L113.011 26.4057L112.945 26.7264L112.913 27.0788L112.879 27.4312L112.847 27.7835V28.5209L112.879 28.8733L112.913 29.193L112.945 29.5137L113.011 29.8344L113.076 30.1541L113.174 30.4422L113.273 30.7312L113.371 31.0192L113.503 31.2756L113.634 31.5319L113.764 31.7883L113.929 32.0447L114.093 32.2693L114.289 32.493L114.486 32.7177L114.683 32.9097L114.879 33.1018L115.109 33.2938L115.338 33.4541L115.568 33.6145L115.797 33.7422L116.059 33.8708L116.321 33.9985L116.584 34.0946L116.846 34.1906L117.141 34.2549L117.436 34.3192L117.731 34.3509L118.026 34.3836L118.354 34.4152H119.271L119.566 34.3836L119.861 34.3509L120.124 34.3192L120.386 34.2875L120.648 34.2232L120.91 34.1589L121.173 34.0946L121.434 34.0312L121.697 33.9352L121.926 33.8392L122.156 33.7431L122.385 33.6471L122.614 33.5185L122.844 33.3898V35.1843L122.614 35.2803L122.385 35.3764L122.156 35.4724L121.894 35.5684L121.631 35.6644L121.369 35.7287L121.107 35.7931L120.844 35.8574L120.549 35.9208L120.254 35.9534L119.959 35.9851L119.664 36.0177L119.369 36.0494L119.042 36.0811H117.96L117.534 36.0494L117.141 36.0168L116.748 35.9534L116.354 35.8891L115.994 35.7931L115.633 35.697L115.273 35.5684L114.944 35.4407L114.617 35.2803L114.289 35.0883L113.994 34.8963L113.699 34.6716L113.404 34.4479L113.142 34.1915L112.879 33.9352L112.618 33.6471L112.388 33.3581L112.159 33.0701L111.962 32.7494L111.765 32.4287L111.601 32.109L111.438 31.7566L111.306 31.4042L111.175 31.0519L111.077 30.6678L110.979 30.2828L110.913 29.8987L110.848 29.482L110.814 29.0653L110.782 28.6486V27.7835L110.814 27.3351L110.848 26.8868L110.913 26.47L110.979 26.0533L111.077 25.6376L111.208 25.2535L111.339 24.8685L111.503 24.4845L111.667 24.1311L111.864 23.7788L112.06 23.4264L112.289 23.1067L112.519 22.786L112.781 22.4653L113.076 22.1772L113.371 21.8892L113.666 21.6328L113.994 21.3765L114.322 21.1518L114.649 20.9598L114.978 20.7677L115.338 20.6074L115.699 20.4471L116.059 20.3194L116.584 20.255L116.977 20.159L117.37 20.063L117.796 19.9987L118.223 19.967L118.649 19.9343H119.074ZM137.398 21.8566L137.364 22.2089L137.332 22.5613L137.299 22.9137L137.266 23.267L137.201 23.6511L137.135 24.0351L137.069 24.4192L137.004 24.8042L136.939 25.1883L136.84 25.605L136.742 26.0217L136.644 26.4384L136.545 26.8551L136.414 27.3035L136.283 27.7518L136.152 28.2002L136.021 28.6486L135.889 29.097L135.759 29.5137L135.628 29.9304L135.496 30.3471L135.365 30.7312L135.234 31.1152L135.103 31.4993L134.972 31.8843L134.808 32.2367L134.644 32.5891L134.48 32.9414L134.316 33.2621L134.153 33.5828L133.989 33.9025L133.824 34.2232H141.462V21.8566H137.398ZM135.791 20.1907H143.33V34.1915H145.494V40.0542H143.789V35.8574H132.317V40.0532H130.579V34.1915H131.825L132.022 33.8392L132.219 33.4551L132.415 33.0701L132.612 32.686L132.809 32.301L132.973 31.8843L133.136 31.4676L133.3 31.0519L133.464 30.6352L133.628 30.2185L133.792 29.7701L133.956 29.3217L134.119 28.8733L134.284 28.4249L134.414 27.9448L134.546 27.4638L134.677 26.9837L134.808 26.5027L134.939 26.0226L135.038 25.5416L135.136 25.0606L135.234 24.6122L135.333 24.1638L135.431 23.7154L135.496 23.267L135.562 22.8177L135.628 22.3693L135.693 21.9209L135.726 21.4725L135.759 21.0241L135.791 20.5757V20.1917V20.1907ZM148.378 20.1907H150.246V33.5511H150.279L150.41 33.2948L150.574 33.0384L150.738 32.782L150.902 32.494L158.867 20.1907H161.293V35.8574H159.424V22.3702H159.359L159.26 22.6256L159.129 22.882L158.998 23.1383L158.867 23.363L150.607 35.8574H148.378V20.1907ZM163.882 20.1907H174.994V21.8566H170.372V35.8574H168.504V21.8566H163.882V20.1907ZM182.336 21.8566H181.746L181.582 21.8892L181.418 21.9209L181.254 21.9526L181.09 21.9852L180.926 22.0169L180.763 22.0495L180.631 22.1129L180.5 22.1772L180.369 22.2416L180.238 22.3059L180.107 22.3693L179.976 22.4653L179.878 22.5613L179.779 22.6573L179.681 22.7533L179.583 22.8493L179.484 22.9454L179.419 23.074L179.353 23.2027L179.288 23.3304L179.222 23.459L179.156 23.5867L179.124 23.7154L179.091 23.8431L179.058 24.0034L179.025 24.1638L178.993 24.3241V24.9645L179.025 25.1249L179.058 25.2852L179.091 25.4446L179.124 25.5733L179.189 25.701L179.254 25.8296L179.32 25.9573L179.386 26.086L179.451 26.2137L179.517 26.3423L179.615 26.47L179.714 26.5661L179.812 26.6621L179.91 26.7581L180.009 26.8541L180.139 26.9501L180.271 27.0461L180.402 27.1114L180.533 27.1748L180.664 27.2391L180.795 27.3035L180.926 27.3668L181.09 27.3995L181.254 27.4312L181.418 27.4638L181.582 27.4955L181.746 27.5272H184.958V21.8566H182.336ZM182.172 20.1907H186.826V35.8574H184.958V29.194H182.467L182.303 29.2257L182.139 29.2573L181.975 29.29L181.844 29.3534L181.713 29.4177L181.582 29.482L181.451 29.578L181.385 29.6097L181.319 29.6741L181.254 29.7384L181.189 29.8018L181.123 29.8661L181.058 29.9621L180.992 30.0581L180.926 30.1541L180.861 30.2501L180.795 30.3462L180.729 30.4748L180.664 30.6025L180.599 30.7312L180.533 30.8589L180.468 31.0192L180.402 31.1796L178.403 35.8891H176.174L178.599 30.6668L178.664 30.5391L178.73 30.4105L178.796 30.2828L178.894 30.1541L178.993 30.0264L179.091 29.8978L179.189 29.7701L179.32 29.6414L179.451 29.5137L179.583 29.386L179.714 29.2573L179.844 29.1613L179.976 29.0653L180.139 28.9693L180.304 28.905L180.468 28.8406V28.809L180.271 28.7773L180.074 28.7129L179.878 28.6486L179.714 28.5843L179.549 28.5209L179.386 28.4566L179.222 28.3606L179.058 28.2646L178.894 28.1685L178.763 28.0725L178.632 27.9765L178.501 27.8805L178.369 27.7518L178.239 27.6232L178.108 27.4955L178.009 27.3668L177.911 27.2391L177.813 27.1114L177.714 26.9511L177.616 26.7907L177.55 26.6304L177.484 26.47L177.419 26.3097L177.354 26.1503L177.288 25.99L177.255 25.8296L177.223 25.6693L177.189 25.4773L177.157 25.2852L177.124 25.0932V24.4518L177.157 24.1955L177.189 23.9718L177.223 23.7471L177.288 23.5224L177.354 23.2987L177.419 23.074L177.518 22.882L177.616 22.69L177.714 22.4979L177.845 22.3059L177.976 22.1139L178.108 21.9526L178.271 21.7932L178.435 21.6328L178.599 21.4725L178.796 21.3121L178.993 21.1845L179.189 21.0558L179.386 20.9281L179.583 20.8321L179.812 20.7361L179.844 20.5757L180.074 20.4797L180.304 20.4154L180.533 20.351L180.795 20.2867L181.058 20.255L181.319 20.2233L181.582 20.1907H182.172ZM190.793 20.1907H192.661V26.3097L192.694 26.5977L192.759 26.8551L192.824 27.1114L192.923 27.3351L193.054 27.5272L193.185 27.7192L193.349 27.8795L193.546 28.0399L193.743 28.1685L193.972 28.2646L194.234 28.3606L194.496 28.4249L194.791 28.4883L195.119 28.5209H195.971L196.234 28.4883L196.496 28.4566L196.758 28.4249L197.02 28.3606L197.283 28.2962L197.578 28.2319L197.873 28.1359L198.168 28.0399L198.463 27.9439L198.758 27.8479L199.053 27.7192L199.348 27.5915L199.643 27.4638L199.97 27.3035V20.1907H201.839V35.8574H199.97V28.808L199.643 28.9683L199.314 29.1287L198.987 29.2564L198.692 29.385L198.397 29.5127L198.102 29.6088L197.807 29.7048L197.512 29.8008L197.217 29.8651L196.922 29.9295L196.627 29.9928L196.332 30.0255L196.037 30.0572L195.742 30.0898H194.66L194.431 30.0572L194.201 30.0255L193.972 29.9928L193.743 29.9611L193.513 29.8968L193.316 29.8334L193.119 29.7691L192.923 29.6731L192.726 29.5771L192.563 29.4811L192.399 29.385L192.234 29.2564L192.071 29.1287L191.939 29L191.809 28.8723L191.678 28.7437L191.546 28.5833L191.448 28.4239L191.349 28.2636L191.251 28.1033L191.153 27.9112L191.088 27.7192L191.022 27.5272L190.956 27.3351L190.924 27.1422L190.891 26.9175L190.858 26.6938L190.825 26.4691V20.1897L190.793 20.1907ZM204.624 20.1907H209.639V21.7605H208.066V34.2875H209.639V35.8574H204.624V34.2875H206.198V21.7605H204.624V20.1907ZM80.4952 45.8208H82.986L87.9026 56.7453L88.0344 57.0651L88.1652 57.3531L88.2635 57.6095L88.3619 57.8668L88.4602 58.0905L88.5261 58.2825L88.591 58.4746L88.6244 58.6349H88.6893L88.8211 58.3152L88.9194 58.0271L89.0177 57.7698L89.1161 57.5135L89.2144 57.2897L89.3127 57.0651L89.4111 56.873L89.476 56.7127L94.491 45.8208H96.851V61.4865H94.9826V49.5692L95.0161 49.1852L95.0485 48.7675L95.081 48.3518L95.1144 47.9024H95.081L95.0161 48.1588L94.9502 48.3834L94.8843 48.6081L94.8194 48.8001L94.7535 48.9922L94.6876 49.1525L94.6227 49.2802L94.5569 49.4089L89.0826 61.4539H88.1652L82.691 49.5049L82.6261 49.3762L82.5602 49.2168L82.4943 49.0565L82.4294 48.8645L82.3635 48.6398L82.2976 48.4151L82.2327 48.1588L82.1669 47.9024H82.1344V61.4539H80.331V45.8218L80.4952 45.8208ZM99.506 45.8208H104.521V47.3906H102.948V59.9167H104.521V61.4865H99.506V59.9167H101.079V47.3906H99.506V45.8208ZM114.289 45.5645H115.109L115.371 45.5961L115.633 45.6278L115.895 45.6605L116.124 45.6922L116.354 45.7248L116.584 45.7565L116.813 45.7882L117.043 45.8525L117.272 45.9168L117.469 45.9802L117.665 46.0445L117.862 46.1089L118.059 46.1732V48.1271L117.829 47.9994L117.599 47.9034L117.37 47.8074L117.141 47.7113L116.911 47.6153L116.682 47.55L116.453 47.4867L116.223 47.4223L115.994 47.358L115.764 47.3263L115.534 47.2937L115.273 47.262L115.01 47.2303L114.748 47.1977H113.896L113.568 47.2303L113.24 47.262L112.913 47.3263L112.618 47.3906L112.323 47.454L112.028 47.55L111.733 47.646L111.47 47.7747L111.208 47.9024L110.946 48.0627L110.684 48.2231L110.454 48.3834L110.224 48.5755L109.995 48.7675L109.766 48.9922L109.569 49.2168L109.373 49.4406L109.176 49.6969L109.012 49.9533L108.848 50.2096L108.717 50.4977L108.586 50.7857L108.488 51.0738L108.389 51.3945L108.291 51.7151L108.225 52.0358L108.159 52.3556L108.127 52.7079L108.094 53.0603L108.061 53.4127V54.1501L108.094 54.5024L108.127 54.8231L108.159 55.1429L108.225 55.4635L108.291 55.7842L108.389 56.0723L108.488 56.3603L108.586 56.6484L108.717 56.9047L108.848 57.1611L108.979 57.4174L109.143 57.6738L109.307 57.8985L109.504 58.1222L109.7 58.3469L109.897 58.5389L110.094 58.7309L110.323 58.923L110.553 59.0833L110.782 59.2436L111.011 59.3723L111.274 59.5L111.536 59.6287L111.798 59.7247L112.06 59.8207L112.355 59.885L112.65 59.9484L112.945 59.981L113.24 60.0127L113.568 60.0444H114.486L114.781 60.0127L115.076 59.981L115.338 59.9484L115.6 59.9167L115.863 59.8524L116.124 59.788L116.387 59.7247L116.649 59.6603L116.911 59.5643L117.141 59.4683L117.37 59.3723L117.599 59.2763L117.829 59.1476L118.059 59.0199V60.8135L117.829 60.9095L117.599 61.0055L117.37 61.1015L117.108 61.1975L116.846 61.2935L116.584 61.3579L116.321 61.4222L116.059 61.4865L115.764 61.5509L115.469 61.5826L115.174 61.6142L114.879 61.6469L114.584 61.6786L114.256 61.7103H113.174L112.749 61.6786L112.355 61.6469L111.962 61.5826L111.569 61.5182L111.208 61.4222L110.848 61.3262L110.487 61.1985L110.159 61.0698L109.831 60.9095L109.504 60.7175L109.209 60.5254L108.914 60.3008L108.619 60.077L108.356 59.8207L108.094 59.5643L107.832 59.2763L107.603 58.9882L107.373 58.6992L107.176 58.3785L106.979 58.0588L106.816 57.7381L106.652 57.3858L106.521 57.0334L106.389 56.681L106.291 56.297L106.193 55.9129L106.128 55.5279L106.062 55.1112L106.029 54.6945L105.996 54.2778V53.4127L106.029 52.9643L106.062 52.5159L106.128 52.1002L106.226 51.6835L106.324 51.2668L106.455 50.8827L106.586 50.4986L106.75 50.1136L106.914 49.7612L107.111 49.4089L107.308 49.0565L107.537 48.7358L107.766 48.4151L108.029 48.0954L108.324 47.8074L108.619 47.5183L108.914 47.262L109.241 47.0056L109.569 46.7819L109.897 46.5899L110.224 46.3979L110.585 46.2366L110.946 46.0762L111.306 45.9485L111.699 45.8208L112.093 45.7248L112.486 45.6288L112.913 45.5645L113.339 45.5318L113.764 45.5001L114.289 45.5645ZM119.698 45.8208H130.809V47.4867H126.188V61.4856H124.319V47.4867H119.698V45.8208ZM133.333 45.8208H141.462V47.4867H135.201V52.7079H141.003V54.3421H135.201V59.8207H141.823V61.4865H133.333V45.8208ZM144.674 45.8208H146.543V51.9398L146.575 52.2279L146.641 52.4842L146.706 52.7406L146.804 52.9643L146.936 53.1563L147.067 53.3484L147.231 53.5097L147.428 53.669L147.624 53.7977L147.854 53.8937L148.116 53.9897L148.378 54.0541L148.673 54.1184L149.001 54.1501H149.853L150.115 54.1184L150.378 54.0857L150.639 54.0541L150.902 53.9897L151.164 53.9254L151.459 53.862L151.754 53.766L152.049 53.67L152.344 53.574L152.639 53.478L152.934 53.3493L153.229 53.2206L153.524 53.0929L153.852 52.9326V45.8208H155.72V61.4865H153.852V54.4391L153.524 54.5985L153.196 54.7588L152.869 54.8865L152.574 55.0152L152.279 55.1429L151.984 55.2389L151.689 55.3349L151.394 55.4309L151.099 55.4952L150.804 55.5596L150.509 55.6239L150.214 55.6556L149.919 55.6882L149.624 55.7199H148.542L148.313 55.6882L148.083 55.6556L147.854 55.6239L147.624 55.5912L147.394 55.5279L147.198 55.4635L147.001 55.3992L146.804 55.3032L146.608 55.2072L146.444 55.1112L146.28 55.0152L146.116 54.8865L145.953 54.7588L145.821 54.6301L145.69 54.5024L145.559 54.3747L145.428 54.2144L145.329 54.0541L145.231 53.8937L145.133 53.7334L145.034 53.5413L144.969 53.3493L144.904 53.1573L144.838 52.9652L144.805 52.7732L144.773 52.5485L144.739 52.3239L144.707 52.1002V45.8208H144.674ZM160.047 45.8208H161.915V53.189H161.948L162.046 53.0613L162.144 52.9326L162.243 52.8049L162.374 52.6762L168.373 45.8525H170.699L163.816 53.381L171.159 61.5509H168.536L162.341 54.3747L162.243 54.2787L162.178 54.1827L162.112 54.0867L162.046 54.0214L162.014 53.958L161.981 53.8937L161.948 53.862L161.915 53.8294H161.883V61.5509H160.014V45.8208H160.047ZM178.566 47.7104L178.534 47.8707L178.501 48.0311L178.468 48.1914L178.435 48.3191L178.403 48.4478L178.369 48.5755L178.337 48.6715L178.304 48.7675L175.813 55.4309H181.385L178.861 48.7675L178.829 48.6715L178.796 48.5755L178.763 48.4478L178.73 48.3191L178.698 48.1914L178.664 48.0311L178.632 47.8707L178.599 47.7104H178.566ZM177.649 45.8208H179.583L185.744 61.4865H183.679L181.975 57.0977H175.19L173.584 61.4856H171.486L177.649 45.8208Z" fill="white"/>
</g>
</g>
<defs>
<clipPath id="clip0_462_6155">
<rect width="196.667" height="44.1667" fill="white" transform="translate(13.3335 18.333)"/>
</clipPath>
</defs>
</svg>
